M48
;Layer_Color=9474304
;FILE_FORMAT=4:4
METRIC,LZ
;TYPE=PLATED
T1F00S00C0.3000
T3F00S00C1.0000
T4F00S00C1.1000
T5F00S00C1.2000
T6F00S00C1.5000
T7F00S00C3.2000
;TYPE=NON_PLATED
T8F00S00C3.2000
%
T01
X00057912Y00189992
X0008271Y00186276
X0011684Y00163576
X00128524Y002032
X00131572Y00211836
X00148844Y00205994
X00209804Y00207264
X00254762Y00235204
X00300736Y00242824
X00314048Y00261799
X00327406Y0023622
X00304292Y00158496
X00230886Y00136906
X00306324Y00016002
X00159004Y00268224
X00150198Y00269041
X00106934Y00286512
X00090678Y00307848
X00086106Y00317778
X00095898Y00321195
X00066802Y00311404
X0006171Y00296651
X00447802Y00302006
X00447294Y00286512
X0054229Y00307086
X00565844Y00302954
X0057912Y00251826
X00595376Y0023026
X00624873Y00234679
X00623824Y00258826
X0065411Y00180848
X00582676Y00157226
X00558546Y00158242
X00467106Y0015875
X0036171Y0009436
X00621505Y00063533
X00565658Y00351028
X0054356Y00336042
X00404093Y00359226
X00400812Y00366522
X00362815Y00365609
X00354496Y00373292
X00370943Y00357481
X00345694Y00348742
X00403606Y00476504
X00420092Y0046586
X00437666Y00452604
X00621823Y00453929
X00314428Y00413996
X00324502Y00403208
X00286381Y00427859
X0027559Y00444904
X00197358Y00440436
X00170434Y00442722
Y00427116
X00186944Y0037465
X00198374Y0037846
X0014732Y00379476
X00133525Y00349187
X00123571Y00351663
X0011049Y00366522
X00096012Y00344932
X00078147Y00343747
X00066548Y00343916
X00102108Y00402336
X00094234Y00420116
X00102108Y0046863
X00111506Y00471678
X00057404Y0052578
X00223012Y00500634
X00289814Y00374904
X00290068Y00366522
X00289814Y00357886
T03
X0020571Y0002936
X0025071
Y0010036
X0020571
X0060071Y0027236
Y0031736
X0067171
Y0027236
T04
X0012671Y0009736
X0015211
X0017751
X0028011Y0014116
X0030551
X0033091
Y0021736
X0030551
X0028011
Y0003876
X0030551
X0033091
X0035631
X0038171
X0040711
X0043251
X0045791
X0049601
X0052141
X0054681
X0057221
X0059761
X0062301
X0061031Y0014116
X0058491
X0055951
X0053411
X0050871
X0048331
X0045791
X0043251
X0040711
X0038171
X0035631
Y0021736
X0038171
X0040711
X0043251
X0045791
X0048331
X0050871
X0053411
X0055951
X0058491
X0061031
X0066071Y0042856
Y0045396
Y0047936
X0063571Y0052136
X0061031
X0058491
X0055951
X0053411
X0050871
X0048331
X0045791
X00417068Y00521462
X00391668
X00366268
X00340868
X00315468
X00290068
X00264668
X00239268
X00213868
X00188468
X0014871Y0047286
Y0044746
Y0042206
Y0039666
T05
X000236Y003556
X00049
Y00381
X000236
X000254Y0040936
Y0043476
X000508
X000762
Y0040936
X000508
Y00479298
Y00504698
X000254
Y00479298
X000762
Y00504698
T06
X0002371Y0004336
X0002271Y0013636
T07
X0014041Y0003876
X0066111Y0008956
Y0036896
T08
X0015311Y0052136
M30
