G04*
G04 #@! TF.GenerationSoftware,Altium Limited,Altium Designer,20.2.6 (244)*
G04*
G04 Layer_Color=2752767*
%FSLAX44Y44*%
%MOMM*%
G71*
G04*
G04 #@! TF.SameCoordinates,CE6D2A43-BF16-4D6C-96BE-271B1CC6D4BA*
G04*
G04*
G04 #@! TF.FilePolarity,Positive*
G04*
G01*
G75*
%ADD84C,0.0508*%
%ADD85C,0.0677*%
D84*
X146678Y420028D02*
Y424092D01*
X150742D01*
Y420028D01*
X146678D01*
Y445428D02*
Y449492D01*
X150742D01*
Y445428D01*
X146678D01*
Y470828D02*
Y474892D01*
X150742D01*
Y470828D01*
X146678D01*
Y394628D02*
Y398692D01*
X150742D01*
Y394628D01*
X146678D01*
X415036Y519430D02*
Y523494D01*
X419100D01*
Y519430D01*
X415036D01*
X389636D02*
Y523494D01*
X393700D01*
Y519430D01*
X389636D01*
X364236D02*
Y523494D01*
X368300D01*
Y519430D01*
X364236D01*
X338836D02*
Y523494D01*
X342900D01*
Y519430D01*
X338836D01*
X313436D02*
Y523494D01*
X317500D01*
Y519430D01*
X313436D01*
X288036D02*
Y523494D01*
X292100D01*
Y519430D01*
X288036D01*
X262636D02*
Y523494D01*
X266700D01*
Y519430D01*
X262636D01*
X237236D02*
Y523494D01*
X241300D01*
Y519430D01*
X237236D01*
X211836D02*
Y523494D01*
X215900D01*
Y519430D01*
X211836D01*
X186436D02*
Y523494D01*
X190500D01*
Y519430D01*
X186436D01*
X20960Y167828D02*
X18928Y171892D01*
X22992D01*
X20960Y167828D01*
Y233828D02*
X18928Y237892D01*
X22992D01*
X20960Y233828D01*
X22710Y134328D02*
X23726Y135344D01*
X24742D01*
X23726Y136360D01*
X24742Y137376D01*
X23726D01*
X22710Y138392D01*
X21694Y137376D01*
X20678D01*
X21694Y136360D01*
X20678Y135344D01*
X21694D01*
X22710Y134328D01*
X23710Y41328D02*
X24726Y42344D01*
X25742D01*
X24726Y43360D01*
X25742Y44376D01*
X24726D01*
X23710Y45392D01*
X22694Y44376D01*
X21678D01*
X22694Y43360D01*
X21678Y42344D01*
X22694D01*
X23710Y41328D01*
X175478Y95328D02*
Y99392D01*
X179542D01*
Y95328D01*
X175478D01*
X124678D02*
Y99392D01*
X128742D01*
Y95328D01*
X124678D01*
X150078D02*
Y99392D01*
X154142D01*
Y95328D01*
X150078D01*
X455878Y36728D02*
Y40792D01*
X459942D01*
Y36728D01*
X455878D01*
X430478D02*
Y40792D01*
X434542D01*
Y36728D01*
X430478D01*
X405078D02*
Y40792D01*
X409142D01*
Y36728D01*
X405078D01*
X379678D02*
Y40792D01*
X383742D01*
Y36728D01*
X379678D01*
X354278D02*
Y40792D01*
X358342D01*
Y36728D01*
X354278D01*
X328878D02*
Y40792D01*
X332942D01*
Y36728D01*
X328878D01*
X303478D02*
Y40792D01*
X307542D01*
Y36728D01*
X303478D01*
X278078D02*
Y40792D01*
X282142D01*
Y36728D01*
X278078D01*
X493978D02*
Y40792D01*
X498042D01*
Y36728D01*
X493978D01*
X595578D02*
Y40792D01*
X599642D01*
Y36728D01*
X595578D01*
X570178D02*
Y40792D01*
X574242D01*
Y36728D01*
X570178D01*
X544778D02*
Y40792D01*
X548842D01*
Y36728D01*
X544778D01*
X519378D02*
Y40792D01*
X523442D01*
Y36728D01*
X519378D01*
X620978D02*
Y40792D01*
X625042D01*
Y36728D01*
X620978D01*
X658678Y426528D02*
Y430592D01*
X662742D01*
Y426528D01*
X658678D01*
Y477328D02*
Y481392D01*
X662742D01*
Y477328D01*
X658678D01*
Y451928D02*
Y455992D01*
X662742D01*
Y451928D01*
X658678D01*
X633678Y519328D02*
Y523392D01*
X637742D01*
Y519328D01*
X633678D01*
X608278D02*
Y523392D01*
X612342D01*
Y519328D01*
X608278D01*
X582878D02*
Y523392D01*
X586942D01*
Y519328D01*
X582878D01*
X557478D02*
Y523392D01*
X561542D01*
Y519328D01*
X557478D01*
X532078D02*
Y523392D01*
X536142D01*
Y519328D01*
X532078D01*
X506678D02*
Y523392D01*
X510742D01*
Y519328D01*
X506678D01*
X481278D02*
Y523392D01*
X485342D01*
Y519328D01*
X481278D01*
X455878D02*
Y523392D01*
X459942D01*
Y519328D01*
X455878D01*
X248678Y27328D02*
X249694Y29360D01*
X248678Y31392D01*
X250710Y30376D01*
X252742Y31392D01*
X251726Y29360D01*
X252742Y27328D01*
X250710Y28344D01*
X248678Y27328D01*
Y98328D02*
X249694Y100360D01*
X248678Y102392D01*
X250710Y101376D01*
X252742Y102392D01*
X251726Y100360D01*
X252742Y98328D01*
X250710Y99344D01*
X248678Y98328D01*
X203678Y27328D02*
X204694Y29360D01*
X203678Y31392D01*
X205710Y30376D01*
X207742Y31392D01*
X206726Y29360D01*
X207742Y27328D01*
X205710Y28344D01*
X203678Y27328D01*
Y98328D02*
X204694Y100360D01*
X203678Y102392D01*
X205710Y101376D01*
X207742Y102392D01*
X206726Y100360D01*
X207742Y98328D01*
X205710Y99344D01*
X203678Y98328D01*
X278078Y139128D02*
Y143192D01*
X282142D01*
Y139128D01*
X278078D01*
X303478D02*
Y143192D01*
X307542D01*
Y139128D01*
X303478D01*
X328878D02*
Y143192D01*
X332942D01*
Y139128D01*
X328878D01*
X354278D02*
Y143192D01*
X358342D01*
Y139128D01*
X354278D01*
X379678D02*
Y143192D01*
X383742D01*
Y139128D01*
X379678D01*
X405078D02*
Y143192D01*
X409142D01*
Y139128D01*
X405078D01*
X430478D02*
Y143192D01*
X434542D01*
Y139128D01*
X430478D01*
X455878D02*
Y143192D01*
X459942D01*
Y139128D01*
X455878D01*
X481278D02*
Y143192D01*
X485342D01*
Y139128D01*
X481278D01*
X506678D02*
Y143192D01*
X510742D01*
Y139128D01*
X506678D01*
X532078D02*
Y143192D01*
X536142D01*
Y139128D01*
X532078D01*
X557478D02*
Y143192D01*
X561542D01*
Y139128D01*
X557478D01*
X582878D02*
Y143192D01*
X586942D01*
Y139128D01*
X582878D01*
X608278D02*
Y143192D01*
X612342D01*
Y139128D01*
X608278D01*
X278078Y215328D02*
Y219392D01*
X282142D01*
Y215328D01*
X278078D01*
X303478D02*
Y219392D01*
X307542D01*
Y215328D01*
X303478D01*
X328878D02*
Y219392D01*
X332942D01*
Y215328D01*
X328878D01*
X354278D02*
Y219392D01*
X358342D01*
Y215328D01*
X354278D01*
X379678D02*
Y219392D01*
X383742D01*
Y215328D01*
X379678D01*
X405078D02*
Y219392D01*
X409142D01*
Y215328D01*
X405078D01*
X430478D02*
Y219392D01*
X434542D01*
Y215328D01*
X430478D01*
X455878D02*
Y219392D01*
X459942D01*
Y215328D01*
X455878D01*
X481278D02*
Y219392D01*
X485342D01*
Y215328D01*
X481278D01*
X506678D02*
Y219392D01*
X510742D01*
Y215328D01*
X506678D01*
X532078D02*
Y219392D01*
X536142D01*
Y215328D01*
X532078D01*
X557478D02*
Y219392D01*
X561542D01*
Y215328D01*
X557478D01*
X582878D02*
Y219392D01*
X586942D01*
Y215328D01*
X582878D01*
X608278D02*
Y219392D01*
X612342D01*
Y215328D01*
X608278D01*
X598678Y270328D02*
X599694Y272360D01*
X598678Y274392D01*
X600710Y273376D01*
X602742Y274392D01*
X601726Y272360D01*
X602742Y270328D01*
X600710Y271344D01*
X598678Y270328D01*
X669678D02*
X670694Y272360D01*
X669678Y274392D01*
X671710Y273376D01*
X673742Y274392D01*
X672726Y272360D01*
X673742Y270328D01*
X671710Y271344D01*
X669678Y270328D01*
X598678Y315328D02*
X599694Y317360D01*
X598678Y319392D01*
X600710Y318376D01*
X602742Y319392D01*
X601726Y317360D01*
X602742Y315328D01*
X600710Y316344D01*
X598678Y315328D01*
X669678D02*
X670694Y317360D01*
X669678Y319392D01*
X671710Y318376D01*
X673742Y319392D01*
X672726Y317360D01*
X673742Y315328D01*
X671710Y316344D01*
X669678Y315328D01*
X152094Y520344D02*
Y519328D01*
X154126D01*
Y520344D01*
X155142D01*
Y522376D01*
X154126D01*
Y523392D01*
X152094D01*
Y522376D01*
X151078D01*
Y520344D01*
X152094D01*
X659078Y366928D02*
X660094D01*
X661110Y367944D01*
X662126Y366928D01*
X663142D01*
Y367944D01*
X662126Y368960D01*
X663142Y369976D01*
Y370992D01*
X662126D01*
X661110Y369976D01*
X660094Y370992D01*
X659078D01*
Y369976D01*
X660094Y368960D01*
X659078Y367944D01*
Y366928D01*
Y87528D02*
X660094D01*
X661110Y88544D01*
X662126Y87528D01*
X663142D01*
Y88544D01*
X662126Y89560D01*
X663142Y90576D01*
Y91592D01*
X662126D01*
X661110Y90576D01*
X660094Y91592D01*
X659078D01*
Y90576D01*
X660094Y89560D01*
X659078Y88544D01*
Y87528D01*
X138378Y36728D02*
X139394D01*
X140410Y37744D01*
X141426Y36728D01*
X142442D01*
Y37744D01*
X141426Y38760D01*
X142442Y39776D01*
Y40792D01*
X141426D01*
X140410Y39776D01*
X139394Y40792D01*
X138378D01*
Y39776D01*
X139394Y38760D01*
X138378Y37744D01*
Y36728D01*
X304292Y16002D02*
X306324Y18034D01*
X308356Y16002D01*
X306324Y13970D01*
X304292Y16002D01*
X619473Y63533D02*
X621505Y65565D01*
X623537Y63533D01*
X621505Y61501D01*
X619473Y63533D01*
X146812Y205994D02*
X148844Y208026D01*
X150876Y205994D01*
X148844Y203962D01*
X146812Y205994D01*
X59678Y296651D02*
X61710Y298683D01*
X63742Y296651D01*
X61710Y294619D01*
X59678Y296651D01*
X228854Y136906D02*
X230886Y138938D01*
X232918Y136906D01*
X230886Y134874D01*
X228854Y136906D01*
X80678Y186276D02*
X82710Y188308D01*
X84742Y186276D01*
X82710Y184244D01*
X80678Y186276D01*
X195326Y440436D02*
X197358Y442468D01*
X199390Y440436D01*
X197358Y438404D01*
X195326Y440436D01*
X64516Y343916D02*
X66548Y345948D01*
X68580Y343916D01*
X66548Y341884D01*
X64516Y343916D01*
X129540Y211836D02*
X131572Y213868D01*
X133604Y211836D01*
X131572Y209804D01*
X129540Y211836D01*
X148166Y269041D02*
X150198Y271073D01*
X152230Y269041D01*
X150198Y267009D01*
X148166Y269041D01*
X126492Y203200D02*
X128524Y205232D01*
X130556Y203200D01*
X128524Y201168D01*
X126492Y203200D01*
X156972Y268224D02*
X159004Y270256D01*
X161036Y268224D01*
X159004Y266192D01*
X156972Y268224D01*
X322470Y403208D02*
X324502Y405240D01*
X326534Y403208D01*
X324502Y401176D01*
X322470Y403208D01*
X352464Y373292D02*
X354496Y375324D01*
X356528Y373292D01*
X354496Y371260D01*
X352464Y373292D01*
X418060Y465860D02*
X420092Y467892D01*
X422124Y465860D01*
X420092Y463828D01*
X418060Y465860D01*
X435634Y452604D02*
X437666Y454636D01*
X439698Y452604D01*
X437666Y450572D01*
X435634Y452604D01*
X220980Y500634D02*
X223012Y502666D01*
X225044Y500634D01*
X223012Y498602D01*
X220980Y500634D01*
X312396Y413996D02*
X314428Y416028D01*
X316460Y413996D01*
X314428Y411964D01*
X312396Y413996D01*
X360783Y365609D02*
X362815Y367641D01*
X364847Y365609D01*
X362815Y363577D01*
X360783Y365609D01*
X368911Y357481D02*
X370943Y359513D01*
X372975Y357481D01*
X370943Y355449D01*
X368911Y357481D01*
X284349Y427859D02*
X286381Y429891D01*
X288413Y427859D01*
X286381Y425827D01*
X284349Y427859D01*
X131493Y349187D02*
X133525Y351218D01*
X135557Y349187D01*
X133525Y347155D01*
X131493Y349187D01*
X121539Y351663D02*
X123571Y353695D01*
X125603Y351663D01*
X123571Y349631D01*
X121539Y351663D01*
X108458Y366522D02*
X110490Y368554D01*
X112522Y366522D01*
X110490Y364490D01*
X108458Y366522D01*
X145288Y379476D02*
X147320Y381508D01*
X149352Y379476D01*
X147320Y377444D01*
X145288Y379476D01*
X196342Y378460D02*
X198374Y380492D01*
X200406Y378460D01*
X198374Y376428D01*
X196342Y378460D01*
X184912Y374650D02*
X186944Y376682D01*
X188976Y374650D01*
X186944Y372618D01*
X184912Y374650D01*
X84074Y317778D02*
X86106Y319810D01*
X88138Y317778D01*
X86106Y315746D01*
X84074Y317778D01*
X93865Y321195D02*
X95898Y323228D01*
X97929Y321195D01*
X95898Y319163D01*
X93865Y321195D01*
X76115Y343747D02*
X78147Y345779D01*
X80179Y343747D01*
X78147Y341715D01*
X76115Y343747D01*
X92202Y420116D02*
X94234Y422148D01*
X96266Y420116D01*
X94234Y418084D01*
X92202Y420116D01*
X168402Y427116D02*
X170434Y429148D01*
X172466Y427116D01*
X170434Y425084D01*
X168402Y427116D01*
X100076Y402336D02*
X102108Y404368D01*
X104140Y402336D01*
X102108Y400304D01*
X100076Y402336D01*
X64770Y311404D02*
X66802Y313436D01*
X68834Y311404D01*
X66802Y309372D01*
X64770Y311404D01*
X359678Y94360D02*
X361710Y96392D01*
X363742Y94360D01*
X361710Y92328D01*
X359678Y94360D01*
X465074Y158750D02*
X467106Y160782D01*
X469138Y158750D01*
X467106Y156718D01*
X465074Y158750D01*
X445262Y286512D02*
X447294Y288544D01*
X449326Y286512D01*
X447294Y284480D01*
X445262Y286512D01*
X114808Y163576D02*
X116840Y165608D01*
X118872Y163576D01*
X116840Y161544D01*
X114808Y163576D01*
X445770Y302006D02*
X447802Y304038D01*
X449834Y302006D01*
X447802Y299974D01*
X445770Y302006D01*
X577088Y251826D02*
X579120Y253858D01*
X581152Y251826D01*
X579120Y249794D01*
X577088Y251826D01*
X593344Y230260D02*
X595376Y232292D01*
X597408Y230260D01*
X595376Y228228D01*
X593344Y230260D01*
X621792Y258826D02*
X623824Y260858D01*
X625856Y258826D01*
X623824Y256794D01*
X621792Y258826D01*
X622841Y234679D02*
X624873Y236711D01*
X626905Y234679D01*
X624873Y232647D01*
X622841Y234679D01*
X652078Y180848D02*
X654110Y182880D01*
X656142Y180848D01*
X654110Y178816D01*
X652078Y180848D01*
X93980Y344932D02*
X96012Y346964D01*
X98044Y344932D01*
X96012Y342900D01*
X93980Y344932D01*
X104902Y286512D02*
X106934Y288544D01*
X108966Y286512D01*
X106934Y284480D01*
X104902Y286512D01*
X88646Y307848D02*
X90678Y309880D01*
X92710Y307848D01*
X90678Y305816D01*
X88646Y307848D01*
X100076Y468630D02*
X102108Y470662D01*
X104140Y468630D01*
X102108Y466598D01*
X100076Y468630D01*
X109474Y471678D02*
X111506Y473710D01*
X113538Y471678D01*
X111506Y469646D01*
X109474Y471678D01*
X55372Y525780D02*
X57404Y527812D01*
X59436Y525780D01*
X57404Y523748D01*
X55372Y525780D01*
X168402Y442722D02*
X170434Y444754D01*
X172466Y442722D01*
X170434Y440690D01*
X168402Y442722D01*
X273558Y444904D02*
X275590Y446936D01*
X277622Y444904D01*
X275590Y442872D01*
X273558Y444904D01*
X55880Y189992D02*
X57912Y192024D01*
X59944Y189992D01*
X57912Y187960D01*
X55880Y189992D01*
X207772Y207264D02*
X209804Y209296D01*
X211836Y207264D01*
X209804Y205232D01*
X207772Y207264D01*
X252730Y235204D02*
X254762Y237236D01*
X256794Y235204D01*
X254762Y233172D01*
X252730Y235204D01*
X619791Y453929D02*
X621823Y455961D01*
X623855Y453929D01*
X621823Y451897D01*
X619791Y453929D01*
X287782Y374904D02*
X289814Y376936D01*
X291846Y374904D01*
X289814Y372872D01*
X287782Y374904D01*
X343662Y348742D02*
X345694Y350774D01*
X347726Y348742D01*
X345694Y346710D01*
X343662Y348742D01*
X287782Y357886D02*
X289814Y359918D01*
X291846Y357886D01*
X289814Y355854D01*
X287782Y357886D01*
X288036Y366522D02*
X290068Y368554D01*
X292100Y366522D01*
X290068Y364490D01*
X288036Y366522D01*
X402061Y359226D02*
X404093Y361258D01*
X406125Y359226D01*
X404093Y357194D01*
X402061Y359226D01*
X398780Y366522D02*
X400812Y368554D01*
X402844Y366522D01*
X400812Y364490D01*
X398780Y366522D01*
X541528Y336042D02*
X543560Y338074D01*
X545592Y336042D01*
X543560Y334010D01*
X541528Y336042D01*
X563812Y302954D02*
X565844Y304986D01*
X567876Y302954D01*
X565844Y300922D01*
X563812Y302954D01*
X312016Y261799D02*
X314048Y263831D01*
X316080Y261799D01*
X314048Y259767D01*
X312016Y261799D01*
X540258Y307086D02*
X542290Y309118D01*
X544322Y307086D01*
X542290Y305054D01*
X540258Y307086D01*
X556514Y158242D02*
X558546Y160274D01*
X560578Y158242D01*
X558546Y156210D01*
X556514Y158242D01*
X580644Y157226D02*
X582676Y159258D01*
X584708Y157226D01*
X582676Y155194D01*
X580644Y157226D01*
X563626Y351028D02*
X565658Y353060D01*
X567690Y351028D01*
X565658Y348996D01*
X563626Y351028D01*
X401574Y476504D02*
X403606Y478536D01*
X405638Y476504D01*
X403606Y474472D01*
X401574Y476504D01*
X325374Y236220D02*
X327406Y238252D01*
X329438Y236220D01*
X327406Y234188D01*
X325374Y236220D01*
X298704Y242824D02*
X300736Y244856D01*
X302768Y242824D01*
X300736Y240792D01*
X298704Y242824D01*
X302260Y158496D02*
X304292Y160528D01*
X306324Y158496D01*
X304292Y156464D01*
X302260Y158496D01*
D85*
X27432Y504698D02*
G03*
X27432Y504698I-2032J0D01*
G01*
X78232D02*
G03*
X78232Y504698I-2032J0D01*
G01*
X52832D02*
G03*
X52832Y504698I-2032J0D01*
G01*
X78232Y479298D02*
G03*
X78232Y479298I-2032J0D01*
G01*
X52832D02*
G03*
X52832Y479298I-2032J0D01*
G01*
X27432D02*
G03*
X27432Y479298I-2032J0D01*
G01*
Y434760D02*
G03*
X27432Y434760I-2032J0D01*
G01*
X78232D02*
G03*
X78232Y434760I-2032J0D01*
G01*
X52832D02*
G03*
X52832Y434760I-2032J0D01*
G01*
X78232Y409360D02*
G03*
X78232Y409360I-2032J0D01*
G01*
X52832D02*
G03*
X52832Y409360I-2032J0D01*
G01*
X27432D02*
G03*
X27432Y409360I-2032J0D01*
G01*
X51032Y355600D02*
G03*
X51032Y355600I-2032J0D01*
G01*
X25632D02*
G03*
X25632Y355600I-2032J0D01*
G01*
Y381000D02*
G03*
X25632Y381000I-2032J0D01*
G01*
X51032D02*
G03*
X51032Y381000I-2032J0D01*
G01*
M02*
