G04*
G04 #@! TF.GenerationSoftware,Altium Limited,Altium Designer,20.2.6 (244)*
G04*
G04 Layer_Physical_Order=2*
G04 Layer_Color=16711680*
%FSLAX44Y44*%
%MOMM*%
G71*
G04*
G04 #@! TF.SameCoordinates,CE6D2A43-BF16-4D6C-96BE-271B1CC6D4BA*
G04*
G04*
G04 #@! TF.FilePolarity,Positive*
G04*
G01*
G75*
%ADD11C,0.3000*%
%ADD14R,1.9000X1.9000*%
%ADD18R,1.2000X1.1000*%
%ADD72C,0.4000*%
%ADD73O,2.0000X1.6000*%
%ADD74R,2.0000X1.6000*%
%ADD75O,1.6000X2.0000*%
%ADD76R,1.6000X2.0000*%
G04:AMPARAMS|DCode=77|XSize=2mm|YSize=1.2mm|CornerRadius=0.3mm|HoleSize=0mm|Usage=FLASHONLY|Rotation=0.000|XOffset=0mm|YOffset=0mm|HoleType=Round|Shape=RoundedRectangle|*
%AMROUNDEDRECTD77*
21,1,2.0000,0.6000,0,0,0.0*
21,1,1.4000,1.2000,0,0,0.0*
1,1,0.6000,0.7000,-0.3000*
1,1,0.6000,-0.7000,-0.3000*
1,1,0.6000,-0.7000,0.3000*
1,1,0.6000,0.7000,0.3000*
%
%ADD77ROUNDEDRECTD77*%
%ADD78C,4.0000*%
%ADD79C,1.9000*%
%ADD80R,1.9000X1.9000*%
%ADD81C,3.2000*%
%ADD82C,7.4000*%
%ADD83C,0.6000*%
G36*
X258965Y519527D02*
X244151Y504712D01*
X223012D01*
X221451Y504402D01*
X220128Y503518D01*
X219244Y502195D01*
X218934Y500634D01*
X219085Y499873D01*
X218417Y498836D01*
X217437Y499681D01*
Y510116D01*
X218911Y510727D01*
X221000Y512330D01*
X222603Y514419D01*
X223611Y516852D01*
X223954Y519462D01*
Y520700D01*
X229182D01*
Y519462D01*
X229525Y516852D01*
X230533Y514419D01*
X232136Y512330D01*
X234225Y510727D01*
X236658Y509719D01*
X239268Y509376D01*
X241879Y509719D01*
X244311Y510727D01*
X246400Y512330D01*
X248003Y514419D01*
X249011Y516852D01*
X249354Y519462D01*
Y520700D01*
X258479D01*
X258965Y519527D01*
D02*
G37*
G36*
X675640Y320956D02*
X675190Y320649D01*
X674370Y320393D01*
X673271Y321128D01*
X671710Y321438D01*
X600710D01*
X599149Y321128D01*
X597826Y320244D01*
X596942Y318921D01*
X596632Y317360D01*
X596942Y315799D01*
X597826Y314476D01*
X599149Y313592D01*
X600710Y313282D01*
X671710D01*
X673271Y313592D01*
X674370Y314327D01*
X675190Y314071D01*
X675640Y313764D01*
Y284383D01*
X674370Y283609D01*
X671710Y283959D01*
X668708Y283564D01*
X665910Y282405D01*
X663508Y280562D01*
X661665Y278160D01*
X660741Y275929D01*
X611679D01*
X610755Y278160D01*
X608912Y280562D01*
X606510Y282405D01*
X603712Y283564D01*
X600710Y283959D01*
X597708Y283564D01*
X594910Y282405D01*
X592508Y280562D01*
X590665Y278160D01*
X589506Y275362D01*
X589111Y272360D01*
X589506Y269358D01*
X590665Y266560D01*
X592496Y264174D01*
X592434Y263692D01*
X592166Y262904D01*
X476669D01*
X450178Y289396D01*
X448855Y290280D01*
X447895Y290471D01*
X447444Y291817D01*
X450686Y295058D01*
X450686Y295058D01*
X451570Y296381D01*
X451880Y297942D01*
Y299110D01*
X452512Y300055D01*
X452900Y302006D01*
X452512Y303957D01*
X451407Y305611D01*
X449753Y306716D01*
X447802Y307104D01*
X445851Y306716D01*
X444197Y305611D01*
X443092Y303957D01*
X442704Y302006D01*
X443092Y300055D01*
X443515Y299422D01*
X436594Y292502D01*
X435710Y291179D01*
X435400Y289618D01*
X435400Y289618D01*
Y282642D01*
X434226Y282156D01*
X386417Y329966D01*
Y368540D01*
X386145Y369905D01*
X385371Y371063D01*
X259777Y496657D01*
X258619Y497431D01*
X257254Y497703D01*
X250472D01*
X249946Y498973D01*
X267552Y516578D01*
X268436Y517901D01*
X268746Y519462D01*
X268746Y519462D01*
Y520700D01*
X279982D01*
Y519462D01*
X280325Y516852D01*
X281333Y514419D01*
X282936Y512330D01*
X285025Y510727D01*
X287458Y509719D01*
X290068Y509376D01*
X292679Y509719D01*
X295111Y510727D01*
X297200Y512330D01*
X298803Y514419D01*
X299811Y516852D01*
X300154Y519462D01*
Y520700D01*
X305382D01*
Y519462D01*
X305725Y516852D01*
X306733Y514419D01*
X308336Y512330D01*
X310425Y510727D01*
X312857Y509719D01*
X315468Y509376D01*
X318078Y509719D01*
X320511Y510727D01*
X322600Y512330D01*
X324203Y514419D01*
X325211Y516852D01*
X325554Y519462D01*
Y520700D01*
X330782D01*
Y519462D01*
X331125Y516852D01*
X332133Y514419D01*
X333736Y512330D01*
X335825Y510727D01*
X338257Y509719D01*
X340868Y509376D01*
X343479Y509719D01*
X345911Y510727D01*
X348000Y512330D01*
X349603Y514419D01*
X350611Y516852D01*
X350954Y519462D01*
Y520700D01*
X356182D01*
Y519462D01*
X356525Y516852D01*
X357533Y514419D01*
X359136Y512330D01*
X361225Y510727D01*
X363657Y509719D01*
X366268Y509376D01*
X368879Y509719D01*
X371311Y510727D01*
X373400Y512330D01*
X375003Y514419D01*
X376011Y516852D01*
X376354Y519462D01*
Y520700D01*
X381582D01*
Y519462D01*
X381925Y516852D01*
X382933Y514419D01*
X384536Y512330D01*
X386625Y510727D01*
X389058Y509719D01*
X391668Y509376D01*
X394278Y509719D01*
X396711Y510727D01*
X398800Y512330D01*
X400403Y514419D01*
X401411Y516852D01*
X401754Y519462D01*
Y520700D01*
X406982D01*
Y519462D01*
X407325Y516852D01*
X408333Y514419D01*
X409936Y512330D01*
X412025Y510727D01*
X414458Y509719D01*
X417068Y509376D01*
X419678Y509719D01*
X422111Y510727D01*
X424200Y512330D01*
X425803Y514419D01*
X426811Y516852D01*
X427154Y519462D01*
Y520700D01*
X447910D01*
Y509360D01*
X467910D01*
Y520700D01*
X473224D01*
Y519360D01*
X473567Y516749D01*
X474575Y514317D01*
X476178Y512228D01*
X478267Y510625D01*
X480700Y509617D01*
X483310Y509274D01*
X485920Y509617D01*
X488353Y510625D01*
X490442Y512228D01*
X492045Y514317D01*
X493053Y516749D01*
X493396Y519360D01*
Y520700D01*
X498624D01*
Y519360D01*
X498967Y516749D01*
X499975Y514317D01*
X501578Y512228D01*
X503667Y510625D01*
X506100Y509617D01*
X508710Y509274D01*
X511320Y509617D01*
X513753Y510625D01*
X515842Y512228D01*
X517445Y514317D01*
X518453Y516749D01*
X518796Y519360D01*
Y520700D01*
X524024D01*
Y519360D01*
X524367Y516749D01*
X525375Y514317D01*
X526978Y512228D01*
X529067Y510625D01*
X531499Y509617D01*
X534110Y509274D01*
X536721Y509617D01*
X539153Y510625D01*
X541242Y512228D01*
X542845Y514317D01*
X543853Y516749D01*
X544196Y519360D01*
Y520700D01*
X549424D01*
Y519360D01*
X549767Y516749D01*
X550775Y514317D01*
X552378Y512228D01*
X554467Y510625D01*
X556899Y509617D01*
X559510Y509274D01*
X562121Y509617D01*
X564553Y510625D01*
X566642Y512228D01*
X568245Y514317D01*
X569253Y516749D01*
X569596Y519360D01*
Y520700D01*
X574824D01*
Y519360D01*
X575167Y516749D01*
X576175Y514317D01*
X577778Y512228D01*
X579867Y510625D01*
X582299Y509617D01*
X584910Y509274D01*
X587520Y509617D01*
X589953Y510625D01*
X592042Y512228D01*
X593645Y514317D01*
X594653Y516749D01*
X594996Y519360D01*
Y520700D01*
X600224D01*
Y519360D01*
X600567Y516749D01*
X601575Y514317D01*
X603178Y512228D01*
X605267Y510625D01*
X607700Y509617D01*
X610310Y509274D01*
X612920Y509617D01*
X615353Y510625D01*
X617442Y512228D01*
X619045Y514317D01*
X620053Y516749D01*
X620396Y519360D01*
Y520700D01*
X625624D01*
Y519360D01*
X625967Y516749D01*
X626975Y514317D01*
X628578Y512228D01*
X630667Y510625D01*
X633100Y509617D01*
X635710Y509274D01*
X638321Y509617D01*
X640753Y510625D01*
X642842Y512228D01*
X644445Y514317D01*
X645453Y516749D01*
X645796Y519360D01*
Y520700D01*
X675640D01*
Y320956D01*
D02*
G37*
G36*
X178468Y509462D02*
X184899D01*
Y493541D01*
X185171Y492176D01*
X185945Y491018D01*
X188087Y488876D01*
X187601Y487703D01*
X177920D01*
X176784Y487929D01*
X107424D01*
X106058Y487657D01*
X104901Y486883D01*
X87384Y469367D01*
X84294D01*
X83693Y470637D01*
X84935Y472255D01*
X85943Y474688D01*
X86286Y477298D01*
Y481298D01*
X85943Y483909D01*
X84935Y486341D01*
X83332Y488430D01*
X81243Y490033D01*
X78811Y491041D01*
X76200Y491384D01*
X73590Y491041D01*
X71157Y490033D01*
X69068Y488430D01*
X67465Y486341D01*
X66457Y483909D01*
X66114Y481298D01*
Y477298D01*
X66457Y474688D01*
X67465Y472255D01*
X68707Y470637D01*
X68106Y469367D01*
X58894D01*
X58293Y470637D01*
X59535Y472255D01*
X60543Y474688D01*
X60886Y477298D01*
Y481298D01*
X60543Y483909D01*
X59535Y486341D01*
X57932Y488430D01*
X55843Y490033D01*
X53411Y491041D01*
X51822Y491250D01*
X51003Y491358D01*
Y492638D01*
X51822Y492746D01*
X53411Y492955D01*
X55843Y493963D01*
X57932Y495566D01*
X59535Y497655D01*
X60543Y500088D01*
X60886Y502698D01*
Y506698D01*
X60543Y509309D01*
X59535Y511741D01*
X57932Y513830D01*
X55843Y515433D01*
X53411Y516441D01*
X50800Y516784D01*
X48190Y516441D01*
X45757Y515433D01*
X43668Y513830D01*
X42065Y511741D01*
X41057Y509309D01*
X40714Y506698D01*
Y502698D01*
X41057Y500088D01*
X42065Y497655D01*
X43668Y495566D01*
X45757Y493963D01*
X48190Y492955D01*
X49778Y492746D01*
X50597Y492638D01*
Y491358D01*
X49778Y491250D01*
X48190Y491041D01*
X45757Y490033D01*
X43668Y488430D01*
X42065Y486341D01*
X41057Y483909D01*
X40904Y482744D01*
X40832Y482664D01*
X39547Y482168D01*
X38908Y482595D01*
X37543Y482867D01*
X35400D01*
Y491298D01*
X15400D01*
Y467298D01*
X35400D01*
Y469786D01*
X36670Y470171D01*
X36777Y470011D01*
X43513Y463275D01*
X44671Y462501D01*
X46037Y462229D01*
X88862D01*
X90228Y462501D01*
X91385Y463275D01*
X95885Y467775D01*
X97263Y467356D01*
X97398Y466679D01*
X98503Y465025D01*
X98539Y465001D01*
Y423158D01*
X97269Y422773D01*
X97118Y423000D01*
X97118Y423000D01*
X96735Y423382D01*
X95412Y424267D01*
X93851Y424577D01*
X93851Y424577D01*
X90151D01*
X80278Y434449D01*
Y434760D01*
X79968Y436321D01*
X79084Y437644D01*
X77761Y438528D01*
X76200Y438838D01*
X74639Y438528D01*
X73316Y437644D01*
X72432Y436321D01*
X72122Y434760D01*
Y432760D01*
X72122Y432760D01*
X72432Y431199D01*
X73316Y429876D01*
X82332Y420860D01*
X81493Y419903D01*
X81243Y420095D01*
X78811Y421103D01*
X76200Y421446D01*
X73590Y421103D01*
X71157Y420095D01*
X69068Y418492D01*
X67465Y416403D01*
X66457Y413970D01*
X66114Y411360D01*
Y407360D01*
X66457Y404749D01*
X67465Y402317D01*
X69068Y400228D01*
X71157Y398625D01*
X73590Y397617D01*
X76200Y397274D01*
X78811Y397617D01*
X81243Y398625D01*
X83332Y400228D01*
X84935Y402317D01*
X85943Y404749D01*
X86286Y407360D01*
Y411360D01*
X85943Y413970D01*
X84935Y416403D01*
X84701Y416708D01*
X85577Y417615D01*
X86901Y416731D01*
X88461Y416420D01*
X88461Y416420D01*
X90156D01*
Y373291D01*
X63664Y346800D01*
X62780Y345477D01*
X62470Y343916D01*
X62780Y342355D01*
X63664Y341032D01*
X64987Y340148D01*
X66548Y339838D01*
X68109Y340148D01*
X69432Y341032D01*
X71819Y343419D01*
X73197Y343001D01*
X73437Y341796D01*
X74542Y340143D01*
X76196Y339037D01*
X78147Y338649D01*
X80098Y339037D01*
X81751Y340143D01*
X82567Y341363D01*
X92383D01*
X92407Y341327D01*
X94061Y340222D01*
X96012Y339834D01*
X97963Y340222D01*
X99617Y341327D01*
X100722Y342981D01*
X101110Y344932D01*
X100722Y346883D01*
X99617Y348537D01*
X99581Y348561D01*
Y358385D01*
X102257Y361062D01*
X103031Y362220D01*
X103303Y363585D01*
Y376227D01*
X118956Y391880D01*
X120129Y391394D01*
Y355377D01*
X119966Y355268D01*
X118861Y353614D01*
X118473Y351663D01*
X118861Y349712D01*
X119289Y349072D01*
X118302Y348262D01*
X114059Y352506D01*
Y362893D01*
X114095Y362917D01*
X115200Y364571D01*
X115588Y366522D01*
X115200Y368473D01*
X114095Y370127D01*
X112441Y371232D01*
X110490Y371620D01*
X108539Y371232D01*
X106885Y370127D01*
X105780Y368473D01*
X105392Y366522D01*
X105780Y364571D01*
X106885Y362917D01*
X106921Y362893D01*
Y351028D01*
X107193Y349662D01*
X107967Y348505D01*
X115841Y340631D01*
X116998Y339857D01*
X118364Y339585D01*
X127254D01*
X128620Y339857D01*
X129777Y340631D01*
X133283Y344137D01*
X133525Y344089D01*
X135476Y344477D01*
X137129Y345582D01*
X138235Y347236D01*
X138623Y349187D01*
X138235Y351137D01*
X137129Y352791D01*
X135476Y353896D01*
X133525Y354285D01*
X131574Y353896D01*
X129920Y352791D01*
X129781Y352583D01*
X128433Y352851D01*
X128281Y353614D01*
X127267Y355132D01*
Y393120D01*
X135537Y401390D01*
X136710Y400904D01*
Y386660D01*
X160710D01*
Y393091D01*
X205366D01*
X242811Y355646D01*
Y195834D01*
X243083Y194468D01*
X243857Y193311D01*
X283091Y154076D01*
X282983Y153733D01*
X282430Y152941D01*
X280110Y153246D01*
X277500Y152903D01*
X275067Y151895D01*
X272978Y150292D01*
X271375Y148203D01*
X270367Y145771D01*
X270024Y143160D01*
Y139160D01*
X270367Y136550D01*
X271375Y134117D01*
X272978Y132028D01*
X275067Y130425D01*
X277500Y129417D01*
X280110Y129074D01*
X282721Y129417D01*
X285153Y130425D01*
X287242Y132028D01*
X287350Y132168D01*
X288911Y132117D01*
X289148Y131763D01*
X327341Y93570D01*
Y50106D01*
X325867Y49495D01*
X323778Y47892D01*
X322175Y45803D01*
X321167Y43370D01*
X320824Y40760D01*
Y36760D01*
X321167Y34149D01*
X322175Y31717D01*
X323778Y29628D01*
X325867Y28025D01*
X328299Y27017D01*
X330910Y26674D01*
X333521Y27017D01*
X335953Y28025D01*
X338042Y29628D01*
X339645Y31717D01*
X340653Y34149D01*
X340996Y36760D01*
Y40760D01*
X340653Y43370D01*
X340042Y44845D01*
X355161Y59964D01*
X617876D01*
X617900Y59928D01*
X619554Y58823D01*
X621505Y58435D01*
X623456Y58823D01*
X625110Y59928D01*
X626215Y61582D01*
X626603Y63533D01*
X626215Y65484D01*
X625110Y67138D01*
X623456Y68243D01*
X621505Y68631D01*
X619554Y68243D01*
X617900Y67138D01*
X617876Y67102D01*
X353683D01*
X352317Y66830D01*
X351160Y66056D01*
X335749Y50645D01*
X334479Y51171D01*
Y95048D01*
X334207Y96414D01*
X333433Y97571D01*
X302864Y128141D01*
X303457Y129344D01*
X305510Y129074D01*
X308120Y129417D01*
X310553Y130425D01*
X312642Y132028D01*
X314245Y134117D01*
X315253Y136550D01*
X315596Y139160D01*
Y143160D01*
X315253Y145771D01*
X314245Y148203D01*
X312642Y150292D01*
X310553Y151895D01*
X308120Y152903D01*
X307357Y153003D01*
X307049Y154325D01*
X307897Y154891D01*
X309002Y156545D01*
X309390Y158496D01*
X309381Y158539D01*
X321039Y170197D01*
X321813Y171354D01*
X322085Y172720D01*
Y208349D01*
X323355Y208780D01*
X323778Y208228D01*
X325867Y206625D01*
X328299Y205617D01*
X330910Y205274D01*
X333521Y205617D01*
X335953Y206625D01*
X338042Y208228D01*
X339645Y210317D01*
X340653Y212750D01*
X340996Y215360D01*
Y219360D01*
X340653Y221971D01*
X339645Y224403D01*
X338042Y226492D01*
X335953Y228095D01*
X333521Y229103D01*
X330910Y229446D01*
X330420Y229382D01*
X329683Y230566D01*
X330129Y231232D01*
X330311Y232148D01*
X331011Y232615D01*
X332116Y234269D01*
X332504Y236220D01*
X332116Y238171D01*
X331011Y239825D01*
X329357Y240930D01*
X327406Y241318D01*
X325455Y240930D01*
X323801Y239825D01*
X322696Y238171D01*
X322308Y236220D01*
X322696Y234269D01*
X323001Y233813D01*
X315993Y226805D01*
X315219Y225648D01*
X315152Y225308D01*
X313794Y224991D01*
X312642Y226492D01*
X310553Y228095D01*
X308120Y229103D01*
X305510Y229446D01*
X302899Y229103D01*
X300467Y228095D01*
X298378Y226492D01*
X297193Y224947D01*
X295923Y225378D01*
Y232152D01*
X301685Y237915D01*
X302687Y238114D01*
X304341Y239219D01*
X305446Y240873D01*
X305834Y242824D01*
X305446Y244775D01*
X304341Y246429D01*
X302687Y247534D01*
X300736Y247922D01*
X298785Y247534D01*
X297131Y246429D01*
X296026Y244775D01*
X295638Y242824D01*
X295781Y242104D01*
X289831Y236154D01*
X289057Y234996D01*
X288785Y233630D01*
Y226456D01*
X287583Y226048D01*
X287242Y226492D01*
X285153Y228095D01*
X283679Y228706D01*
Y237230D01*
X305262Y258813D01*
X306746D01*
X306793Y258804D01*
X310035D01*
X310443Y258194D01*
X312097Y257089D01*
X314048Y256701D01*
X315999Y257089D01*
X317653Y258194D01*
X318758Y259848D01*
X319146Y261799D01*
X318758Y263750D01*
X317653Y265403D01*
X315999Y266509D01*
X314048Y266896D01*
X312097Y266509D01*
X311248Y265941D01*
X306831D01*
X306784Y265951D01*
X303784D01*
X302418Y265679D01*
X301261Y264905D01*
X277587Y241231D01*
X276813Y240074D01*
X276554Y238773D01*
X258391D01*
X258367Y238809D01*
X256713Y239914D01*
X254762Y240302D01*
X252811Y239914D01*
X251219Y238850D01*
X250872Y238921D01*
X249949Y239286D01*
Y357124D01*
X249677Y358490D01*
X248903Y359647D01*
X209368Y399183D01*
X208210Y399957D01*
X206844Y400229D01*
X160710D01*
Y406660D01*
X160128D01*
X159642Y407833D01*
X172957Y421149D01*
X173731Y422306D01*
X173960Y423459D01*
X174039Y423511D01*
X175144Y425165D01*
X175532Y427116D01*
X175144Y429067D01*
X175023Y429247D01*
X175622Y430367D01*
X211491D01*
X212857Y430639D01*
X214015Y431413D01*
X217437Y434835D01*
X283551D01*
X284589Y433797D01*
X284185Y432405D01*
X282777Y431464D01*
X281671Y429810D01*
X281283Y427859D01*
X281671Y425908D01*
X282303Y424963D01*
Y411360D01*
X282303Y411360D01*
X282613Y409799D01*
X283498Y408476D01*
X284466Y407508D01*
Y392429D01*
X279930Y387894D01*
X279046Y386571D01*
X278736Y385010D01*
X278736Y385010D01*
Y354987D01*
X278736Y354986D01*
X279046Y353426D01*
X279930Y352103D01*
X285667Y346366D01*
X286990Y345482D01*
X288550Y345172D01*
X288551Y345172D01*
X342066D01*
X342089Y345137D01*
X343743Y344032D01*
X345694Y343644D01*
X347645Y344032D01*
X349299Y345137D01*
X350404Y346791D01*
X350792Y348742D01*
X350404Y350693D01*
X349299Y352347D01*
X348553Y352845D01*
X348939Y354115D01*
X367178D01*
X367338Y353876D01*
X368992Y352771D01*
X370943Y352383D01*
X372894Y352771D01*
X373159Y352948D01*
X374279Y352350D01*
Y326417D01*
X374551Y325051D01*
X375325Y323893D01*
X459415Y239803D01*
X460573Y239029D01*
X461939Y238757D01*
X475129D01*
X483195Y230692D01*
X482722Y229369D01*
X480700Y229103D01*
X478267Y228095D01*
X476178Y226492D01*
X474575Y224403D01*
X473567Y221971D01*
X473224Y219360D01*
Y215360D01*
X473567Y212750D01*
X474575Y210317D01*
X476178Y208228D01*
X478267Y206625D01*
X480700Y205617D01*
X483310Y205274D01*
X485920Y205617D01*
X488353Y206625D01*
X490442Y208228D01*
X491438Y209526D01*
X493087Y209673D01*
X526623Y176137D01*
X527781Y175363D01*
X529146Y175091D01*
X535126D01*
X553814Y156404D01*
X553836Y156291D01*
X554941Y154637D01*
X556023Y153914D01*
X555882Y152481D01*
X554467Y151895D01*
X552378Y150292D01*
X550775Y148203D01*
X549767Y145771D01*
X549424Y143160D01*
Y139160D01*
X549767Y136550D01*
X550775Y134117D01*
X552378Y132028D01*
X554467Y130425D01*
X556899Y129417D01*
X559510Y129074D01*
X562121Y129417D01*
X564553Y130425D01*
X566642Y132028D01*
X568245Y134117D01*
X569253Y136550D01*
X569596Y139160D01*
Y143160D01*
X569253Y145771D01*
X568245Y148203D01*
X566642Y150292D01*
X564553Y151895D01*
X562121Y152903D01*
X561887Y152933D01*
X561579Y154255D01*
X562151Y154637D01*
X563256Y156291D01*
X563544Y157739D01*
X564841Y158238D01*
X575794Y147284D01*
X575167Y145771D01*
X574824Y143160D01*
Y139160D01*
X575167Y136550D01*
X576175Y134117D01*
X577778Y132028D01*
X579867Y130425D01*
X582299Y129417D01*
X584910Y129074D01*
X587520Y129417D01*
X589953Y130425D01*
X592042Y132028D01*
X593645Y134117D01*
X594653Y136550D01*
X594996Y139160D01*
Y143160D01*
X594653Y145771D01*
X593645Y148203D01*
X592042Y150292D01*
X589953Y151895D01*
X588764Y152387D01*
X589017Y153657D01*
X594078D01*
X600977Y146759D01*
X600567Y145771D01*
X600224Y143160D01*
Y139160D01*
X600567Y136550D01*
X601575Y134117D01*
X603178Y132028D01*
X605267Y130425D01*
X607700Y129417D01*
X610310Y129074D01*
X612920Y129417D01*
X615353Y130425D01*
X617442Y132028D01*
X619045Y134117D01*
X620053Y136550D01*
X620396Y139160D01*
Y143160D01*
X620053Y145771D01*
X619045Y148203D01*
X617442Y150292D01*
X615353Y151895D01*
X612920Y152903D01*
X610310Y153246D01*
X607700Y152903D01*
X605738Y152090D01*
X598079Y159749D01*
X596922Y160523D01*
X595556Y160795D01*
X586305D01*
X586281Y160831D01*
X584627Y161936D01*
X582676Y162324D01*
X580725Y161936D01*
X579071Y160831D01*
X577966Y159177D01*
X577605Y157363D01*
X577120Y157067D01*
X576367Y156806D01*
X526948Y206225D01*
X527013Y206600D01*
X528395Y207140D01*
X529067Y206625D01*
X531499Y205617D01*
X534110Y205274D01*
X536721Y205617D01*
X539153Y206625D01*
X541242Y208228D01*
X542845Y210317D01*
X543853Y212750D01*
X544196Y215360D01*
Y219360D01*
X543853Y221971D01*
X542845Y224403D01*
X541242Y226492D01*
X539153Y228095D01*
X536721Y229103D01*
X534110Y229446D01*
X531499Y229103D01*
X529067Y228095D01*
X526978Y226492D01*
X525982Y225194D01*
X524333Y225047D01*
X501806Y247574D01*
X502292Y248748D01*
X575163D01*
X575515Y248221D01*
X577169Y247116D01*
X579120Y246728D01*
X581071Y247116D01*
X582725Y248221D01*
X583830Y249875D01*
X584218Y251826D01*
X583889Y253478D01*
X584592Y254748D01*
X622135D01*
X657032Y219851D01*
Y209677D01*
X655858Y209191D01*
X629872Y235178D01*
X629583Y236630D01*
X628478Y238284D01*
X626824Y239389D01*
X624873Y239777D01*
X622922Y239389D01*
X621977Y238758D01*
X601743D01*
X600182Y238447D01*
X598859Y237563D01*
X598859Y237563D01*
X596441Y235146D01*
X595376Y235358D01*
X593425Y234970D01*
X591771Y233865D01*
X590666Y232211D01*
X590278Y230260D01*
X590484Y229223D01*
X589365Y228338D01*
X587520Y229103D01*
X584910Y229446D01*
X582299Y229103D01*
X579867Y228095D01*
X577778Y226492D01*
X576175Y224403D01*
X575167Y221971D01*
X574824Y219360D01*
Y215360D01*
X575167Y212750D01*
X576175Y210317D01*
X577778Y208228D01*
X579867Y206625D01*
X582299Y205617D01*
X584910Y205274D01*
X587520Y205617D01*
X589953Y206625D01*
X592042Y208228D01*
X593645Y210317D01*
X594653Y212750D01*
X594996Y215360D01*
Y219360D01*
X594653Y221971D01*
X593731Y224194D01*
X594067Y224842D01*
X594535Y225329D01*
X595376Y225162D01*
X597327Y225550D01*
X598674Y226450D01*
X598884Y226492D01*
X599040Y226596D01*
X600310Y225917D01*
Y205360D01*
X620310D01*
Y229360D01*
X620310D01*
X620380Y230601D01*
X621977D01*
X622922Y229970D01*
X623699Y229815D01*
X650480Y203035D01*
Y194599D01*
X650342Y194393D01*
X650032Y192833D01*
X650032Y192833D01*
Y183744D01*
X649400Y182799D01*
X649012Y180848D01*
X649400Y178897D01*
X650505Y177243D01*
X652159Y176138D01*
X654110Y175750D01*
X655762Y176079D01*
X657032Y175376D01*
Y89560D01*
X657342Y87999D01*
X658226Y86676D01*
X659549Y85792D01*
X661110Y85482D01*
X662671Y85792D01*
X663994Y86676D01*
X664878Y87999D01*
X665188Y89560D01*
Y221540D01*
X665188Y221540D01*
X664878Y223101D01*
X663994Y224424D01*
X663994Y224424D01*
X626708Y261710D01*
X625385Y262594D01*
X623824Y262904D01*
X623824Y262904D01*
X609254D01*
X608986Y263692D01*
X608924Y264174D01*
X610755Y266560D01*
X611679Y268791D01*
X660741D01*
X661665Y266560D01*
X663508Y264158D01*
X665910Y262315D01*
X668708Y261156D01*
X671710Y260761D01*
X674370Y261111D01*
X675640Y260337D01*
Y7620D01*
X385397D01*
X384911Y8793D01*
X409994Y33876D01*
X409994Y33876D01*
X410878Y35199D01*
X411188Y36760D01*
Y38760D01*
X410878Y40321D01*
X409994Y41644D01*
X408671Y42528D01*
X407110Y42838D01*
X405549Y42528D01*
X404226Y41644D01*
X403342Y40321D01*
X403032Y38760D01*
Y38449D01*
X373741Y9158D01*
X230440D01*
X209788Y29810D01*
Y100360D01*
X209478Y101921D01*
X208594Y103244D01*
X207271Y104128D01*
X205710Y104438D01*
X204149Y104128D01*
X202826Y103244D01*
X201942Y101921D01*
X201632Y100360D01*
Y29360D01*
Y28121D01*
X201632Y28121D01*
X201942Y26560D01*
X202826Y25237D01*
X219270Y8793D01*
X218784Y7620D01*
X7620D01*
Y26462D01*
X8890Y27062D01*
X11428Y24979D01*
X15250Y22936D01*
X19397Y21678D01*
X23710Y21254D01*
X28023Y21678D01*
X32170Y22936D01*
X35992Y24979D01*
X39342Y27728D01*
X42091Y31078D01*
X44134Y34900D01*
X45392Y39047D01*
X45816Y43360D01*
X45392Y47673D01*
X44134Y51820D01*
X42091Y55642D01*
X39342Y58992D01*
X35992Y61741D01*
X32170Y63784D01*
X28023Y65042D01*
X23710Y65466D01*
X19397Y65042D01*
X15250Y63784D01*
X11428Y61741D01*
X8890Y59658D01*
X7620Y60258D01*
Y331663D01*
X8793Y332149D01*
X32422Y308520D01*
X32422Y308520D01*
X33745Y307636D01*
X35306Y307326D01*
X63906D01*
X64851Y306694D01*
X66802Y306306D01*
X68753Y306694D01*
X70407Y307799D01*
X71512Y309453D01*
X71900Y311404D01*
X71512Y313355D01*
X70407Y315009D01*
X69430Y315661D01*
X69815Y316931D01*
X81177D01*
X81396Y315827D01*
X82501Y314173D01*
X84155Y313068D01*
X86106Y312680D01*
X86844Y312827D01*
X87339Y311631D01*
X87073Y311453D01*
X85968Y309799D01*
X85580Y307848D01*
X85968Y305897D01*
X87073Y304243D01*
X88727Y303138D01*
X89842Y302916D01*
X102473Y290285D01*
Y288835D01*
X102224Y288463D01*
X101836Y286512D01*
X102224Y284561D01*
X103329Y282907D01*
X104983Y281802D01*
X106934Y281414D01*
X108885Y281802D01*
X109830Y282434D01*
X182866D01*
Y230124D01*
X182866Y230124D01*
X183176Y228563D01*
X184060Y227240D01*
X204872Y206428D01*
X205094Y205313D01*
X205980Y203988D01*
Y157734D01*
X205980Y157734D01*
X206290Y156173D01*
X207174Y154850D01*
X221273Y140752D01*
X220787Y139578D01*
X161343D01*
X159782Y139268D01*
X158459Y138384D01*
X158459Y138384D01*
X155945Y135869D01*
X155061Y134546D01*
X155006Y134274D01*
X154232Y133500D01*
X144270D01*
X144000Y133500D01*
X143000D01*
X142730Y133500D01*
X127000D01*
Y124268D01*
X123826Y121094D01*
X122942Y119771D01*
X122632Y118210D01*
X122632Y118210D01*
Y108495D01*
X121667Y108095D01*
X119578Y106492D01*
X117975Y104403D01*
X116967Y101971D01*
X116624Y99360D01*
Y95360D01*
X116967Y92750D01*
X117975Y90317D01*
X119578Y88228D01*
X121667Y86625D01*
X124100Y85617D01*
X126710Y85274D01*
X129320Y85617D01*
X131753Y86625D01*
X133842Y88228D01*
X135445Y90317D01*
X136453Y92750D01*
X136796Y95360D01*
Y99360D01*
X136453Y101971D01*
X135445Y104403D01*
X133842Y106492D01*
X131753Y108095D01*
X130788Y108495D01*
Y116521D01*
X132768Y118500D01*
X142730D01*
X143000Y118500D01*
X144000D01*
X144270Y118500D01*
X148032D01*
Y108495D01*
X147067Y108095D01*
X144978Y106492D01*
X143375Y104403D01*
X142367Y101971D01*
X142024Y99360D01*
Y95360D01*
X142367Y92750D01*
X143375Y90317D01*
X144978Y88228D01*
X147067Y86625D01*
X149500Y85617D01*
X152110Y85274D01*
X154720Y85617D01*
X157153Y86625D01*
X159242Y88228D01*
X160845Y90317D01*
X161853Y92750D01*
X162196Y95360D01*
Y99360D01*
X161853Y101971D01*
X160845Y104403D01*
X159242Y106492D01*
X157153Y108095D01*
X156188Y108495D01*
Y118500D01*
X159730D01*
X160000Y118500D01*
Y118500D01*
X161000D01*
Y118500D01*
X164922D01*
Y107870D01*
X164922Y107870D01*
X165232Y106309D01*
X166116Y104986D01*
X167510Y103592D01*
Y85360D01*
X187510D01*
Y109360D01*
X173278D01*
X173078Y109559D01*
Y118500D01*
X177000D01*
Y131422D01*
X229244D01*
X230805Y131732D01*
X230932Y131817D01*
X232837Y132196D01*
X234491Y133301D01*
X235596Y134955D01*
X235984Y136906D01*
X235596Y138857D01*
X234491Y140511D01*
X232837Y141616D01*
X231722Y141838D01*
X214136Y159423D01*
Y204748D01*
X214514Y205313D01*
X214902Y207264D01*
X214514Y209215D01*
X213409Y210869D01*
X211755Y211974D01*
X210640Y212196D01*
X191022Y231813D01*
Y371754D01*
X191654Y372699D01*
X192042Y374650D01*
X192711Y375465D01*
X194361D01*
X194769Y374855D01*
X196423Y373750D01*
X198374Y373362D01*
X200325Y373750D01*
X201979Y374855D01*
X203084Y376509D01*
X203472Y378460D01*
X203084Y380411D01*
X201979Y382065D01*
X200325Y383170D01*
X198374Y383558D01*
X196423Y383170D01*
X195574Y382603D01*
X193230D01*
X192056Y383777D01*
X190898Y384551D01*
X189532Y384823D01*
X149606D01*
X148240Y384551D01*
X148056Y384428D01*
X147320Y384574D01*
X145369Y384186D01*
X143715Y383081D01*
X142610Y381427D01*
X142222Y379476D01*
X142610Y377525D01*
X143715Y375871D01*
X145369Y374766D01*
X147320Y374378D01*
X149271Y374766D01*
X150925Y375871D01*
X152030Y377525D01*
X152062Y377685D01*
X181654D01*
X181733Y377539D01*
X182197Y376415D01*
X181846Y374650D01*
X182234Y372699D01*
X182866Y371754D01*
Y290590D01*
X110630D01*
Y291975D01*
X110319Y293535D01*
X109435Y294858D01*
X95610Y308684D01*
X95388Y309799D01*
X94283Y311453D01*
X92629Y312558D01*
X90678Y312946D01*
X89940Y312799D01*
X89445Y313995D01*
X89711Y314173D01*
X90816Y315827D01*
X91075Y317128D01*
X91694Y317363D01*
X92442Y317491D01*
X93947Y316486D01*
X95898Y316098D01*
X97848Y316486D01*
X99502Y317591D01*
X100607Y319245D01*
X100996Y321195D01*
X100607Y323146D01*
X99502Y324800D01*
X97848Y325905D01*
X95898Y326293D01*
X95855Y326285D01*
X94116Y328023D01*
X92959Y328797D01*
X91593Y329069D01*
X48850D01*
X45225Y332694D01*
Y342965D01*
X46345Y343823D01*
X46495Y343844D01*
X49000Y343514D01*
X51610Y343857D01*
X54043Y344865D01*
X56132Y346468D01*
X57735Y348557D01*
X58743Y350989D01*
X59086Y353600D01*
Y357600D01*
X58743Y360210D01*
X57735Y362643D01*
X56132Y364732D01*
X54043Y366335D01*
X51610Y367343D01*
X49000Y367686D01*
X46389Y367343D01*
X43957Y366335D01*
X41868Y364732D01*
X40265Y362643D01*
X39257Y360210D01*
X38914Y357600D01*
Y353600D01*
X39257Y350989D01*
X40016Y349158D01*
X39133Y348275D01*
X38359Y347117D01*
X38087Y345752D01*
Y331216D01*
X38359Y329851D01*
X39133Y328693D01*
X42584Y325242D01*
X42098Y324069D01*
X40642D01*
X27169Y337542D01*
Y344254D01*
X28643Y344865D01*
X30732Y346468D01*
X32335Y348557D01*
X33343Y350989D01*
X33686Y353600D01*
Y357600D01*
X33343Y360210D01*
X32335Y362643D01*
X30732Y364732D01*
X28643Y366335D01*
X26210Y367343D01*
X23803Y367659D01*
Y368941D01*
X26210Y369257D01*
X28643Y370265D01*
X30732Y371868D01*
X32335Y373957D01*
X33343Y376390D01*
X33686Y379000D01*
Y383000D01*
X33343Y385611D01*
X32335Y388043D01*
X30732Y390132D01*
X28643Y391735D01*
X26210Y392743D01*
X23600Y393086D01*
X20989Y392743D01*
X18557Y391735D01*
X16468Y390132D01*
X14865Y388043D01*
X13984Y385917D01*
X12714Y386170D01*
Y414563D01*
X14227Y416076D01*
X15400Y415590D01*
Y397360D01*
X35400D01*
Y421360D01*
X21170D01*
X20684Y422533D01*
X21643Y423492D01*
X22789Y423017D01*
X25400Y422674D01*
X28010Y423017D01*
X30443Y424025D01*
X32532Y425628D01*
X34135Y427717D01*
X35143Y430149D01*
X35486Y432760D01*
Y436760D01*
X35143Y439370D01*
X34135Y441803D01*
X32532Y443892D01*
X30443Y445495D01*
X28010Y446503D01*
X25400Y446846D01*
X22789Y446503D01*
X20357Y445495D01*
X18268Y443892D01*
X16665Y441803D01*
X15657Y439370D01*
X15314Y436760D01*
Y432760D01*
X15657Y430149D01*
X15982Y429366D01*
X8793Y422178D01*
X7620Y422664D01*
Y520700D01*
X56573D01*
X72122Y505152D01*
Y504698D01*
X72432Y503137D01*
X73316Y501814D01*
X74639Y500930D01*
X76200Y500620D01*
X77761Y500930D01*
X79084Y501814D01*
X79968Y503137D01*
X80278Y504698D01*
Y506841D01*
X80278Y506841D01*
X79968Y508402D01*
X79084Y509725D01*
X69282Y519527D01*
X69768Y520700D01*
X135088D01*
X135370Y517831D01*
X136400Y514438D01*
X138071Y511311D01*
X140321Y508571D01*
X143061Y506321D01*
X146188Y504650D01*
X149581Y503620D01*
X153110Y503273D01*
X156639Y503620D01*
X160032Y504650D01*
X163159Y506321D01*
X165900Y508571D01*
X168149Y511311D01*
X169820Y514438D01*
X170849Y517831D01*
X171132Y520700D01*
X178468D01*
Y509462D01*
D02*
G37*
%LPC*%
G36*
X662710Y489446D02*
X658710D01*
X656099Y489103D01*
X653667Y488095D01*
X651578Y486492D01*
X649975Y484403D01*
X648967Y481970D01*
X648624Y479360D01*
X648967Y476749D01*
X649975Y474317D01*
X651578Y472228D01*
X653667Y470625D01*
X656099Y469617D01*
X658710Y469274D01*
X662710D01*
X665321Y469617D01*
X667753Y470625D01*
X669842Y472228D01*
X671445Y474317D01*
X672453Y476749D01*
X672796Y479360D01*
X672453Y481970D01*
X671445Y484403D01*
X669842Y486492D01*
X667753Y488095D01*
X665321Y489103D01*
X662710Y489446D01*
D02*
G37*
G36*
X403606Y481602D02*
X401655Y481214D01*
X400001Y480109D01*
X398896Y478455D01*
X398508Y476504D01*
X398896Y474553D01*
X400001Y472899D01*
X401655Y471794D01*
X403606Y471406D01*
X403649Y471415D01*
X412951Y462112D01*
X414109Y461339D01*
X415474Y461067D01*
X416840Y461339D01*
X417349Y461679D01*
X418141Y461150D01*
X420092Y460762D01*
X422043Y461150D01*
X423697Y462255D01*
X424802Y463909D01*
X425190Y465860D01*
X424802Y467811D01*
X423697Y469465D01*
X422043Y470570D01*
X420092Y470958D01*
X418141Y470570D01*
X416487Y469465D01*
X415763Y469394D01*
X408695Y476461D01*
X408704Y476504D01*
X408316Y478455D01*
X407211Y480109D01*
X405557Y481214D01*
X403606Y481602D01*
D02*
G37*
G36*
X621823Y459027D02*
X619872Y458639D01*
X618218Y457534D01*
X618194Y457498D01*
X439803D01*
X439248Y457387D01*
X437666Y457702D01*
X435715Y457314D01*
X434061Y456209D01*
X432956Y454555D01*
X432568Y452604D01*
X432956Y450653D01*
X434061Y448999D01*
X435715Y447894D01*
X437666Y447506D01*
X439617Y447894D01*
X441271Y448999D01*
X442181Y450360D01*
X618194D01*
X618218Y450324D01*
X619872Y449219D01*
X621823Y448831D01*
X623774Y449219D01*
X625428Y450324D01*
X626533Y451978D01*
X626921Y453929D01*
X626533Y455880D01*
X625428Y457534D01*
X623774Y458639D01*
X621823Y459027D01*
D02*
G37*
G36*
X662710Y464046D02*
X658710D01*
X656099Y463703D01*
X653667Y462695D01*
X651578Y461092D01*
X649975Y459003D01*
X648967Y456571D01*
X648624Y453960D01*
X648967Y451349D01*
X649975Y448917D01*
X651578Y446828D01*
X653667Y445225D01*
X656099Y444217D01*
X658710Y443874D01*
X662710D01*
X665321Y444217D01*
X667753Y445225D01*
X669842Y446828D01*
X671445Y448917D01*
X672453Y451349D01*
X672796Y453960D01*
X672453Y456571D01*
X671445Y459003D01*
X669842Y461092D01*
X667753Y462695D01*
X665321Y463703D01*
X662710Y464046D01*
D02*
G37*
G36*
X672710Y438560D02*
X648710D01*
Y418560D01*
X672710D01*
Y438560D01*
D02*
G37*
G36*
X400812Y371620D02*
X398861Y371232D01*
X397207Y370127D01*
X396102Y368473D01*
X395714Y366522D01*
X396102Y364571D01*
X397207Y362917D01*
X398459Y362080D01*
X398908Y361641D01*
X399237Y360443D01*
X398995Y359226D01*
X399383Y357275D01*
X400488Y355621D01*
X402142Y354516D01*
X404093Y354128D01*
X406044Y354516D01*
X407697Y355621D01*
X407722Y355657D01*
X488672D01*
X537201Y307129D01*
X537192Y307086D01*
X537580Y305135D01*
X538685Y303481D01*
X540339Y302376D01*
X542290Y301988D01*
X544241Y302376D01*
X545895Y303481D01*
X547000Y305135D01*
X547388Y307086D01*
X547000Y309037D01*
X545895Y310691D01*
X544241Y311796D01*
X542290Y312184D01*
X542247Y312175D01*
X492739Y361683D01*
X492760Y361963D01*
X493157Y362953D01*
X511602D01*
X538471Y336085D01*
X538462Y336042D01*
X538850Y334091D01*
X539955Y332437D01*
X541609Y331332D01*
X543560Y330944D01*
X545511Y331332D01*
X547165Y332437D01*
X548270Y334091D01*
X548658Y336042D01*
X548270Y337993D01*
X547165Y339647D01*
X545511Y340752D01*
X543560Y341140D01*
X543517Y341131D01*
X515603Y369045D01*
X514446Y369819D01*
X513080Y370091D01*
X404441D01*
X404417Y370127D01*
X402763Y371232D01*
X400812Y371620D01*
D02*
G37*
G36*
X565658Y356126D02*
X563707Y355738D01*
X562053Y354633D01*
X560948Y352979D01*
X560560Y351028D01*
X560948Y349077D01*
X562053Y347423D01*
X562275Y347275D01*
Y306583D01*
X562239Y306559D01*
X561134Y304905D01*
X560746Y302954D01*
X561134Y301003D01*
X562239Y299349D01*
X563893Y298244D01*
X565844Y297856D01*
X567795Y298244D01*
X569449Y299349D01*
X570554Y301003D01*
X570942Y302954D01*
X570554Y304905D01*
X569449Y306559D01*
X569413Y306583D01*
Y347647D01*
X570368Y349077D01*
X570756Y351028D01*
X570368Y352979D01*
X569263Y354633D01*
X567609Y355738D01*
X565658Y356126D01*
D02*
G37*
G36*
X25400Y516784D02*
X22789Y516441D01*
X20357Y515433D01*
X18268Y513830D01*
X16665Y511741D01*
X15657Y509309D01*
X15314Y506698D01*
Y502698D01*
X15657Y500088D01*
X16665Y497655D01*
X18268Y495566D01*
X20357Y493963D01*
X22789Y492955D01*
X25400Y492612D01*
X28010Y492955D01*
X30443Y493963D01*
X32532Y495566D01*
X34135Y497655D01*
X35143Y500088D01*
X35486Y502698D01*
Y506698D01*
X35143Y509309D01*
X34135Y511741D01*
X32532Y513830D01*
X30443Y515433D01*
X28010Y516441D01*
X25400Y516784D01*
D02*
G37*
G36*
X50800Y446846D02*
X48190Y446503D01*
X45757Y445495D01*
X43668Y443892D01*
X42065Y441803D01*
X41057Y439370D01*
X40714Y436760D01*
Y432760D01*
X41057Y430149D01*
X42065Y427717D01*
X43668Y425628D01*
X45757Y424025D01*
X48190Y423017D01*
X49778Y422808D01*
X50597Y422700D01*
Y421420D01*
X49778Y421312D01*
X48190Y421103D01*
X45757Y420095D01*
X43668Y418492D01*
X42065Y416403D01*
X41057Y413970D01*
X40714Y411360D01*
Y407360D01*
X41057Y404749D01*
X42065Y402317D01*
X43668Y400228D01*
X45757Y398625D01*
X48190Y397617D01*
X50800Y397274D01*
X53411Y397617D01*
X55843Y398625D01*
X57932Y400228D01*
X59535Y402317D01*
X60543Y404749D01*
X60886Y407360D01*
Y411360D01*
X60543Y413970D01*
X59535Y416403D01*
X57932Y418492D01*
X55843Y420095D01*
X53411Y421103D01*
X51822Y421312D01*
X51003Y421420D01*
Y422700D01*
X51822Y422808D01*
X53411Y423017D01*
X55843Y424025D01*
X57932Y425628D01*
X59535Y427717D01*
X60543Y430149D01*
X60886Y432760D01*
Y436760D01*
X60543Y439370D01*
X59535Y441803D01*
X57932Y443892D01*
X55843Y445495D01*
X53411Y446503D01*
X50800Y446846D01*
D02*
G37*
G36*
X59000Y393000D02*
X39000D01*
Y369000D01*
X59000D01*
Y393000D01*
D02*
G37*
G36*
X150198Y274139D02*
X148247Y273751D01*
X146593Y272646D01*
X145488Y270992D01*
X145100Y269041D01*
X145373Y267668D01*
X145335Y267476D01*
X121937Y244077D01*
X121163Y242920D01*
X120891Y241554D01*
Y209756D01*
X121163Y208390D01*
X121937Y207232D01*
X123896Y205273D01*
X123814Y205151D01*
X123426Y203200D01*
X123814Y201249D01*
X124919Y199595D01*
X126573Y198490D01*
X128524Y198102D01*
X130475Y198490D01*
X132129Y199595D01*
X133234Y201249D01*
X133622Y203200D01*
X133234Y205151D01*
X132867Y205701D01*
X133451Y207112D01*
X133523Y207126D01*
X135177Y208231D01*
X136282Y209885D01*
X136670Y211836D01*
X136282Y213787D01*
X135177Y215441D01*
X135141Y215465D01*
Y240076D01*
X154116Y259051D01*
X155112Y259717D01*
X158602Y263206D01*
X159004Y263126D01*
X160955Y263514D01*
X162609Y264619D01*
X163714Y266273D01*
X164102Y268224D01*
X163714Y270175D01*
X162609Y271829D01*
X160955Y272934D01*
X159004Y273322D01*
X157053Y272934D01*
X155528Y271915D01*
X154168Y272099D01*
X153802Y272646D01*
X152149Y273751D01*
X150198Y274139D01*
D02*
G37*
G36*
X61710Y300730D02*
X60149Y300419D01*
X58826Y299535D01*
X57942Y298212D01*
X57632Y296651D01*
Y278299D01*
X25459Y246126D01*
X24575Y244803D01*
X24264Y243243D01*
X24264Y243243D01*
Y241473D01*
X22729Y239938D01*
X20960D01*
X19399Y239628D01*
X18076Y238744D01*
X17192Y237421D01*
X16882Y235860D01*
X17192Y234299D01*
X18076Y232976D01*
X19399Y232092D01*
X20960Y231782D01*
X24419D01*
X24419Y231782D01*
X25979Y232092D01*
X27303Y232976D01*
X31226Y236900D01*
X31226Y236900D01*
X32111Y238223D01*
X32421Y239784D01*
Y241553D01*
X64594Y273726D01*
X65478Y275049D01*
X65788Y276610D01*
X65788Y276610D01*
Y296651D01*
X65478Y298212D01*
X64594Y299535D01*
X63271Y300419D01*
X61710Y300730D01*
D02*
G37*
G36*
X559510Y229446D02*
X556899Y229103D01*
X554467Y228095D01*
X552378Y226492D01*
X550775Y224403D01*
X549767Y221971D01*
X549424Y219360D01*
Y215360D01*
X549767Y212750D01*
X550775Y210317D01*
X552378Y208228D01*
X554467Y206625D01*
X556899Y205617D01*
X559510Y205274D01*
X562121Y205617D01*
X564553Y206625D01*
X566642Y208228D01*
X568245Y210317D01*
X569253Y212750D01*
X569596Y215360D01*
Y219360D01*
X569253Y221971D01*
X568245Y224403D01*
X566642Y226492D01*
X564553Y228095D01*
X562121Y229103D01*
X559510Y229446D01*
D02*
G37*
G36*
X457910D02*
X455299Y229103D01*
X452867Y228095D01*
X450778Y226492D01*
X449175Y224403D01*
X448167Y221971D01*
X447824Y219360D01*
Y215360D01*
X448167Y212750D01*
X449175Y210317D01*
X450778Y208228D01*
X452867Y206625D01*
X455299Y205617D01*
X457910Y205274D01*
X460521Y205617D01*
X462953Y206625D01*
X465042Y208228D01*
X466645Y210317D01*
X467653Y212750D01*
X467996Y215360D01*
Y219360D01*
X467653Y221971D01*
X466645Y224403D01*
X465042Y226492D01*
X462953Y228095D01*
X460521Y229103D01*
X457910Y229446D01*
D02*
G37*
G36*
X407110D02*
X404500Y229103D01*
X402067Y228095D01*
X399978Y226492D01*
X398375Y224403D01*
X397367Y221971D01*
X397024Y219360D01*
Y215360D01*
X397367Y212750D01*
X398375Y210317D01*
X399978Y208228D01*
X402067Y206625D01*
X404500Y205617D01*
X407110Y205274D01*
X409720Y205617D01*
X412153Y206625D01*
X414242Y208228D01*
X415845Y210317D01*
X416853Y212750D01*
X417196Y215360D01*
Y219360D01*
X416853Y221971D01*
X415845Y224403D01*
X414242Y226492D01*
X412153Y228095D01*
X409720Y229103D01*
X407110Y229446D01*
D02*
G37*
G36*
X381710D02*
X379100Y229103D01*
X376667Y228095D01*
X374578Y226492D01*
X372975Y224403D01*
X371967Y221971D01*
X371624Y219360D01*
Y215360D01*
X371967Y212750D01*
X372975Y210317D01*
X374578Y208228D01*
X376667Y206625D01*
X379100Y205617D01*
X381710Y205274D01*
X384320Y205617D01*
X386753Y206625D01*
X388842Y208228D01*
X390445Y210317D01*
X391453Y212750D01*
X391796Y215360D01*
Y219360D01*
X391453Y221971D01*
X390445Y224403D01*
X388842Y226492D01*
X386753Y228095D01*
X384320Y229103D01*
X381710Y229446D01*
D02*
G37*
G36*
X356310D02*
X353699Y229103D01*
X351267Y228095D01*
X349178Y226492D01*
X347575Y224403D01*
X346567Y221971D01*
X346224Y219360D01*
Y215360D01*
X346567Y212750D01*
X347575Y210317D01*
X349178Y208228D01*
X351267Y206625D01*
X353699Y205617D01*
X356310Y205274D01*
X358921Y205617D01*
X361353Y206625D01*
X363442Y208228D01*
X365045Y210317D01*
X366053Y212750D01*
X366396Y215360D01*
Y219360D01*
X366053Y221971D01*
X365045Y224403D01*
X363442Y226492D01*
X361353Y228095D01*
X358921Y229103D01*
X356310Y229446D01*
D02*
G37*
G36*
X148844Y210072D02*
X147283Y209762D01*
X145960Y208878D01*
X145076Y207555D01*
X144766Y205994D01*
Y197269D01*
X115151Y167654D01*
X107099D01*
X85594Y189160D01*
X84271Y190044D01*
X82710Y190354D01*
X82710Y190354D01*
X70013D01*
X68452Y190044D01*
X67129Y189160D01*
X67129Y189160D01*
X65436Y187466D01*
X61990D01*
Y189992D01*
X61680Y191553D01*
X60796Y192876D01*
X59473Y193760D01*
X57912Y194070D01*
X56351Y193760D01*
X55028Y192876D01*
X54144Y191553D01*
X53834Y189992D01*
Y183388D01*
Y173251D01*
X19826Y139244D01*
X18942Y137921D01*
X18632Y136360D01*
X18942Y134799D01*
X19826Y133476D01*
X21149Y132592D01*
X22710Y132282D01*
X24271Y132592D01*
X25594Y133476D01*
X60796Y168678D01*
X61680Y170001D01*
X61990Y171562D01*
X61990Y171562D01*
Y179310D01*
X67125D01*
X67125Y179310D01*
X68685Y179620D01*
X70009Y180504D01*
X71702Y182198D01*
X81021D01*
X102526Y160692D01*
X102526Y160692D01*
X103849Y159808D01*
X105410Y159498D01*
X116840D01*
X116840Y159498D01*
X118401Y159808D01*
X119724Y160692D01*
X151728Y192696D01*
X152612Y194019D01*
X152922Y195580D01*
X152922Y195580D01*
Y205994D01*
X152612Y207555D01*
X151728Y208878D01*
X150405Y209762D01*
X148844Y210072D01*
D02*
G37*
G36*
X467106Y163848D02*
X465155Y163460D01*
X464210Y162828D01*
X378968D01*
X378968Y162828D01*
X377407Y162518D01*
X376084Y161634D01*
X365426Y150976D01*
X365004Y150343D01*
X363467Y150260D01*
X363442Y150292D01*
X361353Y151895D01*
X358921Y152903D01*
X356310Y153246D01*
X353699Y152903D01*
X351267Y151895D01*
X349178Y150292D01*
X347575Y148203D01*
X346567Y145771D01*
X346224Y143160D01*
Y139160D01*
X346567Y136550D01*
X347575Y134117D01*
X349178Y132028D01*
X351267Y130425D01*
X353699Y129417D01*
X356310Y129074D01*
X358921Y129417D01*
X361353Y130425D01*
X362962Y131659D01*
X364232Y131049D01*
Y102649D01*
X360874Y99292D01*
X359759Y99070D01*
X358105Y97965D01*
X357000Y96311D01*
X356612Y94360D01*
X357000Y92409D01*
X358105Y90755D01*
X359759Y89650D01*
X361710Y89262D01*
X363661Y89650D01*
X365315Y90755D01*
X366420Y92409D01*
X366642Y93524D01*
X371194Y98076D01*
X371194Y98076D01*
X372078Y99399D01*
X372388Y100960D01*
Y132795D01*
X373658Y133226D01*
X374578Y132028D01*
X376667Y130425D01*
X379100Y129417D01*
X381710Y129074D01*
X384320Y129417D01*
X386753Y130425D01*
X388842Y132028D01*
X390445Y134117D01*
X391453Y136550D01*
X391796Y139160D01*
Y143160D01*
X391453Y145771D01*
X390445Y148203D01*
X388842Y150292D01*
X386753Y151895D01*
X384320Y152903D01*
X382159Y153187D01*
X381539Y154167D01*
X381478Y154497D01*
X381587Y154672D01*
X464210D01*
X465155Y154040D01*
X467106Y153652D01*
X469057Y154040D01*
X470711Y155145D01*
X471816Y156799D01*
X472204Y158750D01*
X471816Y160701D01*
X470711Y162355D01*
X469057Y163460D01*
X467106Y163848D01*
D02*
G37*
G36*
X534110Y153246D02*
X531499Y152903D01*
X529067Y151895D01*
X526978Y150292D01*
X525375Y148203D01*
X524367Y145771D01*
X524024Y143160D01*
Y139160D01*
X524367Y136550D01*
X525375Y134117D01*
X526978Y132028D01*
X529067Y130425D01*
X531499Y129417D01*
X534110Y129074D01*
X536721Y129417D01*
X539153Y130425D01*
X541242Y132028D01*
X542845Y134117D01*
X543853Y136550D01*
X544196Y139160D01*
Y143160D01*
X543853Y145771D01*
X542845Y148203D01*
X541242Y150292D01*
X539153Y151895D01*
X536721Y152903D01*
X534110Y153246D01*
D02*
G37*
G36*
X508710D02*
X506100Y152903D01*
X503667Y151895D01*
X501578Y150292D01*
X499975Y148203D01*
X498967Y145771D01*
X498624Y143160D01*
Y139160D01*
X498967Y136550D01*
X499975Y134117D01*
X501578Y132028D01*
X503667Y130425D01*
X506100Y129417D01*
X508710Y129074D01*
X511320Y129417D01*
X513753Y130425D01*
X515842Y132028D01*
X517445Y134117D01*
X518453Y136550D01*
X518796Y139160D01*
Y143160D01*
X518453Y145771D01*
X517445Y148203D01*
X515842Y150292D01*
X513753Y151895D01*
X511320Y152903D01*
X508710Y153246D01*
D02*
G37*
G36*
X483310D02*
X480700Y152903D01*
X478267Y151895D01*
X476178Y150292D01*
X474575Y148203D01*
X473567Y145771D01*
X473224Y143160D01*
Y139160D01*
X473567Y136550D01*
X474575Y134117D01*
X476178Y132028D01*
X478267Y130425D01*
X480700Y129417D01*
X483310Y129074D01*
X485920Y129417D01*
X488353Y130425D01*
X490442Y132028D01*
X492045Y134117D01*
X493053Y136550D01*
X493396Y139160D01*
Y143160D01*
X493053Y145771D01*
X492045Y148203D01*
X490442Y150292D01*
X488353Y151895D01*
X485920Y152903D01*
X483310Y153246D01*
D02*
G37*
G36*
X432510D02*
X429899Y152903D01*
X427467Y151895D01*
X425378Y150292D01*
X423775Y148203D01*
X422767Y145771D01*
X422424Y143160D01*
Y139160D01*
X422767Y136550D01*
X423775Y134117D01*
X425378Y132028D01*
X427467Y130425D01*
X429899Y129417D01*
X432510Y129074D01*
X435121Y129417D01*
X437553Y130425D01*
X439642Y132028D01*
X441245Y134117D01*
X442253Y136550D01*
X442596Y139160D01*
Y143160D01*
X442253Y145771D01*
X441245Y148203D01*
X439642Y150292D01*
X437553Y151895D01*
X435121Y152903D01*
X432510Y153246D01*
D02*
G37*
G36*
X407110D02*
X404500Y152903D01*
X402067Y151895D01*
X399978Y150292D01*
X398375Y148203D01*
X397367Y145771D01*
X397024Y143160D01*
Y139160D01*
X397367Y136550D01*
X398375Y134117D01*
X399978Y132028D01*
X402067Y130425D01*
X404500Y129417D01*
X407110Y129074D01*
X409720Y129417D01*
X412153Y130425D01*
X414242Y132028D01*
X415845Y134117D01*
X416853Y136550D01*
X417196Y139160D01*
Y143160D01*
X416853Y145771D01*
X415845Y148203D01*
X414242Y150292D01*
X412153Y151895D01*
X409720Y152903D01*
X407110Y153246D01*
D02*
G37*
G36*
X330910D02*
X328299Y152903D01*
X325867Y151895D01*
X323778Y150292D01*
X322175Y148203D01*
X321167Y145771D01*
X320824Y143160D01*
Y139160D01*
X321167Y136550D01*
X322175Y134117D01*
X323778Y132028D01*
X325867Y130425D01*
X328299Y129417D01*
X330910Y129074D01*
X333521Y129417D01*
X335953Y130425D01*
X338042Y132028D01*
X339645Y134117D01*
X340653Y136550D01*
X340996Y139160D01*
Y143160D01*
X340653Y145771D01*
X339645Y148203D01*
X338042Y150292D01*
X335953Y151895D01*
X333521Y152903D01*
X330910Y153246D01*
D02*
G37*
G36*
X633010Y50760D02*
X613010D01*
Y26760D01*
X633010D01*
Y50760D01*
D02*
G37*
G36*
X290110D02*
X270110D01*
Y26760D01*
X290110D01*
Y50760D01*
D02*
G37*
G36*
X597610Y50846D02*
X595000Y50503D01*
X592567Y49495D01*
X590478Y47892D01*
X588875Y45803D01*
X587867Y43370D01*
X587524Y40760D01*
Y36760D01*
X587867Y34149D01*
X588875Y31717D01*
X590478Y29628D01*
X592567Y28025D01*
X595000Y27017D01*
X597610Y26674D01*
X600220Y27017D01*
X602653Y28025D01*
X604742Y29628D01*
X606345Y31717D01*
X607353Y34149D01*
X607696Y36760D01*
Y40760D01*
X607353Y43370D01*
X606345Y45803D01*
X604742Y47892D01*
X602653Y49495D01*
X600220Y50503D01*
X597610Y50846D01*
D02*
G37*
G36*
X572210D02*
X569599Y50503D01*
X567167Y49495D01*
X565078Y47892D01*
X563475Y45803D01*
X562467Y43370D01*
X562124Y40760D01*
Y36760D01*
X562467Y34149D01*
X563475Y31717D01*
X565078Y29628D01*
X567167Y28025D01*
X569599Y27017D01*
X572210Y26674D01*
X574821Y27017D01*
X577253Y28025D01*
X579342Y29628D01*
X580945Y31717D01*
X581953Y34149D01*
X582296Y36760D01*
Y40760D01*
X581953Y43370D01*
X580945Y45803D01*
X579342Y47892D01*
X577253Y49495D01*
X574821Y50503D01*
X572210Y50846D01*
D02*
G37*
G36*
X546810D02*
X544199Y50503D01*
X541767Y49495D01*
X539678Y47892D01*
X538075Y45803D01*
X537067Y43370D01*
X536724Y40760D01*
Y36760D01*
X537067Y34149D01*
X538075Y31717D01*
X539678Y29628D01*
X541767Y28025D01*
X544199Y27017D01*
X546810Y26674D01*
X549421Y27017D01*
X551853Y28025D01*
X553942Y29628D01*
X555545Y31717D01*
X556553Y34149D01*
X556896Y36760D01*
Y40760D01*
X556553Y43370D01*
X555545Y45803D01*
X553942Y47892D01*
X551853Y49495D01*
X549421Y50503D01*
X546810Y50846D01*
D02*
G37*
G36*
X521410D02*
X518800Y50503D01*
X516367Y49495D01*
X514278Y47892D01*
X512675Y45803D01*
X511667Y43370D01*
X511324Y40760D01*
Y36760D01*
X511667Y34149D01*
X512675Y31717D01*
X514278Y29628D01*
X516367Y28025D01*
X518800Y27017D01*
X521410Y26674D01*
X524021Y27017D01*
X526453Y28025D01*
X528542Y29628D01*
X530145Y31717D01*
X531153Y34149D01*
X531496Y36760D01*
Y40760D01*
X531153Y43370D01*
X530145Y45803D01*
X528542Y47892D01*
X526453Y49495D01*
X524021Y50503D01*
X521410Y50846D01*
D02*
G37*
G36*
X496010D02*
X493400Y50503D01*
X490967Y49495D01*
X488878Y47892D01*
X487275Y45803D01*
X486267Y43370D01*
X485924Y40760D01*
Y36760D01*
X486267Y34149D01*
X487275Y31717D01*
X488878Y29628D01*
X490967Y28025D01*
X493400Y27017D01*
X496010Y26674D01*
X498620Y27017D01*
X501053Y28025D01*
X503142Y29628D01*
X504745Y31717D01*
X505753Y34149D01*
X506096Y36760D01*
Y40760D01*
X505753Y43370D01*
X504745Y45803D01*
X503142Y47892D01*
X501053Y49495D01*
X498620Y50503D01*
X496010Y50846D01*
D02*
G37*
G36*
X457910D02*
X455299Y50503D01*
X452867Y49495D01*
X450778Y47892D01*
X449175Y45803D01*
X448167Y43370D01*
X447824Y40760D01*
Y36760D01*
X448167Y34149D01*
X449175Y31717D01*
X450778Y29628D01*
X452867Y28025D01*
X455299Y27017D01*
X457910Y26674D01*
X460521Y27017D01*
X462953Y28025D01*
X465042Y29628D01*
X466645Y31717D01*
X467653Y34149D01*
X467996Y36760D01*
Y40760D01*
X467653Y43370D01*
X466645Y45803D01*
X465042Y47892D01*
X462953Y49495D01*
X460521Y50503D01*
X457910Y50846D01*
D02*
G37*
G36*
X381710D02*
X379100Y50503D01*
X376667Y49495D01*
X374578Y47892D01*
X372975Y45803D01*
X371967Y43370D01*
X371624Y40760D01*
Y36760D01*
X371967Y34149D01*
X372975Y31717D01*
X374578Y29628D01*
X376667Y28025D01*
X379100Y27017D01*
X381710Y26674D01*
X384320Y27017D01*
X386753Y28025D01*
X388842Y29628D01*
X390445Y31717D01*
X391453Y34149D01*
X391796Y36760D01*
Y40760D01*
X391453Y43370D01*
X390445Y45803D01*
X388842Y47892D01*
X386753Y49495D01*
X384320Y50503D01*
X381710Y50846D01*
D02*
G37*
G36*
X356310D02*
X353699Y50503D01*
X351267Y49495D01*
X349178Y47892D01*
X347575Y45803D01*
X346567Y43370D01*
X346224Y40760D01*
Y36760D01*
X346567Y34149D01*
X347575Y31717D01*
X349178Y29628D01*
X351267Y28025D01*
X353699Y27017D01*
X356310Y26674D01*
X358921Y27017D01*
X361353Y28025D01*
X363442Y29628D01*
X365045Y31717D01*
X366053Y34149D01*
X366396Y36760D01*
Y40760D01*
X366053Y43370D01*
X365045Y45803D01*
X363442Y47892D01*
X361353Y49495D01*
X358921Y50503D01*
X356310Y50846D01*
D02*
G37*
G36*
X250710Y111959D02*
X247708Y111564D01*
X244910Y110405D01*
X242508Y108562D01*
X240665Y106160D01*
X239506Y103362D01*
X239111Y100360D01*
X239506Y97358D01*
X240665Y94560D01*
X242508Y92158D01*
X244910Y90315D01*
X247141Y89391D01*
Y40329D01*
X244910Y39405D01*
X242508Y37562D01*
X240665Y35160D01*
X239506Y32362D01*
X239111Y29360D01*
X239506Y26358D01*
X240665Y23560D01*
X242508Y21158D01*
X244910Y19315D01*
X247708Y18156D01*
X250710Y17761D01*
X253712Y18156D01*
X256510Y19315D01*
X258912Y21158D01*
X260755Y23560D01*
X261914Y26358D01*
X262309Y29360D01*
X261914Y32362D01*
X260755Y35160D01*
X258912Y37562D01*
X256510Y39405D01*
X254279Y40329D01*
Y89391D01*
X256510Y90315D01*
X258912Y92158D01*
X260755Y94560D01*
X261914Y97358D01*
X262309Y100360D01*
X261914Y103362D01*
X260755Y106160D01*
X258912Y108562D01*
X256510Y110405D01*
X253712Y111564D01*
X250710Y111959D01*
D02*
G37*
G36*
X305510Y50846D02*
X302899Y50503D01*
X300467Y49495D01*
X298378Y47892D01*
X296775Y45803D01*
X295767Y43370D01*
X295424Y40760D01*
Y36760D01*
X295767Y34149D01*
X296775Y31717D01*
X298378Y29628D01*
X300467Y28025D01*
X301863Y27447D01*
Y18325D01*
X301614Y17953D01*
X301226Y16002D01*
X301614Y14051D01*
X302719Y12397D01*
X304373Y11292D01*
X306324Y10904D01*
X308275Y11292D01*
X309929Y12397D01*
X311034Y14051D01*
X311422Y16002D01*
X311034Y17953D01*
X310020Y19471D01*
Y27804D01*
X310553Y28025D01*
X312642Y29628D01*
X314245Y31717D01*
X315253Y34149D01*
X315596Y36760D01*
Y40760D01*
X315253Y43370D01*
X314245Y45803D01*
X312642Y47892D01*
X310553Y49495D01*
X308120Y50503D01*
X305510Y50846D01*
D02*
G37*
%LPD*%
D11*
X250710Y29360D02*
Y100360D01*
X330910Y40760D02*
X353683Y63533D01*
X621505D01*
X330910Y40760D02*
Y95048D01*
Y38760D02*
Y40760D01*
X201676Y444754D02*
X275440D01*
X197358Y440436D02*
X201676Y444754D01*
X143970Y433936D02*
X211491D01*
X111506Y466400D02*
X143970Y433936D01*
X211491D02*
X215959Y438404D01*
X275440Y444754D02*
X275590Y444904D01*
X124460Y241554D02*
X148769Y265863D01*
X124460Y209756D02*
Y241554D01*
X127950Y203774D02*
X128524Y203200D01*
X127950Y203774D02*
Y206266D01*
X124460Y209756D02*
X127950Y206266D01*
X131572Y211836D02*
Y241554D01*
X152258Y262240D01*
X150198Y268230D02*
Y269041D01*
X148769Y266801D02*
X150198Y268230D01*
X148769Y265863D02*
Y266801D01*
X152258Y262240D02*
X152589D01*
X158573Y268224D01*
X159004D01*
X323928Y402634D02*
X324502Y403208D01*
X319225Y402634D02*
X323928D01*
X317911Y401320D02*
X319225Y402634D01*
X289814Y374904D02*
X352885D01*
X354496Y373292D01*
X419518Y465286D02*
X420092Y465860D01*
X416125Y465286D02*
X419518D01*
X415474Y464636D02*
X416125Y465286D01*
X439803Y453929D02*
X621823D01*
X325484Y366522D02*
X326825Y365181D01*
X362387D01*
X438478Y452604D02*
X439803Y453929D01*
X362387Y365181D02*
X362815Y365609D01*
X290068Y366522D02*
X325484D01*
X437666Y452604D02*
X438478D01*
X257254Y494134D02*
X382848Y368540D01*
Y328488D02*
Y368540D01*
X216812Y494134D02*
X257254D01*
X177010Y484134D02*
X246370D01*
X88862Y465798D02*
X107424Y484360D01*
X188468Y493541D02*
X192875Y489134D01*
X248482D02*
X377848Y359768D01*
X192875Y489134D02*
X248482D01*
X213868Y497078D02*
X216812Y494134D01*
X246370Y484134D02*
X313854Y416650D01*
X176784Y484360D02*
X177010Y484134D01*
X213868Y497078D02*
Y521462D01*
X107424Y484360D02*
X176784D01*
X188468Y493541D02*
Y521462D01*
X313854Y414570D02*
X314428Y413996D01*
X290017Y357683D02*
X370740D01*
X215959Y438404D02*
X285029D01*
X301183Y422250D01*
X377848Y326417D02*
Y359768D01*
X313854Y414570D02*
Y416650D01*
X301183Y418048D02*
Y422250D01*
Y418048D02*
X317911Y401320D01*
X370740Y357683D02*
X370943Y357481D01*
X289814Y357886D02*
X290017Y357683D01*
X127254Y343154D02*
X133287Y349187D01*
X133525D01*
X123698Y351790D02*
Y394598D01*
X123571Y351663D02*
X123698Y351790D01*
X118364Y343154D02*
X127254D01*
X110490Y351028D02*
Y366522D01*
Y351028D02*
X118364Y343154D01*
X147320Y379476D02*
X147828D01*
X149606Y381254D01*
X197800Y379034D02*
X198374Y378460D01*
X191752Y379034D02*
X197800D01*
X189532Y381254D02*
X191752Y379034D01*
X149606Y381254D02*
X189532D01*
X148710Y396660D02*
X206844D01*
X246380Y195834D02*
Y357124D01*
X206844Y396660D02*
X246380Y357124D01*
X91593Y325500D02*
X95898Y321195D01*
X47372Y325500D02*
X91593D01*
X83384Y320500D02*
X86106Y317778D01*
X39164Y320500D02*
X83384D01*
X23600Y336064D02*
X39164Y320500D01*
X41656Y331216D02*
X47372Y325500D01*
X41656Y331216D02*
Y345752D01*
X49000Y353096D02*
Y355600D01*
X41656Y345752D02*
X49000Y353096D01*
X99734Y377705D02*
X135189Y413160D01*
X96012Y359863D02*
X99734Y363585D01*
X80143Y344932D02*
X96012D01*
Y359863D01*
X99734Y363585D02*
Y377705D01*
X78959Y343747D02*
X80143Y344932D01*
X78147Y343747D02*
X78959D01*
X23600Y336064D02*
Y355600D01*
X170434Y423672D02*
Y427116D01*
X382848Y328488D02*
X464010Y247326D01*
X377848Y326417D02*
X461939Y242326D01*
X476607D01*
X464010Y247326D02*
X497007D01*
X291671Y134287D02*
X330910Y95048D01*
X497007Y247326D02*
X522610Y221723D01*
X494810Y212997D02*
X529146Y178660D01*
X584910Y141160D02*
Y143216D01*
X522610Y205516D02*
Y221723D01*
X494810Y212997D02*
Y224123D01*
X476607Y242326D02*
X494810Y224123D01*
X522610Y205516D02*
X584910Y143216D01*
X102108Y402336D02*
Y468630D01*
X46037Y465798D02*
X88862D01*
X111506Y466400D02*
Y471678D01*
X148710Y472860D02*
X150710D01*
X170434Y453136D01*
Y442722D02*
Y453136D01*
X154922Y408160D02*
X170434Y423672D01*
X123698Y394598D02*
X137260Y408160D01*
X154922D01*
X135189Y413160D02*
X137810D01*
X146710Y422060D01*
X148710D01*
X39300Y472535D02*
X46037Y465798D01*
X39300Y472535D02*
Y477541D01*
X37543Y479298D02*
X39300Y477541D01*
X25400Y479298D02*
X37543D01*
X279221Y235204D02*
X280110Y234315D01*
X254762Y235204D02*
X279221D01*
X280110Y234315D02*
Y238708D01*
Y217360D02*
Y234315D01*
X246380Y195834D02*
X291671Y150543D01*
Y134287D02*
Y150543D01*
X292354Y156931D02*
X296671Y152614D01*
X292354Y156931D02*
Y233630D01*
X296671Y151999D02*
X305510Y143160D01*
X296671Y151999D02*
Y152614D01*
X292354Y233630D02*
X300736Y242012D01*
X404093Y359226D02*
X490150D01*
X542290Y307086D01*
X403606Y476504D02*
X415474Y464636D01*
X513080Y366522D02*
X543560Y336042D01*
X400812Y366522D02*
X513080D01*
X306784Y262382D02*
X306793Y262373D01*
X303784Y262382D02*
X306784D01*
X313474Y262373D02*
X314048Y261799D01*
X306793Y262373D02*
X313474D01*
X557022Y158242D02*
X558546D01*
X536604Y178660D02*
X557022Y158242D01*
X529146Y178660D02*
X536604D01*
X595556Y157226D02*
X610310Y142472D01*
X582676Y157226D02*
X595556D01*
X610310Y141160D02*
Y142472D01*
X565844Y302954D02*
Y350842D01*
X565658Y351028D02*
X565844Y350842D01*
X600710Y272360D02*
X671710D01*
X280110Y238708D02*
X303784Y262382D01*
X318516Y172720D02*
Y224282D01*
X326832Y235646D02*
X327406Y236220D01*
X326832Y232598D02*
Y235646D01*
X318516Y224282D02*
X326832Y232598D01*
X300736Y242012D02*
Y242824D01*
X304292Y158496D02*
X318516Y172720D01*
X305510Y141160D02*
Y143160D01*
X635710Y519360D02*
Y521360D01*
X610310Y519360D02*
Y521360D01*
D14*
X205710Y100360D02*
D03*
D18*
X169000Y126000D02*
D03*
X152000D02*
D03*
D03*
X135000D02*
D03*
D72*
X28343Y239784D02*
Y243243D01*
X61710Y276610D01*
X20960Y235860D02*
X24419D01*
X28343Y239784D01*
X67125Y183388D02*
X70013Y186276D01*
X57912Y183388D02*
X67125D01*
X82710Y186276D02*
X105410Y163576D01*
X57912Y183388D02*
Y189992D01*
X105410Y163576D02*
X116840D01*
X70013Y186276D02*
X82710D01*
X407110Y36760D02*
Y38760D01*
X282814Y354986D02*
X288550Y349250D01*
X282814Y385010D02*
X288544Y390740D01*
X205710Y29360D02*
Y100360D01*
X288550Y349250D02*
X345186D01*
X57404Y525637D02*
X76200Y506841D01*
X57404Y525637D02*
Y525780D01*
X76200Y504698D02*
Y506841D01*
Y432760D02*
Y434760D01*
X361710Y94360D02*
X368310Y100960D01*
X76200Y432760D02*
X88461Y420499D01*
X93851D01*
X368310Y148092D02*
X378968Y158750D01*
X467106D01*
X93851Y420499D02*
X94234Y420116D01*
X368310Y100960D02*
Y148092D01*
X158828Y132329D02*
Y132985D01*
X161343Y135500D02*
X229244D01*
X152110Y125890D02*
X152390D01*
X158828Y132329D01*
Y132985D02*
X161343Y135500D01*
X286381Y411360D02*
Y427859D01*
X288544Y390740D02*
Y409197D01*
X286381Y411360D02*
X288544Y409197D01*
X439478Y289618D02*
X447802Y297942D01*
X447294Y286512D02*
X474980Y258826D01*
X577579Y252826D02*
X578579Y251826D01*
X579120D01*
X474980Y258826D02*
X623824D01*
X447802Y297942D02*
Y302006D01*
X305510Y38760D02*
X305941Y38329D01*
Y16385D02*
X306324Y16002D01*
X305941Y16385D02*
Y38329D01*
X595376Y230260D02*
X597323D01*
X126710Y97360D02*
Y118210D01*
X134500Y126000D02*
X135000D01*
X126710Y118210D02*
X134500Y126000D01*
X169000Y107870D02*
Y126000D01*
X177510Y97360D02*
Y99360D01*
X169000Y107870D02*
X177510Y99360D01*
X35306Y311404D02*
X66802D01*
X466288Y252826D02*
X577579D01*
X186944Y230124D02*
X210058Y207010D01*
X8636Y338074D02*
X35306Y311404D01*
X66548Y343916D02*
X94234Y371602D01*
Y420116D01*
X345186Y349250D02*
X345694Y348742D01*
X126710Y97360D02*
X129006Y95064D01*
X375430Y5080D02*
X407110Y36760D01*
X186944Y230124D02*
Y374650D01*
X228751Y5080D02*
X375430D01*
X381710Y36760D02*
Y38760D01*
X205710Y28121D02*
Y29360D01*
X57912Y171562D02*
Y183388D01*
X22710Y136360D02*
X57912Y171562D01*
X210058Y157734D02*
Y207010D01*
Y157734D02*
X230886Y136906D01*
X116840Y163576D02*
X148844Y195580D01*
X25400Y433017D02*
Y434760D01*
X8636Y416253D02*
X25400Y433017D01*
X8636Y338074D02*
Y416253D01*
X148844Y195580D02*
Y205994D01*
X245840Y500634D02*
X264668Y519462D01*
X223012Y500634D02*
X245840D01*
X264668Y519462D02*
Y521462D01*
X106934Y286512D02*
X186944D01*
X356310Y36760D02*
Y38760D01*
X623824Y258826D02*
X661110Y221540D01*
X654110Y192833D02*
X654558Y193281D01*
X661110Y89560D02*
Y221540D01*
X654110Y180848D02*
Y192833D01*
X654558Y193281D02*
Y204724D01*
X106551Y286895D02*
Y291975D01*
X90678Y307848D02*
X106551Y291975D01*
Y286895D02*
X106934Y286512D01*
X152110Y97360D02*
Y125890D01*
X439478Y279636D02*
X466288Y252826D01*
X439478Y279636D02*
Y289618D01*
X282814Y354986D02*
Y385010D01*
X61710Y276610D02*
Y296651D01*
X205710Y28121D02*
X228751Y5080D01*
X600710Y317360D02*
X671710D01*
X624873Y234409D02*
X654558Y204724D01*
X601743Y234679D02*
X624873D01*
X597323Y230260D02*
X601743Y234679D01*
X624873Y234409D02*
Y234679D01*
X186944Y286512D02*
X186944Y286512D01*
D73*
X148710Y422060D02*
D03*
Y447460D02*
D03*
Y472860D02*
D03*
X660710Y479360D02*
D03*
Y453960D02*
D03*
D74*
X148710Y396660D02*
D03*
X660710Y428560D02*
D03*
D75*
X417068Y521462D02*
D03*
X391668D02*
D03*
X366268D02*
D03*
X340868D02*
D03*
X315468D02*
D03*
X290068D02*
D03*
X264668D02*
D03*
X239268D02*
D03*
X213868D02*
D03*
X25400Y504698D02*
D03*
X76200D02*
D03*
X50800D02*
D03*
X76200Y479298D02*
D03*
X50800D02*
D03*
X25400Y434760D02*
D03*
X76200D02*
D03*
X50800D02*
D03*
X76200Y409360D02*
D03*
X50800D02*
D03*
X49000Y355600D02*
D03*
X23600D02*
D03*
Y381000D02*
D03*
X126710Y97360D02*
D03*
X152110D02*
D03*
X457910Y38760D02*
D03*
X432510D02*
D03*
X407110D02*
D03*
X381710D02*
D03*
X356310D02*
D03*
X330910D02*
D03*
X305510D02*
D03*
X496010D02*
D03*
X597610D02*
D03*
X572210D02*
D03*
X546810D02*
D03*
X521410D02*
D03*
X635710Y521360D02*
D03*
X610310D02*
D03*
X584910D02*
D03*
X559510D02*
D03*
X534110D02*
D03*
X508710D02*
D03*
X483310D02*
D03*
X280110Y141160D02*
D03*
X305510D02*
D03*
X330910D02*
D03*
X356310D02*
D03*
X381710D02*
D03*
X407110D02*
D03*
X432510D02*
D03*
X457910D02*
D03*
X483310D02*
D03*
X508710D02*
D03*
X534110D02*
D03*
X559510D02*
D03*
X584910D02*
D03*
X610310D02*
D03*
X280110Y217360D02*
D03*
X305510D02*
D03*
X330910D02*
D03*
X356310D02*
D03*
X381710D02*
D03*
X407110D02*
D03*
X432510D02*
D03*
X457910D02*
D03*
X483310D02*
D03*
X508710D02*
D03*
X534110D02*
D03*
X559510D02*
D03*
X584910D02*
D03*
D76*
X188468Y521462D02*
D03*
X25400Y479298D02*
D03*
Y409360D02*
D03*
X49000Y381000D02*
D03*
X177510Y97360D02*
D03*
X280110Y38760D02*
D03*
X623010D02*
D03*
X457910Y521360D02*
D03*
X610310Y217360D02*
D03*
D77*
X20960Y169860D02*
D03*
Y235860D02*
D03*
D78*
X22710Y136360D02*
D03*
X23710Y43360D02*
D03*
D79*
X250710Y29360D02*
D03*
Y100360D02*
D03*
X205710Y29360D02*
D03*
X600710Y272360D02*
D03*
X671710D02*
D03*
X600710Y317360D02*
D03*
D80*
X671710D02*
D03*
D81*
X153110Y521360D02*
D03*
D82*
X661110Y368960D02*
D03*
Y89560D02*
D03*
X140410Y38760D02*
D03*
D83*
X306324Y16002D02*
D03*
X621505Y63533D02*
D03*
X148844Y205994D02*
D03*
X61710Y296651D02*
D03*
X230886Y136906D02*
D03*
X82710Y186276D02*
D03*
X197358Y440436D02*
D03*
X66548Y343916D02*
D03*
X131572Y211836D02*
D03*
X150198Y269041D02*
D03*
X128524Y203200D02*
D03*
X159004Y268224D02*
D03*
X324502Y403208D02*
D03*
X354496Y373292D02*
D03*
X420092Y465860D02*
D03*
X437666Y452604D02*
D03*
X223012Y500634D02*
D03*
X314428Y413996D02*
D03*
X362815Y365609D02*
D03*
X370943Y357481D02*
D03*
X286381Y427859D02*
D03*
X133525Y349187D02*
D03*
X123571Y351663D02*
D03*
X110490Y366522D02*
D03*
X147320Y379476D02*
D03*
X198374Y378460D02*
D03*
X186944Y374650D02*
D03*
X86106Y317778D02*
D03*
X95898Y321195D02*
D03*
X78147Y343747D02*
D03*
X94234Y420116D02*
D03*
X170434Y427116D02*
D03*
X102108Y402336D02*
D03*
X66802Y311404D02*
D03*
X361710Y94360D02*
D03*
X467106Y158750D02*
D03*
X447294Y286512D02*
D03*
X116840Y163576D02*
D03*
X447802Y302006D02*
D03*
X579120Y251826D02*
D03*
X595376Y230260D02*
D03*
X623824Y258826D02*
D03*
X624873Y234679D02*
D03*
X654110Y180848D02*
D03*
X96012Y344932D02*
D03*
X106934Y286512D02*
D03*
X90678Y307848D02*
D03*
X102108Y468630D02*
D03*
X111506Y471678D02*
D03*
X57404Y525780D02*
D03*
X170434Y442722D02*
D03*
X275590Y444904D02*
D03*
X57912Y189992D02*
D03*
X209804Y207264D02*
D03*
X254762Y235204D02*
D03*
X621823Y453929D02*
D03*
X289814Y374904D02*
D03*
X345694Y348742D02*
D03*
X289814Y357886D02*
D03*
X290068Y366522D02*
D03*
X404093Y359226D02*
D03*
X400812Y366522D02*
D03*
X543560Y336042D02*
D03*
X565844Y302954D02*
D03*
X314048Y261799D02*
D03*
X542290Y307086D02*
D03*
X558546Y158242D02*
D03*
X582676Y157226D02*
D03*
X565658Y351028D02*
D03*
X403606Y476504D02*
D03*
X327406Y236220D02*
D03*
X300736Y242824D02*
D03*
X304292Y158496D02*
D03*
M02*
