G04*
G04 #@! TF.GenerationSoftware,Altium Limited,Altium Designer,20.2.6 (244)*
G04*
G04 Layer_Physical_Order=1*
G04 Layer_Color=255*
%FSLAX44Y44*%
%MOMM*%
G71*
G04*
G04 #@! TF.SameCoordinates,CE6D2A43-BF16-4D6C-96BE-271B1CC6D4BA*
G04*
G04*
G04 #@! TF.FilePolarity,Positive*
G04*
G01*
G75*
%ADD11C,0.3000*%
%ADD14R,1.9000X1.9000*%
%ADD15R,1.4000X1.6000*%
%ADD16R,1.3500X0.4000*%
%ADD17R,1.1000X1.2000*%
%ADD18R,1.2000X1.1000*%
%ADD19R,2.5000X2.6000*%
%ADD20R,2.6000X2.5000*%
%ADD21R,1.1000X0.6000*%
%ADD22R,0.6000X1.1000*%
%ADD23R,3.5000X2.2000*%
%ADD24R,0.6000X2.2000*%
%ADD25R,0.5500X1.5000*%
%ADD26R,1.5000X0.5500*%
%ADD27R,1.2000X1.2000*%
%ADD28R,1.2000X1.2000*%
%ADD29R,2.7000X0.9000*%
%ADD30R,1.0000X1.4000*%
%ADD31R,1.4000X1.0000*%
%ADD32R,0.6000X0.6000*%
%ADD33R,1.4000X1.5000*%
%ADD34R,1.5000X1.4000*%
%ADD35R,2.0000X2.6000*%
%ADD71C,1.0000*%
%ADD72C,0.4000*%
%ADD73O,2.0000X1.6000*%
%ADD74R,2.0000X1.6000*%
%ADD75O,1.6000X2.0000*%
%ADD76R,1.6000X2.0000*%
G04:AMPARAMS|DCode=77|XSize=2mm|YSize=1.2mm|CornerRadius=0.3mm|HoleSize=0mm|Usage=FLASHONLY|Rotation=0.000|XOffset=0mm|YOffset=0mm|HoleType=Round|Shape=RoundedRectangle|*
%AMROUNDEDRECTD77*
21,1,2.0000,0.6000,0,0,0.0*
21,1,1.4000,1.2000,0,0,0.0*
1,1,0.6000,0.7000,-0.3000*
1,1,0.6000,-0.7000,-0.3000*
1,1,0.6000,-0.7000,0.3000*
1,1,0.6000,0.7000,0.3000*
%
%ADD77ROUNDEDRECTD77*%
%ADD78C,4.0000*%
%ADD79C,1.9000*%
%ADD80R,1.9000X1.9000*%
%ADD81C,3.2000*%
%ADD82C,7.4000*%
%ADD83C,0.6000*%
G36*
X229182Y519462D02*
X229525Y516852D01*
X230533Y514419D01*
X232136Y512330D01*
X234225Y510727D01*
X235190Y510327D01*
Y503284D01*
X230186D01*
Y485284D01*
X241108D01*
Y480849D01*
X241108Y480849D01*
X241418Y479288D01*
X242302Y477965D01*
X252894Y467374D01*
X252408Y466200D01*
X238836D01*
X234030Y471006D01*
X232707Y471890D01*
X231147Y472200D01*
X231146Y472200D01*
X215874D01*
X215477Y472121D01*
X214610Y472128D01*
X214457Y472066D01*
X209745D01*
X209259Y473239D01*
X213386Y477366D01*
X213386Y477366D01*
X214270Y478689D01*
X214580Y480250D01*
X214580Y480250D01*
Y486434D01*
X225896Y497750D01*
X226780Y499073D01*
X227090Y500634D01*
X226780Y502195D01*
X225896Y503518D01*
X224573Y504402D01*
X223012Y504712D01*
X221451Y504402D01*
X220128Y503518D01*
X207618Y491007D01*
X206734Y489684D01*
X206423Y488124D01*
X206423Y488124D01*
Y481939D01*
X195490Y471006D01*
X194606Y469683D01*
X194296Y468122D01*
X194296Y468122D01*
Y466219D01*
X194234Y466127D01*
X193924Y464566D01*
X194234Y463005D01*
X194296Y462913D01*
Y454360D01*
X180210D01*
Y452929D01*
X167560D01*
X157004Y463484D01*
X156922Y465022D01*
X157842Y465728D01*
X159445Y467817D01*
X160453Y470249D01*
X160796Y472860D01*
X160453Y475470D01*
X159445Y477903D01*
X157842Y479992D01*
X155753Y481595D01*
X153321Y482603D01*
X150710Y482946D01*
X146710D01*
X144100Y482603D01*
X141667Y481595D01*
X139578Y479992D01*
X137975Y477903D01*
X136967Y475470D01*
X136624Y472860D01*
X136967Y470249D01*
X137975Y467817D01*
X139095Y466357D01*
X138469Y465087D01*
X107101D01*
X106502Y466207D01*
X106818Y466679D01*
X106942Y467303D01*
X107077Y467411D01*
X108333Y467785D01*
X109555Y466968D01*
X111506Y466580D01*
X113457Y466968D01*
X115111Y468073D01*
X116216Y469727D01*
X116604Y471678D01*
X116216Y473629D01*
X115111Y475283D01*
X115075Y475307D01*
Y493776D01*
X114803Y495142D01*
X114029Y496299D01*
X90802Y519527D01*
X91288Y520700D01*
X135088D01*
X135370Y517831D01*
X136400Y514438D01*
X138071Y511311D01*
X140321Y508571D01*
X143061Y506321D01*
X146188Y504650D01*
X149581Y503620D01*
X153110Y503273D01*
X156639Y503620D01*
X160032Y504650D01*
X163159Y506321D01*
X165900Y508571D01*
X168149Y511311D01*
X169820Y514438D01*
X170849Y517831D01*
X171132Y520700D01*
X178468D01*
Y509462D01*
X198468D01*
Y520700D01*
X203782D01*
Y519462D01*
X204125Y516852D01*
X205133Y514419D01*
X206736Y512330D01*
X208825Y510727D01*
X211257Y509719D01*
X213868Y509376D01*
X216479Y509719D01*
X218911Y510727D01*
X221000Y512330D01*
X222603Y514419D01*
X223611Y516852D01*
X223954Y519462D01*
Y520700D01*
X229182D01*
Y519462D01*
D02*
G37*
G36*
X663576Y519430D02*
X662886Y518530D01*
X662180Y516827D01*
X661940Y515000D01*
X662180Y513173D01*
X662886Y511470D01*
X664008Y510008D01*
X665470Y508885D01*
X667173Y508180D01*
X669000Y507940D01*
X670827Y508180D01*
X672530Y508885D01*
X673992Y510008D01*
X674370Y510500D01*
X675640Y510069D01*
Y320956D01*
X675242Y320685D01*
X674370Y320468D01*
X668288Y326549D01*
Y365860D01*
X668288Y365860D01*
X667978Y367421D01*
X667094Y368744D01*
X667094Y368744D01*
X663994Y371844D01*
X662671Y372728D01*
X661110Y373038D01*
X659549Y372728D01*
X658226Y371844D01*
X657342Y370521D01*
X657032Y368960D01*
X657342Y367399D01*
X658226Y366076D01*
X660132Y364171D01*
Y324860D01*
X660132Y324860D01*
X660442Y323299D01*
X661326Y321976D01*
X668826Y314476D01*
X670149Y313592D01*
X671710Y313282D01*
X673271Y313592D01*
X674370Y314327D01*
X675190Y314071D01*
X675640Y313764D01*
Y284383D01*
X674370Y283609D01*
X671710Y283959D01*
X668708Y283564D01*
X665910Y282405D01*
X663508Y280562D01*
X661665Y278160D01*
X660506Y275362D01*
X660111Y272360D01*
X660506Y269358D01*
X661665Y266560D01*
X663508Y264158D01*
X665910Y262315D01*
X668141Y261391D01*
Y254360D01*
X666710D01*
Y239959D01*
X665440Y239574D01*
X665233Y239883D01*
X660210Y244907D01*
Y255860D01*
X656279D01*
Y320084D01*
X656007Y321450D01*
X655233Y322608D01*
X624179Y353662D01*
Y419905D01*
X625210Y420860D01*
X626210D01*
X626480Y420860D01*
X642210D01*
Y424991D01*
X648710D01*
Y418560D01*
X672710D01*
Y438560D01*
X648710D01*
Y432129D01*
X642210D01*
Y435860D01*
X626480D01*
X626210Y435860D01*
X625210D01*
X624940Y435860D01*
X609210D01*
Y420860D01*
X617041D01*
Y406386D01*
X615868Y405900D01*
X606914Y414853D01*
Y466838D01*
X608266D01*
X608266Y466838D01*
X609827Y467148D01*
X611150Y468032D01*
X618695Y475577D01*
X618771Y475592D01*
X620094Y476476D01*
X620978Y477799D01*
X621288Y479360D01*
X620978Y480921D01*
X620094Y482244D01*
X618771Y483128D01*
X617210Y483438D01*
X616710D01*
X616710Y483438D01*
X615149Y483128D01*
X613826Y482244D01*
X613826Y482244D01*
X606577Y474994D01*
X605085D01*
X603524Y474684D01*
X602201Y473800D01*
X602201Y473800D01*
X599952Y471551D01*
X599068Y470228D01*
X598758Y468667D01*
X598758Y468667D01*
Y413164D01*
X598758Y413164D01*
X599068Y411603D01*
X599952Y410280D01*
X610348Y399885D01*
Y383161D01*
X595825D01*
Y378967D01*
X593478D01*
Y384292D01*
X578478D01*
X578117Y385412D01*
Y456720D01*
X631625Y510228D01*
X633100Y509617D01*
X635710Y509274D01*
X638321Y509617D01*
X640753Y510625D01*
X642842Y512228D01*
X644445Y514317D01*
X645453Y516749D01*
X645796Y519360D01*
Y520700D01*
X662950D01*
X663576Y519430D01*
D02*
G37*
G36*
X574824Y519360D02*
X575167Y516749D01*
X575778Y515275D01*
X531587Y471083D01*
X530813Y469926D01*
X530541Y468560D01*
Y228706D01*
X529067Y228095D01*
X526978Y226492D01*
X525375Y224403D01*
X524367Y221971D01*
X524024Y219360D01*
Y215360D01*
X524367Y212750D01*
X525375Y210317D01*
X526978Y208228D01*
X529067Y206625D01*
X531499Y205617D01*
X534110Y205274D01*
X536721Y205617D01*
X539153Y206625D01*
X541242Y208228D01*
X542845Y210317D01*
X543853Y212750D01*
X544196Y215360D01*
Y219360D01*
X543853Y221971D01*
X542845Y224403D01*
X541242Y226492D01*
X539153Y228095D01*
X537679Y228706D01*
Y302876D01*
X538949Y303305D01*
X540339Y302376D01*
X542290Y301988D01*
X544241Y302376D01*
X545895Y303481D01*
X547000Y305135D01*
X547388Y307086D01*
X547010Y308984D01*
X547005Y309045D01*
X547714Y310254D01*
X557030D01*
Y310254D01*
X558030D01*
Y310254D01*
X562275D01*
Y306583D01*
X562239Y306559D01*
X561134Y304905D01*
X560746Y302954D01*
X561134Y301003D01*
X562239Y299349D01*
X562275Y299325D01*
Y272868D01*
X556987Y267579D01*
X556213Y266422D01*
X555941Y265056D01*
Y228706D01*
X554467Y228095D01*
X552378Y226492D01*
X550775Y224403D01*
X549767Y221971D01*
X549424Y219360D01*
Y215360D01*
X549767Y212750D01*
X550775Y210317D01*
X552378Y208228D01*
X554467Y206625D01*
X556899Y205617D01*
X559510Y205274D01*
X562121Y205617D01*
X564553Y206625D01*
X566642Y208228D01*
X568245Y210317D01*
X569253Y212750D01*
X569596Y215360D01*
Y219360D01*
X569253Y221971D01*
X568245Y224403D01*
X566642Y226492D01*
X564553Y228095D01*
X563079Y228706D01*
Y263578D01*
X567781Y268281D01*
X569051Y267755D01*
Y231650D01*
X569323Y230284D01*
X570097Y229127D01*
X575778Y223445D01*
X575167Y221971D01*
X574824Y219360D01*
Y215360D01*
X575167Y212750D01*
X576175Y210317D01*
X577778Y208228D01*
X579867Y206625D01*
X582299Y205617D01*
X584910Y205274D01*
X587520Y205617D01*
X589953Y206625D01*
X592042Y208228D01*
X593645Y210317D01*
X594653Y212750D01*
X594996Y215360D01*
Y219360D01*
X594653Y221971D01*
X593731Y224194D01*
X594067Y224842D01*
X594535Y225329D01*
X595376Y225162D01*
X597327Y225550D01*
X598981Y226655D01*
X599040Y226744D01*
X600310Y226359D01*
Y205360D01*
X606741D01*
Y202260D01*
X607013Y200894D01*
X607787Y199737D01*
X634710Y172813D01*
Y162860D01*
X636141D01*
Y130394D01*
X616475Y110727D01*
X615701Y109570D01*
X615429Y108204D01*
Y66790D01*
X615701Y65425D01*
X616475Y64267D01*
X616540Y64202D01*
X616407Y63533D01*
X616795Y61582D01*
X617900Y59928D01*
X619554Y58823D01*
X621505Y58435D01*
X623456Y58823D01*
X625110Y59928D01*
X626215Y61582D01*
X626603Y63533D01*
X626215Y65484D01*
X625110Y67138D01*
X623456Y68243D01*
X622567Y68420D01*
Y106726D01*
X642233Y126393D01*
X643007Y127550D01*
X643279Y128916D01*
Y162860D01*
X644710D01*
Y162860D01*
X645824Y163321D01*
X656669Y152476D01*
X656669Y152476D01*
X657992Y151592D01*
X659553Y151282D01*
X666158D01*
X666837Y150012D01*
X666442Y149421D01*
X666132Y147860D01*
X666132Y147860D01*
Y100349D01*
X658226Y92444D01*
X657342Y91121D01*
X657032Y89560D01*
X657342Y87999D01*
X658226Y86676D01*
X659549Y85792D01*
X661110Y85482D01*
X662671Y85792D01*
X663994Y86676D01*
X673094Y95776D01*
X673978Y97099D01*
X674288Y98660D01*
X674288Y98660D01*
Y145048D01*
X674370Y145103D01*
X675640Y144424D01*
Y7620D01*
X398780D01*
X397413Y6253D01*
X396240Y6739D01*
Y57500D01*
X397500D01*
Y66073D01*
X398673Y66559D01*
X403032Y62201D01*
Y38760D01*
X403342Y37199D01*
X404226Y35876D01*
X405549Y34992D01*
X407110Y34682D01*
X432510D01*
X434071Y34992D01*
X435394Y35876D01*
X436278Y37199D01*
X436588Y38760D01*
X436278Y40321D01*
X435394Y41644D01*
X434071Y42528D01*
X432510Y42838D01*
X411188D01*
Y63421D01*
X422844Y75076D01*
X422844Y75076D01*
X423728Y76399D01*
X424038Y77960D01*
Y97268D01*
X444246D01*
X444246Y97268D01*
X445807Y97578D01*
X447130Y98462D01*
X451594Y102926D01*
X451594Y102926D01*
X452478Y104249D01*
X452788Y105810D01*
Y113171D01*
X454070Y114453D01*
X454771Y114592D01*
X456094Y115476D01*
X460794Y120176D01*
X461678Y121499D01*
X461988Y123060D01*
X461988Y123060D01*
Y141160D01*
Y155123D01*
X463258Y155509D01*
X463501Y155145D01*
X465155Y154040D01*
X467106Y153652D01*
X469057Y154040D01*
X470711Y155145D01*
X471816Y156799D01*
X472038Y157914D01*
X474194Y160070D01*
X475078Y161393D01*
X475388Y162954D01*
X475388Y162954D01*
Y207249D01*
X476658Y207859D01*
X478267Y206625D01*
X480700Y205617D01*
X483310Y205274D01*
X485920Y205617D01*
X488353Y206625D01*
X490442Y208228D01*
X492045Y210317D01*
X493053Y212750D01*
X493396Y215360D01*
Y219360D01*
X493053Y221971D01*
X492045Y224403D01*
X490442Y226492D01*
X488353Y228095D01*
X486879Y228706D01*
Y240871D01*
X488532Y242525D01*
X489305Y243682D01*
X489577Y245048D01*
Y469780D01*
X530025Y510228D01*
X531499Y509617D01*
X534110Y509274D01*
X536721Y509617D01*
X539153Y510625D01*
X541242Y512228D01*
X542845Y514317D01*
X543853Y516749D01*
X544196Y519360D01*
Y520700D01*
X549424D01*
Y519360D01*
X549767Y516749D01*
X550378Y515275D01*
X506187Y471083D01*
X505413Y469926D01*
X505141Y468560D01*
Y228706D01*
X503667Y228095D01*
X501578Y226492D01*
X499975Y224403D01*
X498967Y221971D01*
X498624Y219360D01*
Y215360D01*
X498967Y212750D01*
X499975Y210317D01*
X501578Y208228D01*
X503667Y206625D01*
X506100Y205617D01*
X508710Y205274D01*
X511320Y205617D01*
X513753Y206625D01*
X515842Y208228D01*
X517445Y210317D01*
X518453Y212750D01*
X518796Y215360D01*
Y219360D01*
X518453Y221971D01*
X517445Y224403D01*
X515842Y226492D01*
X513753Y228095D01*
X512279Y228706D01*
Y467082D01*
X555425Y510228D01*
X556899Y509617D01*
X559510Y509274D01*
X562121Y509617D01*
X564553Y510625D01*
X566642Y512228D01*
X568245Y514317D01*
X569253Y516749D01*
X569596Y519360D01*
Y520700D01*
X574824D01*
Y519360D01*
D02*
G37*
G36*
X524024D02*
X524367Y516749D01*
X524978Y515275D01*
X483485Y473782D01*
X482712Y472624D01*
X482440Y471259D01*
Y292057D01*
X481267Y291571D01*
X472710Y300128D01*
Y308360D01*
X454710D01*
Y306084D01*
X450698D01*
X449753Y306716D01*
X447802Y307104D01*
X445851Y306716D01*
X444197Y305611D01*
X443092Y303957D01*
X442704Y302006D01*
X443092Y300055D01*
X444197Y298401D01*
X445851Y297296D01*
X447802Y296908D01*
X449753Y297296D01*
X450698Y297928D01*
X454710D01*
Y294360D01*
X466942D01*
X469769Y291533D01*
X469283Y290360D01*
X454710D01*
Y276360D01*
X459632D01*
Y271360D01*
X454460D01*
Y253360D01*
X460132D01*
Y250860D01*
X456210D01*
Y235860D01*
X460132D01*
Y230597D01*
X458857Y229322D01*
X457910Y229446D01*
X455299Y229103D01*
X452867Y228095D01*
X450778Y226492D01*
X449175Y224403D01*
X448167Y221971D01*
X447824Y219360D01*
Y215360D01*
X448167Y212750D01*
X449175Y210317D01*
X450778Y208228D01*
X452867Y206625D01*
X455299Y205617D01*
X457910Y205274D01*
X460521Y205617D01*
X462953Y206625D01*
X465042Y208228D01*
X465962Y209426D01*
X467232Y208995D01*
Y164643D01*
X466270Y163682D01*
X465155Y163460D01*
X463501Y162355D01*
X463258Y161991D01*
X461988Y162377D01*
Y189960D01*
X461988Y189960D01*
X461678Y191521D01*
X460794Y192844D01*
X460794Y192844D01*
X438161Y215477D01*
X438574Y216095D01*
X438884Y217656D01*
X438884Y217656D01*
Y229767D01*
X448695Y239577D01*
X448771Y239592D01*
X450094Y240476D01*
X450978Y241799D01*
X451288Y243360D01*
X450978Y244921D01*
X450094Y246244D01*
X449341Y246747D01*
X447538Y248549D01*
Y260671D01*
X450178Y263310D01*
X451062Y264633D01*
X451372Y266194D01*
X451372Y266194D01*
Y286512D01*
X451372Y286512D01*
X451062Y288073D01*
X450178Y289396D01*
X450178Y289396D01*
X441542Y298032D01*
X440219Y298916D01*
X438658Y299226D01*
X438658Y299226D01*
X421033D01*
X416666Y303594D01*
X416612Y303866D01*
X415728Y305189D01*
X415728Y305189D01*
X413385Y307532D01*
X412062Y308416D01*
X410501Y308726D01*
X410501Y308726D01*
X393150D01*
X391589Y308416D01*
X390266Y307532D01*
X390266Y307532D01*
X381665Y298931D01*
X381589Y298916D01*
X380266Y298032D01*
X379382Y296709D01*
X379072Y295148D01*
X379382Y293587D01*
X380266Y292264D01*
X381589Y291380D01*
X383150Y291070D01*
X383650D01*
X383650Y291070D01*
X385211Y291380D01*
X386534Y292264D01*
X393574Y299304D01*
X394844Y298778D01*
Y287648D01*
X403275D01*
Y282360D01*
X401710D01*
Y257407D01*
X398687Y254383D01*
X397913Y253226D01*
X397641Y251860D01*
Y248860D01*
X393210D01*
Y248860D01*
X392210D01*
Y248860D01*
X381779D01*
Y256360D01*
X381710Y256705D01*
Y282360D01*
X370779D01*
Y287648D01*
X374150D01*
Y302648D01*
X358150D01*
Y287648D01*
X363641D01*
Y282360D01*
X352710D01*
Y252360D01*
X374641D01*
Y247360D01*
X374913Y245994D01*
X375687Y244837D01*
X376210Y244313D01*
Y233860D01*
X378141D01*
Y228706D01*
X376667Y228095D01*
X374659Y226555D01*
X374490Y226505D01*
X373144Y226710D01*
X372594Y227534D01*
X372594Y227534D01*
X349772Y250355D01*
Y345846D01*
X350404Y346791D01*
X350792Y348742D01*
X350404Y350693D01*
X349299Y352347D01*
X347645Y353452D01*
X345694Y353840D01*
X343743Y353452D01*
X343271Y353136D01*
X342151Y353735D01*
Y365806D01*
X348485Y372141D01*
X349701Y371772D01*
X349786Y371341D01*
X350891Y369688D01*
X352545Y368582D01*
X354496Y368194D01*
X356447Y368582D01*
X358101Y369687D01*
X358973Y368859D01*
X358105Y367560D01*
X357717Y365609D01*
X358105Y363658D01*
X359210Y362004D01*
X360864Y360899D01*
X362815Y360511D01*
X364766Y360899D01*
X366420Y362004D01*
X366687Y362404D01*
X366964Y362363D01*
X367338Y361086D01*
X366233Y359432D01*
X365845Y357481D01*
X366233Y355530D01*
X367338Y353876D01*
X368992Y352771D01*
X370943Y352383D01*
X372894Y352771D01*
X374548Y353876D01*
X374843Y354317D01*
X400812D01*
X402065Y354567D01*
X402142Y354516D01*
X404093Y354128D01*
X406044Y354516D01*
X407697Y355621D01*
X408803Y357275D01*
X409191Y359226D01*
X408803Y361176D01*
X407697Y362830D01*
X406445Y363667D01*
X405997Y364106D01*
X405668Y365305D01*
X405910Y366522D01*
X405522Y368473D01*
X404417Y370127D01*
X402763Y371232D01*
X400812Y371620D01*
X398861Y371232D01*
X397207Y370127D01*
X397183Y370091D01*
X365107D01*
X364766Y370319D01*
X362815Y370707D01*
X360864Y370319D01*
X359210Y369214D01*
X358338Y370042D01*
X359206Y371341D01*
X359594Y373292D01*
X359586Y373335D01*
X434774Y448523D01*
X435715Y447894D01*
X437666Y447506D01*
X439617Y447894D01*
X441271Y448999D01*
X442376Y450653D01*
X442764Y452604D01*
X442376Y454555D01*
X441271Y456209D01*
X439617Y457314D01*
X437666Y457702D01*
X435715Y457314D01*
X434929Y456789D01*
X434120Y457775D01*
X472648Y496303D01*
X488188D01*
X489554Y496575D01*
X490711Y497349D01*
X503894Y510531D01*
X506100Y509617D01*
X508710Y509274D01*
X511320Y509617D01*
X513753Y510625D01*
X515842Y512228D01*
X517445Y514317D01*
X518453Y516749D01*
X518796Y519360D01*
Y520700D01*
X524024D01*
Y519360D01*
D02*
G37*
G36*
X279982Y519462D02*
X280325Y516852D01*
X281333Y514419D01*
X281465Y514248D01*
X279535Y512318D01*
X278761Y511160D01*
X278489Y509794D01*
Y472311D01*
X277350Y471749D01*
X277088Y471950D01*
X275385Y472656D01*
X273558Y472896D01*
X271731Y472656D01*
X270028Y471950D01*
X268566Y470828D01*
X267444Y469366D01*
X266738Y467663D01*
X266645Y466954D01*
X265304Y466499D01*
X249264Y482539D01*
Y489284D01*
X249186Y489678D01*
Y503284D01*
X243346D01*
Y510327D01*
X244311Y510727D01*
X246400Y512330D01*
X248003Y514419D01*
X249011Y516852D01*
X249354Y519462D01*
Y520700D01*
X260590D01*
Y500455D01*
X257302Y497168D01*
X256418Y495845D01*
X256108Y494284D01*
X256418Y492723D01*
X257302Y491400D01*
X258625Y490516D01*
X260186Y490206D01*
X261747Y490516D01*
X263070Y491400D01*
X267552Y495882D01*
X268436Y497205D01*
X268746Y498766D01*
X268746Y498766D01*
Y520700D01*
X279982D01*
Y519462D01*
D02*
G37*
G36*
X107937Y492298D02*
Y475307D01*
X107901Y475283D01*
X106796Y473629D01*
X106672Y473005D01*
X106537Y472897D01*
X105281Y472523D01*
X104059Y473340D01*
X102108Y473728D01*
X101853Y473677D01*
X93709Y481821D01*
X92552Y482595D01*
X91186Y482867D01*
X86080D01*
X85943Y483909D01*
X84935Y486341D01*
X83332Y488430D01*
X81243Y490033D01*
X78811Y491041D01*
X76200Y491384D01*
X73590Y491041D01*
X71157Y490033D01*
X69068Y488430D01*
X67465Y486341D01*
X66457Y483909D01*
X66304Y482744D01*
X66232Y482664D01*
X64947Y482168D01*
X64308Y482595D01*
X62943Y482867D01*
X60680D01*
X60543Y483909D01*
X59535Y486341D01*
X57932Y488430D01*
X55843Y490033D01*
X53411Y491041D01*
X51003Y491357D01*
Y492639D01*
X53411Y492955D01*
X55843Y493963D01*
X57932Y495566D01*
X59535Y497655D01*
X60543Y500088D01*
X60886Y502698D01*
Y506698D01*
X60543Y509309D01*
X59774Y511165D01*
X63962Y515353D01*
X84882D01*
X107937Y492298D01*
D02*
G37*
G36*
X163559Y446837D02*
X164716Y446063D01*
X165077Y445991D01*
X165724Y444673D01*
X165336Y442722D01*
X165724Y440771D01*
X166829Y439117D01*
X166865Y439093D01*
Y430745D01*
X166829Y430721D01*
X165724Y429067D01*
X165336Y427116D01*
X165724Y425165D01*
X166829Y423511D01*
X168483Y422406D01*
X170434Y422018D01*
X172385Y422406D01*
X174039Y423511D01*
X175144Y425165D01*
X175532Y427116D01*
X175144Y429067D01*
X174039Y430721D01*
X174003Y430745D01*
Y439093D01*
X174039Y439117D01*
X175144Y440771D01*
X175532Y442722D01*
X175174Y444521D01*
X175300Y444966D01*
X175742Y445791D01*
X180210D01*
Y434860D01*
X194118D01*
X194644Y433590D01*
X175192Y414138D01*
X158821D01*
X158211Y415408D01*
X159445Y417017D01*
X160453Y419449D01*
X160796Y422060D01*
X160453Y424670D01*
X159445Y427103D01*
X157842Y429192D01*
X155753Y430795D01*
X153321Y431802D01*
X150710Y432146D01*
X146710D01*
X144100Y431802D01*
X141667Y430795D01*
X139578Y429192D01*
X137975Y427103D01*
X136967Y424670D01*
X136624Y422060D01*
X136967Y419449D01*
X137975Y417017D01*
X139209Y415408D01*
X138599Y414138D01*
X105979D01*
X97118Y423000D01*
X95795Y423884D01*
X95676Y423908D01*
X95258Y425286D01*
X99208Y429235D01*
X132054D01*
X133420Y429507D01*
X134577Y430280D01*
X142625Y438328D01*
X144100Y437717D01*
X146710Y437374D01*
X150710D01*
X153321Y437717D01*
X155753Y438725D01*
X157842Y440328D01*
X159445Y442417D01*
X160453Y444849D01*
X160796Y447460D01*
X160730Y447965D01*
X161869Y448526D01*
X163559Y446837D01*
D02*
G37*
G36*
X16892Y517010D02*
X21322D01*
Y515833D01*
X20357Y515433D01*
X18268Y513830D01*
X16665Y511741D01*
X15657Y509309D01*
X15314Y506698D01*
Y502698D01*
X15643Y500200D01*
X10324Y494882D01*
X9440Y493559D01*
X9130Y491998D01*
X9130Y491998D01*
Y467833D01*
X9130Y467833D01*
X9440Y466272D01*
X10324Y464949D01*
X13345Y461929D01*
X13345Y461929D01*
X14668Y461045D01*
X14692Y461040D01*
X17000Y458732D01*
Y449500D01*
X21322D01*
Y445895D01*
X20357Y445495D01*
X18268Y443892D01*
X16665Y441803D01*
X15657Y439370D01*
X15314Y436760D01*
Y432760D01*
X15657Y430149D01*
X16665Y427717D01*
X18268Y425628D01*
X20357Y424025D01*
X22789Y423017D01*
X25400Y422674D01*
X28010Y423017D01*
X30443Y424025D01*
X32532Y425628D01*
X34135Y427717D01*
X35143Y430149D01*
X35486Y432760D01*
Y436760D01*
X35143Y439370D01*
X34135Y441803D01*
X32532Y443892D01*
X30443Y445495D01*
X29478Y445895D01*
Y449500D01*
X33000D01*
Y464500D01*
X22768D01*
X21143Y466125D01*
X21629Y467298D01*
X35400D01*
Y468164D01*
X36670Y468690D01*
X37814Y467546D01*
Y457108D01*
X37814Y457108D01*
X38124Y455547D01*
X39008Y454224D01*
X39116Y454116D01*
X39116Y454116D01*
X40439Y453232D01*
X42000Y452922D01*
X54271D01*
X72122Y435071D01*
Y434760D01*
X72432Y433199D01*
X73316Y431876D01*
X74639Y430992D01*
X76200Y430682D01*
X77761Y430992D01*
X79084Y431876D01*
X79968Y433199D01*
X80278Y434760D01*
Y436760D01*
X79968Y438321D01*
X79084Y439644D01*
X79084Y439644D01*
X58844Y459884D01*
X57521Y460768D01*
X55960Y461078D01*
X55960Y461078D01*
X45970D01*
Y467332D01*
X47026Y468037D01*
X48190Y467555D01*
X50800Y467212D01*
X53411Y467555D01*
X55843Y468563D01*
X57932Y470166D01*
X59535Y472255D01*
X59861Y473043D01*
X61131Y472790D01*
Y469853D01*
X61403Y468488D01*
X62177Y467330D01*
X70512Y458995D01*
X71670Y458221D01*
X73035Y457949D01*
X141152D01*
X141947Y457791D01*
X142202D01*
X142455Y456521D01*
X141667Y456195D01*
X139578Y454592D01*
X137975Y452503D01*
X136967Y450070D01*
X136624Y447460D01*
X136967Y444849D01*
X137578Y443375D01*
X130576Y436372D01*
X97730D01*
X96364Y436101D01*
X95206Y435327D01*
X85211Y425332D01*
X84437Y424174D01*
X84165Y422808D01*
Y419395D01*
X82895Y418827D01*
X81243Y420095D01*
X78811Y421103D01*
X76200Y421446D01*
X73590Y421103D01*
X71157Y420095D01*
X69068Y418492D01*
X67465Y416403D01*
X67201Y415765D01*
X65931Y416017D01*
Y421198D01*
X65659Y422564D01*
X64885Y423721D01*
X59932Y428675D01*
X60543Y430149D01*
X60886Y432760D01*
Y436760D01*
X60543Y439370D01*
X59535Y441803D01*
X57932Y443892D01*
X55843Y445495D01*
X53411Y446503D01*
X50800Y446846D01*
X48190Y446503D01*
X45757Y445495D01*
X43668Y443892D01*
X42065Y441803D01*
X41057Y439370D01*
X40714Y436760D01*
Y432760D01*
X41057Y430149D01*
X42065Y427717D01*
X43668Y425628D01*
X45757Y424025D01*
X48190Y423017D01*
X50597Y422701D01*
Y421419D01*
X48190Y421103D01*
X45757Y420095D01*
X43668Y418492D01*
X42065Y416403D01*
X41057Y413970D01*
X40714Y411360D01*
Y407360D01*
X40932Y405699D01*
X39889Y404430D01*
X39884Y404429D01*
X35400D01*
Y421360D01*
X15400D01*
Y397360D01*
X31555D01*
X31900Y397291D01*
X39558D01*
X42580Y394270D01*
X42054Y393000D01*
X39000D01*
Y370396D01*
X38485Y370077D01*
X37730Y369917D01*
X32732Y374915D01*
X33343Y376390D01*
X33686Y379000D01*
Y383000D01*
X33343Y385611D01*
X32335Y388043D01*
X30732Y390132D01*
X28643Y391735D01*
X26210Y392743D01*
X23600Y393086D01*
X20989Y392743D01*
X18557Y391735D01*
X16468Y390132D01*
X14865Y388043D01*
X13857Y385611D01*
X13514Y383000D01*
Y379000D01*
X13857Y376390D01*
X14865Y373957D01*
X16468Y371868D01*
X18557Y370265D01*
X20989Y369257D01*
X23397Y368941D01*
Y367659D01*
X20989Y367343D01*
X18557Y366335D01*
X16468Y364732D01*
X14865Y362643D01*
X13857Y360210D01*
X13514Y357600D01*
Y353600D01*
X13857Y350989D01*
X14865Y348557D01*
X16468Y346468D01*
X18557Y344865D01*
X20989Y343857D01*
X23600Y343514D01*
X26210Y343857D01*
X28643Y344865D01*
X30732Y346468D01*
X31756Y347803D01*
X31915Y347890D01*
X33377Y347913D01*
X42183Y339107D01*
X43341Y338333D01*
X44707Y338061D01*
X54841D01*
X55080Y337770D01*
X55435Y336860D01*
X55326Y336751D01*
X54442Y335428D01*
X54132Y333867D01*
X54132Y333867D01*
Y324860D01*
X41210D01*
Y314860D01*
Y310819D01*
X40395Y310657D01*
X39237Y309883D01*
X37187Y307833D01*
X36413Y306675D01*
X36141Y305310D01*
Y292860D01*
X29210D01*
Y288929D01*
X24710D01*
Y291360D01*
X8710D01*
Y291360D01*
X7620Y291795D01*
Y520700D01*
X16892D01*
Y517010D01*
D02*
G37*
G36*
X180670Y355320D02*
Y322994D01*
X175826Y318151D01*
X174942Y316828D01*
X174632Y315267D01*
X174632Y315267D01*
Y292860D01*
X149960D01*
Y287527D01*
X148690Y286848D01*
X148271Y287128D01*
X146710Y287438D01*
X145149Y287128D01*
X144730Y286848D01*
X143460Y287527D01*
Y292860D01*
X118210D01*
Y295250D01*
X118525Y295313D01*
X119683Y296087D01*
X126094Y302498D01*
X126868Y303656D01*
X127140Y305021D01*
Y347006D01*
X127505Y347308D01*
X127872Y347288D01*
X129027Y346918D01*
X129920Y345582D01*
X131574Y344477D01*
X133525Y344089D01*
X135476Y344477D01*
X137129Y345582D01*
X138235Y347236D01*
X138623Y349187D01*
X138235Y351137D01*
X137129Y352791D01*
X135635Y353790D01*
X134710Y354715D01*
Y357860D01*
X180670D01*
Y355320D01*
D02*
G37*
G36*
X64851Y306694D02*
X66176Y306430D01*
X66893Y306035D01*
X67210Y305092D01*
Y295860D01*
X71141D01*
Y292860D01*
X67710D01*
Y281791D01*
X58164D01*
X57485Y283061D01*
X57978Y283799D01*
X58288Y285360D01*
Y292599D01*
X59558Y293278D01*
X60149Y292883D01*
X61710Y292573D01*
X63271Y292883D01*
X64594Y293767D01*
X65478Y295091D01*
X65788Y296651D01*
X65478Y298212D01*
X64594Y299535D01*
X62288Y301840D01*
Y301860D01*
X62288Y301860D01*
X62288Y301860D01*
Y307048D01*
X63558Y307558D01*
X64851Y306694D01*
D02*
G37*
G36*
X595825Y367161D02*
X604398D01*
X604884Y365987D01*
X600696Y361799D01*
X599812Y360476D01*
X599502Y358916D01*
X599502Y358915D01*
Y321919D01*
X597826Y320244D01*
X596942Y318921D01*
X596632Y317360D01*
X596942Y315799D01*
X597826Y314476D01*
X619746Y292557D01*
Y258826D01*
X619363Y258360D01*
X615007D01*
X609041Y264326D01*
X610755Y266560D01*
X611914Y269358D01*
X612309Y272360D01*
X611914Y275362D01*
X610755Y278160D01*
X608912Y280562D01*
X606510Y282405D01*
X603712Y283564D01*
X600710Y283959D01*
X597708Y283564D01*
X594910Y282405D01*
X592558Y280600D01*
X592107Y280670D01*
X591288Y280948D01*
Y321263D01*
X592494Y322468D01*
X592494Y322468D01*
X593378Y323791D01*
X593688Y325352D01*
Y343453D01*
X593378Y345014D01*
X592682Y346055D01*
Y351292D01*
X593478D01*
Y367292D01*
X593478D01*
Y368292D01*
X593478D01*
Y371829D01*
X595825D01*
Y367161D01*
D02*
G37*
G36*
X162065Y245718D02*
X162172Y245090D01*
X157826Y240744D01*
X156942Y239421D01*
X156632Y237860D01*
X156632Y237860D01*
Y192049D01*
X156021Y191438D01*
X152922D01*
Y205994D01*
X152612Y207555D01*
X151728Y208878D01*
X150405Y209762D01*
X148844Y210072D01*
X147283Y209762D01*
X145960Y208878D01*
X145076Y207555D01*
X144766Y205994D01*
Y190919D01*
X144090Y190244D01*
X143206Y188921D01*
X142896Y187360D01*
X143206Y185799D01*
X144090Y184476D01*
X145413Y183592D01*
X146974Y183282D01*
X146974Y183282D01*
X153632D01*
Y149359D01*
X149088D01*
Y165903D01*
X148778Y167464D01*
X147894Y168787D01*
X147894Y168787D01*
X140288Y176392D01*
Y202535D01*
X141456Y203703D01*
X142340Y205026D01*
X142650Y206587D01*
X142650Y206587D01*
Y234419D01*
X154513Y246282D01*
X157210D01*
X157210Y246282D01*
X157604Y246360D01*
X161711D01*
X162065Y245718D01*
D02*
G37*
G36*
X186710Y259360D02*
X189632D01*
Y255860D01*
X186710D01*
Y242630D01*
X185537Y242144D01*
X184156Y243525D01*
X183978Y244421D01*
X183094Y245744D01*
X179594Y249244D01*
X178271Y250128D01*
X176710Y250438D01*
X175149Y250128D01*
X173826Y249244D01*
X172942Y247921D01*
X172927Y247845D01*
X171521Y246438D01*
X168210D01*
Y254708D01*
X169210Y255360D01*
X184210D01*
Y261146D01*
X186710D01*
Y259360D01*
D02*
G37*
G36*
X177196Y239014D02*
X177326Y238819D01*
X184169Y231976D01*
X184642Y231660D01*
X191632Y224671D01*
Y205102D01*
X191632Y205102D01*
X191942Y203541D01*
X192826Y202218D01*
X199725Y195319D01*
X201048Y194435D01*
X202609Y194125D01*
X213550D01*
X214710Y193860D01*
X214710Y192855D01*
Y178860D01*
X225641D01*
Y171860D01*
X220710D01*
Y156860D01*
X236710D01*
Y160791D01*
X241710D01*
Y155860D01*
X257710D01*
Y171860D01*
X241710D01*
Y167929D01*
X236710D01*
Y171860D01*
X232779D01*
Y178860D01*
X234210D01*
Y183609D01*
X235480Y183994D01*
X235826Y183476D01*
X237149Y182592D01*
X238710Y182282D01*
X240271Y182592D01*
X241594Y183476D01*
X242478Y184799D01*
X242788Y186360D01*
Y198203D01*
X242478Y199764D01*
X241594Y201087D01*
X238994Y203687D01*
X239480Y204860D01*
X243710D01*
Y207537D01*
X244980Y208063D01*
X246754Y206289D01*
Y195336D01*
X260041D01*
Y125518D01*
X260313Y124152D01*
X260956Y123190D01*
X260753Y122497D01*
X260365Y121920D01*
X258210D01*
Y130860D01*
X253778D01*
Y134860D01*
X257710D01*
Y150860D01*
X241710D01*
Y134860D01*
X246641D01*
Y130860D01*
X242210D01*
Y130860D01*
X241210D01*
Y130860D01*
X237288D01*
Y134041D01*
X237288Y134041D01*
X236978Y135602D01*
X236094Y136925D01*
X235952Y137066D01*
X235596Y138857D01*
X234491Y140511D01*
X232837Y141616D01*
X230886Y142004D01*
X228935Y141616D01*
X227281Y140511D01*
X226176Y138857D01*
X225788Y136906D01*
X226176Y134955D01*
X227281Y133301D01*
X228935Y132196D01*
X229132Y132157D01*
Y130860D01*
X225210D01*
X225210Y130860D01*
Y130860D01*
X224110Y131311D01*
X218404Y137017D01*
X217742Y137459D01*
X216962Y137614D01*
X216273Y138054D01*
X215788Y138608D01*
Y164360D01*
X215478Y165921D01*
X214594Y167244D01*
X213271Y168128D01*
X211710Y168438D01*
X211210D01*
X211210Y168438D01*
X209649Y168128D01*
X208326Y167244D01*
X208326Y167244D01*
X202826Y161744D01*
X201942Y160421D01*
X201632Y158860D01*
X201632Y158860D01*
Y153502D01*
X200413Y152924D01*
X177288Y176049D01*
Y178360D01*
X177288Y178360D01*
X176978Y179921D01*
X176094Y181244D01*
X176094Y181244D01*
X167094Y190244D01*
X165771Y191128D01*
X164788Y191323D01*
Y236171D01*
X166899Y238282D01*
X173210D01*
X173210Y238282D01*
X174771Y238592D01*
X175773Y239262D01*
X177196Y239014D01*
D02*
G37*
G36*
X265663Y247925D02*
X261087Y243348D01*
X260313Y242191D01*
X260041Y240825D01*
Y238589D01*
X258771Y238203D01*
X258367Y238809D01*
X256713Y239914D01*
X254762Y240302D01*
X252811Y239914D01*
X251157Y238809D01*
X250052Y237155D01*
X249664Y235204D01*
X250052Y233253D01*
X251157Y231599D01*
X251193Y231575D01*
Y228336D01*
X246754D01*
Y216726D01*
X245772Y215920D01*
X245730Y215929D01*
X243710D01*
Y219860D01*
X236417D01*
X236288Y220017D01*
Y221171D01*
X237695Y222577D01*
X237771Y222592D01*
X239094Y223476D01*
X239978Y224799D01*
X240288Y226360D01*
Y245961D01*
X243426Y249098D01*
X265177D01*
X265663Y247925D01*
D02*
G37*
G36*
X617041Y364293D02*
Y352184D01*
X617313Y350819D01*
X618087Y349661D01*
X649141Y318606D01*
Y255860D01*
X645210D01*
Y240130D01*
X645210Y239860D01*
X645210D01*
Y238860D01*
X645210D01*
Y234938D01*
X643210D01*
Y238860D01*
X643210D01*
Y239860D01*
X643210D01*
Y255860D01*
X628210D01*
Y251429D01*
X621938D01*
X619960Y253407D01*
Y255186D01*
X620227Y255392D01*
X621230Y255749D01*
X622263Y255058D01*
X623824Y254748D01*
X625385Y255058D01*
X626708Y255942D01*
X627592Y257265D01*
X627902Y258826D01*
Y294246D01*
X627592Y295807D01*
X626708Y297130D01*
X626708Y297130D01*
X606475Y317363D01*
X607348Y318669D01*
X607659Y320230D01*
X607659Y320230D01*
Y357226D01*
X611771Y361339D01*
X612043Y361393D01*
X613366Y362277D01*
X615868Y364779D01*
X617041Y364293D01*
D02*
G37*
G36*
X145852Y266546D02*
X146593Y265437D01*
X148247Y264331D01*
X150198Y263943D01*
X152149Y264331D01*
X153674Y265351D01*
X155033Y265167D01*
X155399Y264619D01*
X156880Y263630D01*
X156858Y262930D01*
X156668Y262360D01*
X153210D01*
Y255592D01*
X152824Y254438D01*
X151263Y254128D01*
X149940Y253244D01*
X135688Y238992D01*
X134804Y237669D01*
X134494Y236108D01*
X134494Y236108D01*
Y217308D01*
X133224Y216605D01*
X131572Y216934D01*
X131529Y216925D01*
X130285Y218169D01*
X129128Y218943D01*
X127762Y219215D01*
X122210D01*
Y223360D01*
X106210D01*
Y207360D01*
X122210D01*
Y212077D01*
X125230D01*
X126474Y211836D01*
X126862Y209885D01*
X127229Y209335D01*
X126645Y207924D01*
X126573Y207910D01*
X124919Y206805D01*
X123814Y205151D01*
X123513Y203636D01*
X122980Y203290D01*
X121710Y203360D01*
Y203360D01*
X105710D01*
Y187360D01*
X121710D01*
Y193560D01*
X122453D01*
X123818Y193832D01*
X124976Y194605D01*
X128481Y198111D01*
X128524Y198102D01*
X130475Y198490D01*
X130862Y198748D01*
X132132Y198070D01*
Y174703D01*
X132132Y174703D01*
X132442Y173142D01*
X133326Y171819D01*
X140932Y164214D01*
Y149359D01*
X124710D01*
X123930Y149204D01*
X123268Y148762D01*
X122826Y148100D01*
X122671Y147320D01*
Y140899D01*
X108749D01*
Y143282D01*
X114710D01*
X114710Y143282D01*
X116271Y143592D01*
X117594Y144476D01*
X118594Y145476D01*
X119478Y146799D01*
X119788Y148360D01*
X119478Y149921D01*
X118594Y151244D01*
X118594Y151244D01*
X114788Y155049D01*
Y158709D01*
X114799Y158733D01*
X116058Y159653D01*
X116840Y159498D01*
X118401Y159808D01*
X119724Y160692D01*
X120608Y162015D01*
X120918Y163576D01*
X120608Y165137D01*
X119724Y166460D01*
X119341Y166842D01*
X118018Y167727D01*
X116457Y168037D01*
X116457Y168037D01*
X113288D01*
Y176360D01*
X112978Y177921D01*
X112094Y179244D01*
X110771Y180128D01*
X109210Y180438D01*
X107649Y180128D01*
X106326Y179244D01*
X105442Y177921D01*
X105132Y176360D01*
Y164110D01*
X105132Y164110D01*
X105442Y162549D01*
X106326Y161226D01*
X106477Y161075D01*
X106477Y161075D01*
X106632Y160921D01*
Y153360D01*
X106632Y153360D01*
X106761Y152708D01*
X105968Y151547D01*
X105772Y151438D01*
X73710D01*
X72149Y151128D01*
X70826Y150244D01*
X69942Y148921D01*
X69632Y147360D01*
Y128360D01*
X69632Y128360D01*
X69942Y126799D01*
X70826Y125476D01*
X73209Y123093D01*
X72723Y121920D01*
X63918D01*
X60538Y125299D01*
Y168766D01*
X61808Y169151D01*
X61889Y169031D01*
X65803Y165117D01*
X66960Y164343D01*
X68326Y164071D01*
X82990D01*
X84356Y164343D01*
X85513Y165117D01*
X89257Y168860D01*
X100210D01*
Y183860D01*
X87317D01*
X86560Y185130D01*
X86788Y186276D01*
X86768Y186378D01*
X87574Y187360D01*
X100710D01*
Y203360D01*
X84710D01*
Y198929D01*
X81210D01*
Y204360D01*
X70757D01*
X69733Y205383D01*
X69660Y205432D01*
X69325Y207157D01*
X69462Y207360D01*
X81210D01*
Y211791D01*
X85210D01*
Y207360D01*
X101210D01*
Y223360D01*
X85210D01*
Y218929D01*
X81210D01*
Y223360D01*
X66210D01*
Y218929D01*
X63710D01*
X62344Y218657D01*
X61187Y217883D01*
X57730Y214427D01*
X56460Y214953D01*
Y219860D01*
X48104D01*
X47710Y219938D01*
X39803D01*
X39409Y219860D01*
X38960D01*
Y219771D01*
X38242Y219628D01*
X36919Y218744D01*
X36919Y218744D01*
X34076Y215901D01*
X33192Y214578D01*
X32882Y213017D01*
X32882Y213017D01*
Y185203D01*
X32882Y185203D01*
X33192Y183642D01*
X34076Y182319D01*
X36419Y179976D01*
X36419Y179976D01*
X37742Y179092D01*
X39303Y178782D01*
X52382D01*
Y123610D01*
X52382Y123610D01*
X52465Y123190D01*
X51510Y121948D01*
X51423Y121920D01*
X7620D01*
Y253925D01*
X8710Y254360D01*
Y254360D01*
X24710D01*
Y241990D01*
X25588Y241112D01*
X25102Y239938D01*
X20960D01*
X19399Y239628D01*
X18076Y238744D01*
X17192Y237421D01*
X16882Y235860D01*
Y214860D01*
Y190860D01*
Y169860D01*
X16882Y169860D01*
X17192Y168299D01*
X18076Y166976D01*
X18632Y166421D01*
Y136360D01*
X18942Y134799D01*
X19826Y133476D01*
X21149Y132592D01*
X22710Y132282D01*
X24271Y132592D01*
X25594Y133476D01*
X26478Y134799D01*
X26788Y136360D01*
Y165782D01*
X44460D01*
X44460Y165782D01*
X46021Y166092D01*
X47344Y166976D01*
X48344Y167976D01*
X49228Y169299D01*
X49538Y170860D01*
X49228Y172421D01*
X48344Y173744D01*
X47021Y174628D01*
X45460Y174938D01*
X43899Y174628D01*
X42867Y173938D01*
X25038D01*
Y190860D01*
Y214860D01*
Y231782D01*
X68521D01*
X70826Y229476D01*
X72149Y228592D01*
X73710Y228282D01*
X73710Y228282D01*
X104102D01*
X104102Y228282D01*
X105663Y228592D01*
X106986Y229476D01*
X144343Y266833D01*
X145852Y266546D01*
D02*
G37*
G36*
X232132Y247650D02*
X232132Y247650D01*
X232132Y247650D01*
Y228549D01*
X229326Y225744D01*
X228480Y224478D01*
X228385Y224460D01*
X227210Y224874D01*
Y233860D01*
X223288D01*
Y258860D01*
X223086Y259876D01*
X223904Y261146D01*
X232132D01*
Y247650D01*
D02*
G37*
G36*
X204710Y259360D02*
X212942D01*
X215132Y257171D01*
Y233860D01*
X211210D01*
Y218860D01*
X214710D01*
Y212938D01*
X211941D01*
X210380Y212628D01*
X209942Y212335D01*
X209804Y212362D01*
X207853Y211974D01*
X206199Y210869D01*
X205094Y209215D01*
X204706Y207264D01*
X205094Y205313D01*
X206199Y203659D01*
X206360Y203552D01*
X205975Y202281D01*
X204298D01*
X199788Y206791D01*
Y226360D01*
X199788Y226360D01*
X199478Y227921D01*
X198594Y229244D01*
X192151Y235687D01*
X192637Y236860D01*
X204710D01*
Y255860D01*
X197788D01*
Y259360D01*
X200710D01*
Y261146D01*
X204710D01*
Y259360D01*
D02*
G37*
G36*
X416460Y292264D02*
X416460Y292264D01*
X417783Y291380D01*
X419344Y291070D01*
X436969D01*
X443216Y284823D01*
Y267883D01*
X440576Y265244D01*
X439692Y263921D01*
X439382Y262360D01*
X439382Y262360D01*
Y246860D01*
X439382Y246860D01*
X439692Y245299D01*
X440576Y243976D01*
X441067Y243485D01*
X431922Y234340D01*
X431038Y233017D01*
X430728Y231456D01*
X430728Y231456D01*
Y219345D01*
X429626Y218244D01*
X428742Y216921D01*
X428432Y215360D01*
X428742Y213799D01*
X429626Y212476D01*
X453832Y188271D01*
Y141160D01*
Y124749D01*
X451349Y122267D01*
X450649Y122128D01*
X449326Y121244D01*
X445826Y117744D01*
X444980Y116477D01*
X444885Y116460D01*
X443710Y116874D01*
Y125860D01*
X436588D01*
Y130025D01*
X437553Y130425D01*
X439642Y132028D01*
X441245Y134117D01*
X442253Y136550D01*
X442596Y139160D01*
Y143160D01*
X442253Y145771D01*
X441245Y148203D01*
X439642Y150292D01*
X437553Y151895D01*
X435121Y152903D01*
X432510Y153246D01*
X429899Y152903D01*
X428935Y152503D01*
X375578Y205860D01*
X376417Y206817D01*
X376667Y206625D01*
X379100Y205617D01*
X381710Y205274D01*
X384320Y205617D01*
X386753Y206625D01*
X388842Y208228D01*
X390445Y210317D01*
X391453Y212750D01*
X391796Y215360D01*
Y219360D01*
X391453Y221971D01*
X390445Y224403D01*
X388842Y226492D01*
X386753Y228095D01*
X385279Y228706D01*
Y233860D01*
X392210D01*
Y233860D01*
X393210D01*
Y233860D01*
X403541D01*
Y228706D01*
X402067Y228095D01*
X399978Y226492D01*
X398375Y224403D01*
X397367Y221971D01*
X397024Y219360D01*
Y215360D01*
X397367Y212750D01*
X398375Y210317D01*
X399978Y208228D01*
X402067Y206625D01*
X404500Y205617D01*
X407110Y205274D01*
X409720Y205617D01*
X412153Y206625D01*
X414242Y208228D01*
X415845Y210317D01*
X416853Y212750D01*
X417196Y215360D01*
Y219360D01*
X416853Y221971D01*
X415845Y224403D01*
X414242Y226492D01*
X412153Y228095D01*
X410679Y228706D01*
Y235960D01*
X410407Y237326D01*
X409633Y238483D01*
X409210Y238907D01*
Y248860D01*
X404779D01*
Y250382D01*
X406757Y252360D01*
X430710D01*
Y282360D01*
X410413D01*
Y287648D01*
X410844D01*
Y296221D01*
X412017Y296707D01*
X416460Y292264D01*
D02*
G37*
G36*
X351832Y229704D02*
X351534Y228206D01*
X351267Y228095D01*
X349178Y226492D01*
X347575Y224403D01*
X346567Y221971D01*
X346224Y219360D01*
Y215360D01*
X346567Y212750D01*
X347575Y210317D01*
X349178Y208228D01*
X351267Y206625D01*
X353699Y205617D01*
X356310Y205274D01*
X358921Y205617D01*
X361353Y206625D01*
X363442Y208228D01*
X364362Y209426D01*
X365632Y208995D01*
Y205960D01*
X365632Y205960D01*
X365942Y204399D01*
X366826Y203076D01*
X423167Y146735D01*
X422767Y145771D01*
X422424Y143160D01*
Y139160D01*
X422767Y136550D01*
X423775Y134117D01*
X425378Y132028D01*
X427467Y130425D01*
X428432Y130025D01*
Y125860D01*
X427710D01*
Y110860D01*
X443710D01*
X444632Y110019D01*
Y107499D01*
X442557Y105424D01*
X419788D01*
Y118360D01*
X419478Y119921D01*
X418594Y121244D01*
X417271Y122128D01*
X415710Y122438D01*
X414149Y122128D01*
X412826Y121244D01*
X411942Y119921D01*
X411632Y118360D01*
Y103610D01*
X411632Y103610D01*
X411942Y102049D01*
X412826Y100726D01*
X415090Y98462D01*
X415090Y98462D01*
X415882Y97933D01*
Y79649D01*
X406500Y70268D01*
X403322Y73446D01*
X403268Y73718D01*
X402384Y75041D01*
X402384Y75041D01*
X400041Y77384D01*
X398718Y78268D01*
X397157Y78578D01*
X397157Y78578D01*
X381500D01*
X379939Y78268D01*
X378616Y77384D01*
X378616Y77384D01*
X371500Y70268D01*
X368493Y73274D01*
X368439Y73546D01*
X367555Y74869D01*
X367555Y74869D01*
X360547Y81878D01*
X359224Y82762D01*
X357663Y83072D01*
X357663Y83072D01*
X315214D01*
X313653Y82762D01*
X312330Y81878D01*
X312330Y81878D01*
X311531Y81078D01*
X301500D01*
Y88732D01*
X303049Y90282D01*
X354710D01*
Y85360D01*
X368710D01*
Y103360D01*
X354710D01*
Y98438D01*
X301360D01*
X301360Y98438D01*
X299799Y98128D01*
X298476Y97244D01*
X298476Y97244D01*
X296998Y95765D01*
X295728Y96291D01*
Y97225D01*
X295417Y98786D01*
X294533Y100109D01*
X294533Y100109D01*
X292190Y102452D01*
X290867Y103336D01*
X289306Y103646D01*
X289306Y103646D01*
X271911D01*
X271911Y103646D01*
X270350Y103336D01*
X269027Y102452D01*
X269027Y102452D01*
X265333Y98758D01*
X264160Y99244D01*
Y118125D01*
X265430Y118651D01*
X271245Y112837D01*
X272402Y112063D01*
X273768Y111791D01*
X348710D01*
Y107360D01*
X364710D01*
Y123360D01*
X348710D01*
Y118929D01*
X342674D01*
X342289Y120199D01*
X342609Y120413D01*
X352225Y130028D01*
X353699Y129417D01*
X356310Y129074D01*
X358921Y129417D01*
X361353Y130425D01*
X363442Y132028D01*
X365045Y134117D01*
X366053Y136550D01*
X366396Y139160D01*
Y143160D01*
X366053Y145771D01*
X365045Y148203D01*
X363442Y150292D01*
X361353Y151895D01*
X358921Y152903D01*
X356310Y153246D01*
X353699Y152903D01*
X351267Y151895D01*
X349178Y150292D01*
X347575Y148203D01*
X346567Y145771D01*
X346224Y143160D01*
Y139160D01*
X346567Y136550D01*
X347178Y135075D01*
X338608Y126505D01*
X276285D01*
X274207Y128583D01*
X274325Y129673D01*
X275453Y130265D01*
X277500Y129417D01*
X280110Y129074D01*
X282721Y129417D01*
X285153Y130425D01*
X287242Y132028D01*
X288845Y134117D01*
X289853Y136550D01*
X290196Y139160D01*
Y143160D01*
X289853Y145771D01*
X289242Y147245D01*
X296924Y154927D01*
X300663D01*
X300687Y154891D01*
X302101Y153947D01*
X302174Y153038D01*
X302067Y152558D01*
X300467Y151895D01*
X298378Y150292D01*
X296775Y148203D01*
X295767Y145771D01*
X295424Y143160D01*
Y139160D01*
X295767Y136550D01*
X296775Y134117D01*
X298378Y132028D01*
X300467Y130425D01*
X302899Y129417D01*
X305510Y129074D01*
X308120Y129417D01*
X310553Y130425D01*
X312642Y132028D01*
X314245Y134117D01*
X315253Y136550D01*
X315596Y139160D01*
Y143160D01*
X315253Y145771D01*
X314245Y148203D01*
X312642Y150292D01*
X310553Y151895D01*
X308120Y152903D01*
X307357Y153003D01*
X307049Y154325D01*
X307897Y154891D01*
X309002Y156545D01*
X309281Y157947D01*
X310601Y158422D01*
X321778Y147245D01*
X321167Y145771D01*
X320824Y143160D01*
Y139160D01*
X321167Y136550D01*
X322175Y134117D01*
X323778Y132028D01*
X325867Y130425D01*
X328299Y129417D01*
X330910Y129074D01*
X333521Y129417D01*
X335953Y130425D01*
X338042Y132028D01*
X339645Y134117D01*
X340653Y136550D01*
X340996Y139160D01*
Y143160D01*
X340653Y145771D01*
X339645Y148203D01*
X338042Y150292D01*
X335953Y151895D01*
X333521Y152903D01*
X330910Y153246D01*
X328299Y152903D01*
X326825Y152292D01*
X296431Y182686D01*
Y208680D01*
X297701Y209111D01*
X298378Y208228D01*
X300467Y206625D01*
X302899Y205617D01*
X305510Y205274D01*
X308120Y205617D01*
X310553Y206625D01*
X312642Y208228D01*
X314245Y210317D01*
X315253Y212750D01*
X315596Y215360D01*
Y219360D01*
X315253Y221971D01*
X314642Y223445D01*
X323429Y232233D01*
X324777Y231963D01*
X325455Y231510D01*
X327406Y231122D01*
X327688Y231178D01*
X328670Y230373D01*
Y229151D01*
X328299Y229103D01*
X325867Y228095D01*
X323778Y226492D01*
X322175Y224403D01*
X321167Y221971D01*
X320824Y219360D01*
Y215360D01*
X321167Y212750D01*
X322175Y210317D01*
X323778Y208228D01*
X325867Y206625D01*
X328299Y205617D01*
X330910Y205274D01*
X333521Y205617D01*
X335953Y206625D01*
X338042Y208228D01*
X339645Y210317D01*
X340653Y212750D01*
X340996Y215360D01*
Y219360D01*
X340653Y221971D01*
X339645Y224403D01*
X338042Y226492D01*
X335953Y228095D01*
X335807Y228155D01*
Y230382D01*
X336429Y231004D01*
X337203Y232162D01*
X337475Y233528D01*
Y242264D01*
X338745Y242791D01*
X351832Y229704D01*
D02*
G37*
G36*
X621268Y231075D02*
X622922Y229970D01*
X624375Y229681D01*
X626079Y227976D01*
X627402Y227092D01*
X628210Y226931D01*
Y222860D01*
X643210D01*
Y226782D01*
X645210D01*
Y222860D01*
X659141D01*
Y219860D01*
X645210D01*
Y206110D01*
X643940Y204942D01*
X643788Y204955D01*
Y208860D01*
X643478Y210421D01*
X642594Y211744D01*
X642594Y211744D01*
X639094Y215244D01*
X637771Y216128D01*
X636210Y216438D01*
X634649Y216128D01*
X633326Y215244D01*
X632442Y213921D01*
X632132Y212360D01*
X632442Y210799D01*
X633326Y209476D01*
X635632Y207171D01*
Y196360D01*
Y184517D01*
X635632Y184517D01*
X635814Y183598D01*
X634644Y182973D01*
X613879Y203738D01*
Y205360D01*
X620310D01*
Y229360D01*
X613879D01*
Y231860D01*
X619210D01*
Y231869D01*
X620480Y232255D01*
X621268Y231075D01*
D02*
G37*
G36*
X169132Y176671D02*
Y174360D01*
X169132Y174360D01*
X169442Y172799D01*
X170326Y171476D01*
X191173Y150629D01*
X190647Y149359D01*
X161788D01*
Y182218D01*
X163058Y182744D01*
X169132Y176671D01*
D02*
G37*
G36*
X140932Y125360D02*
Y119049D01*
X137562Y115679D01*
X136388Y116165D01*
Y126860D01*
X136388Y126860D01*
X136078Y128421D01*
X135194Y129744D01*
X135194Y129744D01*
X134194Y130744D01*
X132871Y131628D01*
X131310Y131938D01*
X131310Y131938D01*
X115710D01*
X114149Y131628D01*
X112826Y130744D01*
X111942Y129421D01*
X111632Y127860D01*
X111942Y126299D01*
X112826Y124976D01*
X114149Y124092D01*
X115710Y123782D01*
X128232D01*
Y109896D01*
X123826Y105491D01*
X122942Y104168D01*
X122632Y102607D01*
X122632Y102607D01*
Y99060D01*
X122632Y99060D01*
X122632Y99060D01*
Y97049D01*
X86980Y61398D01*
X85710Y61924D01*
Y82350D01*
X86928Y82592D01*
X88251Y83476D01*
X90594Y85819D01*
X90594Y85819D01*
X91478Y87142D01*
X91788Y88703D01*
Y114300D01*
X104140D01*
Y143282D01*
X106710D01*
Y138860D01*
X124710D01*
Y147320D01*
X140932D01*
Y125360D01*
D02*
G37*
G36*
X102101Y121920D02*
X89574D01*
X88251Y123244D01*
X86928Y124128D01*
X86669Y124179D01*
X85367Y124438D01*
X85367Y124438D01*
X83399D01*
X77788Y130049D01*
Y143282D01*
X102101D01*
Y121920D01*
D02*
G37*
G36*
X61710Y112592D02*
Y106438D01*
X39210D01*
Y108860D01*
X8210D01*
X7620Y109886D01*
Y114300D01*
X22239D01*
X22710Y114254D01*
X23181Y114300D01*
X60002D01*
X61710Y112592D01*
D02*
G37*
G36*
X191710Y136860D02*
X207632D01*
Y135360D01*
X191710D01*
Y129938D01*
X188110D01*
Y138360D01*
X178110D01*
Y112360D01*
X179032D01*
Y109360D01*
X174488D01*
Y112360D01*
X175410D01*
Y138360D01*
X165410D01*
Y112360D01*
X166332D01*
Y106460D01*
X166332Y106460D01*
X166642Y104899D01*
X167510Y103600D01*
Y89387D01*
X166337Y88901D01*
X161926Y93311D01*
X162196Y95360D01*
Y99360D01*
X161853Y101971D01*
X160845Y104403D01*
X159242Y106492D01*
X157153Y108095D01*
X154720Y109103D01*
X152110Y109446D01*
X149500Y109103D01*
X147067Y108095D01*
X144978Y106492D01*
X143375Y104403D01*
X142367Y101971D01*
X142024Y99360D01*
Y95360D01*
X142367Y92750D01*
X143375Y90317D01*
X144978Y88228D01*
X146069Y87390D01*
X145638Y86120D01*
X141717D01*
X130788Y97049D01*
Y97371D01*
X147894Y114476D01*
X147894Y114476D01*
X148778Y115799D01*
X149088Y117360D01*
Y125360D01*
Y147320D01*
X153632D01*
Y138360D01*
X152710D01*
Y112360D01*
X162710D01*
Y138360D01*
X161788D01*
Y147320D01*
X191710D01*
Y136860D01*
D02*
G37*
G36*
X225210Y127327D02*
Y115860D01*
X231380D01*
Y75692D01*
X231380Y75692D01*
X231690Y74131D01*
X232213Y73348D01*
X231554Y72078D01*
X228329D01*
X222340Y78068D01*
X221017Y78952D01*
X219456Y79262D01*
X219456Y79262D01*
X199375D01*
X187510Y91128D01*
Y109360D01*
X187188D01*
Y112360D01*
X188110D01*
Y121782D01*
X191710D01*
Y116360D01*
X207632D01*
Y111860D01*
X194210D01*
Y88860D01*
X217210D01*
Y111860D01*
X215788D01*
Y135089D01*
X216962Y135575D01*
X225210Y127327D01*
D02*
G37*
G36*
X242508Y92158D02*
X244910Y90315D01*
X247708Y89156D01*
X250710Y88761D01*
X253712Y89156D01*
X256510Y90315D01*
X258912Y92158D01*
X258962Y92224D01*
X260230Y92307D01*
X262422Y90115D01*
Y80224D01*
X239536D01*
Y94238D01*
X240806Y94376D01*
X242508Y92158D01*
D02*
G37*
G36*
X285500Y94500D02*
Y79500D01*
X291166D01*
X291652Y78327D01*
X290866Y77541D01*
X290550Y77068D01*
X284750Y71268D01*
X280578Y75439D01*
Y87000D01*
X280268Y88561D01*
X279384Y89884D01*
X278061Y90768D01*
X276500Y91078D01*
X274939Y90768D01*
X273616Y89884D01*
X272732Y88561D01*
X272422Y87000D01*
Y76213D01*
X271152Y75534D01*
X271032Y75614D01*
Y75692D01*
X271032Y75692D01*
X270722Y77253D01*
X270578Y77468D01*
Y92467D01*
X273600Y95490D01*
X284823D01*
X285500Y94500D01*
D02*
G37*
G36*
X393700Y68200D02*
X392430Y67815D01*
X392384Y67884D01*
X391061Y68768D01*
X389500Y69078D01*
X387939Y68768D01*
X386616Y67884D01*
X385732Y66561D01*
X385422Y65000D01*
Y53486D01*
X378826Y46891D01*
X377942Y45568D01*
X377632Y44007D01*
X377632Y44007D01*
Y23481D01*
X363309Y9158D01*
X307346D01*
X306640Y10428D01*
X307022Y11043D01*
X308275Y11292D01*
X309929Y12397D01*
X311034Y14051D01*
X311422Y16002D01*
X311093Y17654D01*
X311796Y18924D01*
X342552D01*
X342552Y18924D01*
X344113Y19234D01*
X345436Y20118D01*
X352735Y27417D01*
X353699Y27017D01*
X356310Y26674D01*
X358921Y27017D01*
X361353Y28025D01*
X363442Y29628D01*
X365045Y31717D01*
X366053Y34149D01*
X366396Y36760D01*
Y40760D01*
X366053Y43370D01*
X365045Y45803D01*
X363442Y47892D01*
X361353Y49495D01*
X360388Y49895D01*
Y57500D01*
X362500D01*
X362500Y57500D01*
X363500D01*
Y57500D01*
X363770Y57500D01*
X379500D01*
Y66732D01*
X383189Y70422D01*
X393700D01*
Y68200D01*
D02*
G37*
G36*
X194802Y72300D02*
X194802Y72300D01*
X196125Y71416D01*
X197686Y71106D01*
X197686Y71106D01*
X217767D01*
X223595Y65277D01*
X223748Y64801D01*
X223718Y63615D01*
X222885Y62530D01*
X222223Y60931D01*
X221337Y60508D01*
X220973Y60385D01*
X219546Y61812D01*
X218223Y62696D01*
X216662Y63006D01*
X216662Y63006D01*
X192231D01*
X171051Y84187D01*
X171537Y85360D01*
X181742D01*
X194802Y72300D01*
D02*
G37*
G36*
X262876Y37681D02*
Y33359D01*
X261606Y33107D01*
X260755Y35160D01*
X258912Y37562D01*
X256510Y39405D01*
X253712Y40564D01*
X250710Y40959D01*
X247708Y40564D01*
X244910Y39405D01*
X242508Y37562D01*
X240665Y35160D01*
X239506Y32362D01*
X239111Y29360D01*
X239506Y26358D01*
X240665Y23560D01*
X242508Y21158D01*
X244910Y19315D01*
X247708Y18156D01*
X248526Y18048D01*
X248442Y16778D01*
X236344D01*
X235218Y17904D01*
Y35560D01*
X235218Y35560D01*
X234908Y37121D01*
X234024Y38444D01*
X224078Y48390D01*
Y52517D01*
X225217Y53079D01*
X225470Y52885D01*
X227173Y52180D01*
X229000Y51940D01*
X230827Y52180D01*
X232530Y52885D01*
X233992Y54008D01*
X235114Y55470D01*
X235820Y57173D01*
X236060Y59000D01*
X235820Y60827D01*
X235114Y62530D01*
X234986Y62698D01*
X235506Y63799D01*
X236657Y63899D01*
X262876Y37681D01*
D02*
G37*
G36*
Y63639D02*
X262876Y63639D01*
X263186Y62078D01*
X264070Y60755D01*
X272709Y52116D01*
X272838Y52030D01*
X272453Y50760D01*
X270110D01*
Y43778D01*
X268840Y43252D01*
X241294Y70798D01*
X241329Y71163D01*
X241722Y72068D01*
X262876D01*
Y63639D01*
D02*
G37*
G36*
X191619Y43598D02*
X192942Y42714D01*
X194503Y42404D01*
X194503Y42404D01*
X205036D01*
X205221Y42176D01*
X204767Y40974D01*
X204554Y40807D01*
X202708Y40564D01*
X199910Y39405D01*
X197508Y37562D01*
X196546Y36309D01*
X180273D01*
X179411Y37241D01*
X179531Y38760D01*
X179049Y44880D01*
X177616Y50849D01*
X175267Y56520D01*
X172681Y60740D01*
X173685Y61532D01*
X191619Y43598D01*
D02*
G37*
G36*
X357216Y73673D02*
X356730Y72500D01*
X346500D01*
Y57500D01*
X352232D01*
Y49895D01*
X351267Y49495D01*
X349178Y47892D01*
X347575Y45803D01*
X346567Y43370D01*
X346224Y40760D01*
Y36760D01*
X346567Y34149D01*
X346967Y33185D01*
X340863Y27080D01*
X336808D01*
X336377Y28350D01*
X338042Y29628D01*
X339645Y31717D01*
X340653Y34149D01*
X340996Y36760D01*
Y40760D01*
X340653Y43370D01*
X339645Y45803D01*
X338042Y47892D01*
X335953Y49495D01*
X333521Y50503D01*
X330910Y50846D01*
X328299Y50503D01*
X325867Y49495D01*
X323778Y47892D01*
X322175Y45803D01*
X321167Y43370D01*
X320824Y40760D01*
Y36760D01*
X321167Y34149D01*
X322175Y31717D01*
X323778Y29628D01*
X325443Y28350D01*
X325012Y27080D01*
X311408D01*
X310977Y28350D01*
X312642Y29628D01*
X314245Y31717D01*
X315253Y34149D01*
X315596Y36760D01*
Y40760D01*
X315253Y43370D01*
X314245Y45803D01*
X312642Y47892D01*
X310553Y49495D01*
X309588Y49895D01*
Y57000D01*
X314750D01*
Y73226D01*
X314781Y73232D01*
X316104Y74116D01*
X316903Y74916D01*
X355974D01*
X357216Y73673D01*
D02*
G37*
G36*
X393700Y48597D02*
Y7620D01*
X374965D01*
X374479Y8793D01*
X384594Y18908D01*
X384594Y18908D01*
X385478Y20231D01*
X385788Y21792D01*
X385788Y21792D01*
Y42318D01*
X392384Y48913D01*
X392384Y48913D01*
X392430Y48982D01*
X393700Y48597D01*
D02*
G37*
G36*
X194506Y26358D02*
X195665Y23560D01*
X197508Y21158D01*
X199910Y19315D01*
X202708Y18156D01*
X205710Y17761D01*
X208712Y18156D01*
X211510Y19315D01*
X213912Y21158D01*
X215755Y23560D01*
X216648Y25715D01*
X217918Y25462D01*
Y14732D01*
X217918Y14732D01*
X218228Y13171D01*
X219112Y11848D01*
X222167Y8793D01*
X221681Y7620D01*
X165835D01*
X165396Y8812D01*
X168072Y11098D01*
X172059Y15766D01*
X175267Y21000D01*
X177616Y26671D01*
X177971Y28152D01*
X194270D01*
X194506Y26358D01*
D02*
G37*
G36*
X61710Y88360D02*
Y60360D01*
X84146D01*
X84672Y59090D01*
X78826Y53244D01*
X77942Y51921D01*
X77632Y50360D01*
X77632Y50360D01*
Y41049D01*
X75210Y38628D01*
X68594Y45244D01*
X67271Y46128D01*
X65710Y46438D01*
X65710Y46438D01*
X27788D01*
Y76360D01*
X27478Y77921D01*
X26594Y79244D01*
X25271Y80128D01*
X23710Y80438D01*
X22149Y80128D01*
X20826Y79244D01*
X19942Y77921D01*
X19632Y76360D01*
Y43360D01*
X19632Y43360D01*
X19942Y41799D01*
X20826Y40476D01*
X21826Y39476D01*
X21826Y39476D01*
X23149Y38592D01*
X24710Y38282D01*
X24710Y38282D01*
X64021D01*
X69632Y32671D01*
Y31360D01*
X69632Y31360D01*
X69942Y29799D01*
X70826Y28476D01*
X72149Y27592D01*
X73710Y27282D01*
X75271Y27592D01*
X76594Y28476D01*
X84594Y36476D01*
X85478Y37799D01*
X85788Y39360D01*
Y48671D01*
X126710Y89592D01*
X137144Y79158D01*
X137493Y78925D01*
X137154Y77624D01*
X134290Y77399D01*
X128321Y75966D01*
X122650Y73617D01*
X117416Y70409D01*
X112748Y66422D01*
X108761Y61754D01*
X105553Y56520D01*
X103204Y50849D01*
X101771Y44880D01*
X101289Y38760D01*
X101771Y32640D01*
X103204Y26671D01*
X105553Y21000D01*
X108761Y15766D01*
X112748Y11098D01*
X115424Y8812D01*
X114985Y7620D01*
X7620D01*
Y94834D01*
X8210Y95860D01*
X39210D01*
Y98282D01*
X61710D01*
Y88360D01*
D02*
G37*
%LPC*%
G36*
X662710Y489446D02*
X658710D01*
X656099Y489103D01*
X653667Y488095D01*
X651578Y486492D01*
X649975Y484403D01*
X649364Y482929D01*
X642210D01*
Y486860D01*
X626210D01*
Y471860D01*
X642210D01*
Y475791D01*
X649364D01*
X649975Y474317D01*
X651578Y472228D01*
X653667Y470625D01*
X656099Y469617D01*
X658710Y469274D01*
X662710D01*
X665321Y469617D01*
X667753Y470625D01*
X669842Y472228D01*
X671445Y474317D01*
X672453Y476749D01*
X672796Y479360D01*
X672453Y481970D01*
X671445Y484403D01*
X669842Y486492D01*
X667753Y488095D01*
X665321Y489103D01*
X662710Y489446D01*
D02*
G37*
G36*
Y464046D02*
X658710D01*
X656099Y463703D01*
X653667Y462695D01*
X651578Y461092D01*
X649975Y459003D01*
X649351Y457498D01*
X625452D01*
X625428Y457534D01*
X623774Y458639D01*
X621823Y459027D01*
X619872Y458639D01*
X618218Y457534D01*
X617113Y455880D01*
X616725Y453929D01*
X617113Y451978D01*
X618218Y450324D01*
X619872Y449219D01*
X621823Y448831D01*
X623774Y449219D01*
X625428Y450324D01*
X625452Y450360D01*
X649377D01*
X649975Y448917D01*
X651578Y446828D01*
X653667Y445225D01*
X656099Y444217D01*
X658710Y443874D01*
X662710D01*
X665321Y444217D01*
X667753Y445225D01*
X669842Y446828D01*
X671445Y448917D01*
X672453Y451349D01*
X672796Y453960D01*
X672453Y456571D01*
X671445Y459003D01*
X669842Y461092D01*
X667753Y462695D01*
X665321Y463703D01*
X662710Y464046D01*
D02*
G37*
G36*
X610310Y153246D02*
X607700Y152903D01*
X605267Y151895D01*
X603178Y150292D01*
X601575Y148203D01*
X600567Y145771D01*
X600224Y143160D01*
Y139160D01*
X600567Y136550D01*
X601575Y134117D01*
X603178Y132028D01*
X605267Y130425D01*
X606741Y129814D01*
Y51460D01*
X607013Y50094D01*
X607787Y48937D01*
X613010Y43713D01*
Y26760D01*
X633010D01*
Y50760D01*
X616057D01*
X613879Y52938D01*
Y129814D01*
X615353Y130425D01*
X617442Y132028D01*
X619045Y134117D01*
X620053Y136550D01*
X620396Y139160D01*
Y143160D01*
X620053Y145771D01*
X619045Y148203D01*
X617442Y150292D01*
X615353Y151895D01*
X612920Y152903D01*
X610310Y153246D01*
D02*
G37*
G36*
X558546Y163340D02*
X556595Y162952D01*
X554941Y161847D01*
X553836Y160193D01*
X553448Y158242D01*
X553836Y156291D01*
X554941Y154637D01*
X556023Y153914D01*
X555882Y152481D01*
X554467Y151895D01*
X552378Y150292D01*
X550775Y148203D01*
X549767Y145771D01*
X549424Y143160D01*
Y139160D01*
X549767Y136550D01*
X550775Y134117D01*
X552378Y132028D01*
X554467Y130425D01*
X556899Y129417D01*
X559510Y129074D01*
X562121Y129417D01*
X563595Y130028D01*
X568641Y124982D01*
Y50106D01*
X567167Y49495D01*
X565078Y47892D01*
X563475Y45803D01*
X562467Y43370D01*
X562124Y40760D01*
Y36760D01*
X562467Y34149D01*
X563475Y31717D01*
X565078Y29628D01*
X567167Y28025D01*
X569599Y27017D01*
X572210Y26674D01*
X574821Y27017D01*
X577253Y28025D01*
X579342Y29628D01*
X580945Y31717D01*
X581953Y34149D01*
X582296Y36760D01*
Y40760D01*
X581953Y43370D01*
X580945Y45803D01*
X579342Y47892D01*
X577253Y49495D01*
X575779Y50106D01*
Y126460D01*
X575507Y127826D01*
X574733Y128983D01*
X568642Y135075D01*
X569253Y136550D01*
X569596Y139160D01*
Y143160D01*
X569253Y145771D01*
X568245Y148203D01*
X566642Y150292D01*
X564553Y151895D01*
X562608Y152701D01*
X562232Y153908D01*
X562261Y154165D01*
X562722Y154673D01*
X578368D01*
X579071Y153621D01*
X579701Y153201D01*
X579773Y152629D01*
X579635Y151717D01*
X577778Y150292D01*
X576175Y148203D01*
X575167Y145771D01*
X574824Y143160D01*
Y139160D01*
X575167Y136550D01*
X576175Y134117D01*
X577778Y132028D01*
X579867Y130425D01*
X582299Y129417D01*
X584910Y129074D01*
X587520Y129417D01*
X588995Y130028D01*
X594041Y124982D01*
Y50106D01*
X592567Y49495D01*
X590478Y47892D01*
X588875Y45803D01*
X587867Y43370D01*
X587524Y40760D01*
Y36760D01*
X587867Y34149D01*
X588875Y31717D01*
X590478Y29628D01*
X592567Y28025D01*
X595000Y27017D01*
X597610Y26674D01*
X600220Y27017D01*
X602653Y28025D01*
X604742Y29628D01*
X606345Y31717D01*
X607353Y34149D01*
X607696Y36760D01*
Y40760D01*
X607353Y43370D01*
X606345Y45803D01*
X604742Y47892D01*
X602653Y49495D01*
X601179Y50106D01*
Y126460D01*
X600907Y127826D01*
X600133Y128983D01*
X594042Y135075D01*
X594653Y136550D01*
X594996Y139160D01*
Y143160D01*
X594653Y145771D01*
X593645Y148203D01*
X592042Y150292D01*
X589953Y151895D01*
X587520Y152903D01*
X587344Y152926D01*
X586726Y154288D01*
X587386Y155275D01*
X587774Y157226D01*
X587386Y159177D01*
X586281Y160831D01*
X584627Y161936D01*
X582676Y162324D01*
X580725Y161936D01*
X580537Y161811D01*
X562175D01*
X562151Y161847D01*
X560497Y162952D01*
X558546Y163340D01*
D02*
G37*
G36*
X534110Y153246D02*
X531499Y152903D01*
X529067Y151895D01*
X526978Y150292D01*
X525375Y148203D01*
X524367Y145771D01*
X524024Y143160D01*
Y139160D01*
X524367Y136550D01*
X525375Y134117D01*
X526978Y132028D01*
X529067Y130425D01*
X531499Y129417D01*
X534110Y129074D01*
X536721Y129417D01*
X538195Y130028D01*
X543241Y124982D01*
Y50106D01*
X541767Y49495D01*
X539678Y47892D01*
X538075Y45803D01*
X537067Y43370D01*
X536724Y40760D01*
Y36760D01*
X537067Y34149D01*
X538075Y31717D01*
X539678Y29628D01*
X541767Y28025D01*
X544199Y27017D01*
X546810Y26674D01*
X549421Y27017D01*
X551853Y28025D01*
X553942Y29628D01*
X555545Y31717D01*
X556553Y34149D01*
X556896Y36760D01*
Y40760D01*
X556553Y43370D01*
X555545Y45803D01*
X553942Y47892D01*
X551853Y49495D01*
X550379Y50106D01*
Y126460D01*
X550107Y127826D01*
X549333Y128983D01*
X543242Y135075D01*
X543853Y136550D01*
X544196Y139160D01*
Y143160D01*
X543853Y145771D01*
X542845Y148203D01*
X541242Y150292D01*
X539153Y151895D01*
X536721Y152903D01*
X534110Y153246D01*
D02*
G37*
G36*
X508710D02*
X506100Y152903D01*
X503667Y151895D01*
X501578Y150292D01*
X499975Y148203D01*
X498967Y145771D01*
X498624Y143160D01*
Y139160D01*
X498967Y136550D01*
X499975Y134117D01*
X501578Y132028D01*
X503667Y130425D01*
X506100Y129417D01*
X508710Y129074D01*
X511320Y129417D01*
X512795Y130028D01*
X517841Y124982D01*
Y50106D01*
X516367Y49495D01*
X514278Y47892D01*
X512675Y45803D01*
X511667Y43370D01*
X511324Y40760D01*
Y36760D01*
X511667Y34149D01*
X512675Y31717D01*
X514278Y29628D01*
X516367Y28025D01*
X518800Y27017D01*
X521410Y26674D01*
X524021Y27017D01*
X526453Y28025D01*
X528542Y29628D01*
X530145Y31717D01*
X531153Y34149D01*
X531496Y36760D01*
Y40760D01*
X531153Y43370D01*
X530145Y45803D01*
X528542Y47892D01*
X526453Y49495D01*
X524979Y50106D01*
Y126460D01*
X524707Y127826D01*
X523933Y128983D01*
X517842Y135075D01*
X518453Y136550D01*
X518796Y139160D01*
Y143160D01*
X518453Y145771D01*
X517445Y148203D01*
X515842Y150292D01*
X513753Y151895D01*
X511320Y152903D01*
X508710Y153246D01*
D02*
G37*
G36*
X483310D02*
X480700Y152903D01*
X478267Y151895D01*
X476178Y150292D01*
X474575Y148203D01*
X473567Y145771D01*
X473224Y143160D01*
Y139160D01*
X473567Y136550D01*
X474575Y134117D01*
X476178Y132028D01*
X478267Y130425D01*
X480700Y129417D01*
X483310Y129074D01*
X485920Y129417D01*
X487395Y130028D01*
X492441Y124982D01*
Y50106D01*
X490967Y49495D01*
X488878Y47892D01*
X487275Y45803D01*
X486267Y43370D01*
X485924Y40760D01*
Y36760D01*
X486267Y34149D01*
X487275Y31717D01*
X488878Y29628D01*
X490967Y28025D01*
X493400Y27017D01*
X496010Y26674D01*
X498620Y27017D01*
X501053Y28025D01*
X503142Y29628D01*
X504745Y31717D01*
X505753Y34149D01*
X506096Y36760D01*
Y40760D01*
X505753Y43370D01*
X504745Y45803D01*
X503142Y47892D01*
X501053Y49495D01*
X499579Y50106D01*
Y126460D01*
X499307Y127826D01*
X498533Y128983D01*
X492442Y135075D01*
X493053Y136550D01*
X493396Y139160D01*
Y143160D01*
X493053Y145771D01*
X492045Y148203D01*
X490442Y150292D01*
X488353Y151895D01*
X485920Y152903D01*
X483310Y153246D01*
D02*
G37*
G36*
X457910Y50846D02*
X455299Y50503D01*
X452867Y49495D01*
X450778Y47892D01*
X449175Y45803D01*
X448167Y43370D01*
X447824Y40760D01*
Y36760D01*
X448167Y34149D01*
X449175Y31717D01*
X450778Y29628D01*
X452867Y28025D01*
X455299Y27017D01*
X457910Y26674D01*
X460521Y27017D01*
X462953Y28025D01*
X465042Y29628D01*
X466645Y31717D01*
X467653Y34149D01*
X467996Y36760D01*
Y40760D01*
X467653Y43370D01*
X466645Y45803D01*
X465042Y47892D01*
X462953Y49495D01*
X460521Y50503D01*
X457910Y50846D01*
D02*
G37*
G36*
X660000Y33060D02*
X658173Y32820D01*
X656470Y32115D01*
X655008Y30992D01*
X653885Y29530D01*
X653180Y27827D01*
X652940Y26000D01*
X653180Y24173D01*
X653885Y22470D01*
X655008Y21008D01*
X656470Y19885D01*
X658173Y19180D01*
X660000Y18940D01*
X661827Y19180D01*
X663530Y19885D01*
X664992Y21008D01*
X666115Y22470D01*
X666820Y24173D01*
X667060Y26000D01*
X666820Y27827D01*
X666115Y29530D01*
X664992Y30992D01*
X663530Y32115D01*
X661827Y32820D01*
X660000Y33060D01*
D02*
G37*
G36*
X407110Y153246D02*
X404500Y152903D01*
X402067Y151895D01*
X399978Y150292D01*
X398375Y148203D01*
X397367Y145771D01*
X397024Y143160D01*
Y139160D01*
X397367Y136550D01*
X398031Y134948D01*
X395826Y132744D01*
X394942Y131421D01*
X394632Y129860D01*
X394632Y129860D01*
Y125860D01*
X390710D01*
Y110860D01*
X395382D01*
Y108360D01*
X389960D01*
Y98438D01*
X386710D01*
Y103360D01*
X372710D01*
Y85360D01*
X386710D01*
Y90282D01*
X394460D01*
X394460Y90282D01*
X394854Y90360D01*
X408960D01*
Y108360D01*
X403538D01*
Y110860D01*
X406710D01*
Y125860D01*
X402788D01*
Y128171D01*
X404171Y129553D01*
X404500Y129417D01*
X407110Y129074D01*
X409720Y129417D01*
X412153Y130425D01*
X414242Y132028D01*
X415845Y134117D01*
X416853Y136550D01*
X417196Y139160D01*
Y143160D01*
X416853Y145771D01*
X415845Y148203D01*
X414242Y150292D01*
X412153Y151895D01*
X409720Y152903D01*
X407110Y153246D01*
D02*
G37*
G36*
X381710D02*
X379100Y152903D01*
X376667Y151895D01*
X374578Y150292D01*
X372975Y148203D01*
X371967Y145771D01*
X371624Y143160D01*
Y139160D01*
X371967Y136550D01*
X372975Y134117D01*
X374578Y132028D01*
X376667Y130425D01*
X378141Y129814D01*
Y123360D01*
X369710D01*
Y107360D01*
X385710D01*
Y123360D01*
X385279D01*
Y129814D01*
X386753Y130425D01*
X388842Y132028D01*
X390445Y134117D01*
X391453Y136550D01*
X391796Y139160D01*
Y143160D01*
X391453Y145771D01*
X390445Y148203D01*
X388842Y150292D01*
X386753Y151895D01*
X384320Y152903D01*
X381710Y153246D01*
D02*
G37*
%LPD*%
D11*
X356310Y217360D02*
Y230272D01*
X338582Y254762D02*
X340194Y253150D01*
Y246388D02*
X356310Y230272D01*
X340194Y246388D02*
Y253150D01*
X212359Y353360D02*
X217139Y358140D01*
X289560D02*
X289814Y357886D01*
X217139Y358140D02*
X289560D01*
X47710Y196360D02*
X47842Y196492D01*
X64412Y171554D02*
X68326Y167640D01*
X47842Y196492D02*
X60604D01*
X64412Y192684D01*
Y171554D02*
Y192684D01*
X250710Y100360D02*
Y122860D01*
X249174Y98824D02*
X250710Y100360D01*
X249174Y30896D02*
X250710Y29360D01*
X618998Y108204D02*
X639710Y128916D01*
X621505Y63533D02*
Y64283D01*
X618998Y66790D02*
X621505Y64283D01*
X618998Y66790D02*
Y108204D01*
X610310Y51460D02*
Y141160D01*
Y51460D02*
X623010Y38760D01*
X270510Y127233D02*
X274807Y122936D01*
X268610Y134397D02*
Y224123D01*
Y134397D02*
X270510Y132497D01*
Y226023D02*
Y235458D01*
Y127233D02*
Y132497D01*
X268610Y224123D02*
X270510Y226023D01*
Y235458D02*
X297548Y262496D01*
X263610Y240825D02*
X281244Y258459D01*
X263610Y125518D02*
Y240825D01*
Y125518D02*
X273768Y115360D01*
X68326Y167640D02*
X82990D01*
X91710Y176360D01*
X193758Y440436D02*
X197358D01*
X191735Y442460D02*
X193758Y440436D01*
X187710Y442460D02*
X191735D01*
X69240Y350416D02*
X75909Y343747D01*
X63752Y350416D02*
X69240D01*
X54966Y341630D02*
X63752Y350416D01*
X75909Y343747D02*
X78147D01*
X44707Y341630D02*
X54966D01*
X35397Y350940D02*
X44707Y341630D01*
X35397Y350940D02*
Y367203D01*
X150198Y269041D02*
Y269678D01*
X153460Y272941D01*
X128524Y203200D02*
X128524D01*
X113710Y195360D02*
X115479Y197129D01*
X122453D01*
X128524Y203200D01*
X127762Y215646D02*
X131572Y211836D01*
X114210Y215360D02*
X114496Y215646D01*
X127762D01*
X153460Y272941D02*
Y282110D01*
X154710Y283360D01*
X159004Y269036D02*
X161460Y271492D01*
X159004Y268224D02*
Y269036D01*
X161460Y282110D02*
X162710Y283360D01*
X161460Y271492D02*
Y282110D01*
X508710Y520394D02*
Y521360D01*
X488188Y499872D02*
X508710Y520394D01*
X471170Y499872D02*
X488188D01*
X338582Y367284D02*
X471170Y499872D01*
X366268Y435782D02*
Y521462D01*
X308582Y272596D02*
Y385167D01*
X340868Y417453D02*
Y521462D01*
X313582Y383096D02*
X366268Y435782D01*
X313582Y270525D02*
Y383096D01*
X318582Y381025D02*
X417068Y479511D01*
X324502Y403208D02*
X325562Y402147D01*
X417068Y479511D02*
Y521462D01*
X451410Y506782D02*
Y514860D01*
X323582Y266383D02*
Y378954D01*
X451410Y506782D01*
X308582Y385167D02*
X325562Y402147D01*
X318582Y268454D02*
Y381025D01*
X325562Y402147D02*
X340868Y417453D01*
X354496Y373292D02*
X433434Y452230D01*
X437292D01*
X437666Y452604D01*
X338582Y254762D02*
Y367284D01*
X420092Y465558D02*
Y465860D01*
X483310Y519886D02*
Y521360D01*
X333582Y370158D02*
X483310Y519886D01*
X333582Y252691D02*
Y370158D01*
X328582Y374048D02*
X420092Y465558D01*
X451410Y514860D02*
X457910Y521360D01*
X328582Y264312D02*
Y374048D01*
X303582Y274667D02*
Y403150D01*
X314428Y413996D01*
X362815Y365609D02*
X363728Y366522D01*
X370943Y357481D02*
X371348Y357886D01*
X290068Y518812D02*
Y521462D01*
X391160Y520954D02*
X391668Y521462D01*
X315468Y413996D02*
Y417346D01*
X282058Y509794D02*
X290068Y517804D01*
Y518812D01*
X282058Y450968D02*
Y509794D01*
X275994Y444904D02*
X282058Y450968D01*
X275590Y444904D02*
X275994D01*
X133525Y349187D02*
Y350853D01*
X131141Y353237D02*
X133525Y350853D01*
X131141Y353237D02*
Y366929D01*
X130710Y367360D02*
X131141Y366929D01*
X117160Y298610D02*
X123571Y305021D01*
Y351663D01*
X95000Y383000D02*
X110490Y367510D01*
Y366522D02*
Y367510D01*
X111955Y382865D02*
Y382995D01*
X101950Y393000D02*
X111955Y382995D01*
X74296Y393000D02*
X101950D01*
X111955Y382865D02*
X122710Y372110D01*
X146710Y367360D02*
X147015Y367665D01*
Y379171D01*
X147320Y379476D01*
X202438Y382524D02*
X211074D01*
X198374Y378460D02*
X202438Y382524D01*
X179548Y366522D02*
X290068D01*
X178710Y367360D02*
X179548Y366522D01*
X86106Y317778D02*
Y320596D01*
X93205Y327696D01*
X98818D01*
X98904Y327610D01*
X95898Y321195D02*
X96545Y321843D01*
X108227D01*
X108710Y321360D01*
X98904Y327610D02*
X100953D01*
X101453Y328110D01*
X107460D01*
X108710Y329360D01*
X73012Y354988D02*
X76098D01*
X60500Y378412D02*
X85552Y353360D01*
X93726Y337360D02*
X108710D01*
X60500Y378412D02*
Y392450D01*
X49000Y379000D02*
X73012Y354988D01*
X76098D02*
X93726Y337360D01*
X85552Y353360D02*
X108710D01*
X90457Y411117D02*
Y414700D01*
X87734Y417424D02*
Y422808D01*
Y417424D02*
X90457Y414700D01*
X87734Y422808D02*
X97730Y432804D01*
X132054D01*
X76200Y409360D02*
X88700D01*
X90457Y411117D01*
X170434Y427116D02*
Y442722D01*
X132054Y432804D02*
X146710Y447460D01*
X102108Y402336D02*
X107784Y396660D01*
X171960Y376860D02*
X204124Y409024D01*
X163960Y368610D02*
Y375931D01*
X171960Y368610D02*
Y376860D01*
X204124Y409024D02*
X218024D01*
X163960Y375931D02*
X202568Y414539D01*
X231095D01*
X74710Y286360D02*
Y300860D01*
Y286360D02*
X75710Y285360D01*
X483310Y217360D02*
Y242349D01*
X486008Y245048D01*
Y471259D01*
X534110Y519360D01*
X383710Y241360D02*
X384210D01*
X379710Y245360D02*
X383710Y241360D01*
X379710Y245360D02*
Y245860D01*
X378210Y247360D02*
X379710Y245860D01*
X378210Y247360D02*
Y256360D01*
X367210Y267360D02*
X378210Y256360D01*
X381710Y217360D02*
Y238860D01*
X384210Y241360D01*
X407110Y217360D02*
Y235960D01*
X401710Y241360D02*
X407110Y235960D01*
X401210Y241360D02*
X401710D01*
X401210D02*
Y251860D01*
X416210Y266860D01*
Y267360D01*
X367210D02*
Y294088D01*
X366150Y295148D02*
X367210Y294088D01*
X406844Y276726D02*
X416210Y267360D01*
X406844Y276726D02*
Y291148D01*
X402844Y295148D02*
X406844Y291148D01*
X603772Y264548D02*
X614960Y253360D01*
X620460Y247860D02*
X635710D01*
X614960Y253360D02*
X620460Y247860D01*
X620610Y352184D02*
Y424960D01*
Y352184D02*
X652710Y320084D01*
X572620Y280518D02*
X575530Y283428D01*
X572620Y231650D02*
Y280518D01*
Y231650D02*
X584910Y219360D01*
X579524Y336290D02*
X579604D01*
X575530Y332296D02*
X579524Y336290D01*
X584910Y217360D02*
Y219360D01*
X575530Y283428D02*
Y332296D01*
X559510Y217360D02*
Y265056D01*
X565844Y271390D01*
Y302954D01*
X96012Y344932D02*
X96226Y345146D01*
X108496D01*
X108710Y345360D01*
X89585Y300860D02*
X93085Y297360D01*
X74710Y300860D02*
X89585D01*
X107784Y396660D02*
X148710D01*
X91186Y479298D02*
X101854Y468630D01*
X102108D01*
X76200Y479298D02*
X91186D01*
X64700Y469853D02*
X73035Y461518D01*
X141789D01*
X141947Y461360D01*
X154082D02*
X166082Y449360D01*
X141947Y461360D02*
X154082D01*
X64700Y469853D02*
Y477541D01*
X86360Y518922D02*
X111506Y493776D01*
X50800Y507238D02*
X62484Y518922D01*
X86360D01*
X166082Y449360D02*
X187710D01*
X111506Y471678D02*
Y493776D01*
X108710Y297360D02*
X109960Y298610D01*
X117160D01*
X146710Y447460D02*
X148710D01*
X187710Y442460D02*
Y449360D01*
Y439860D02*
Y442460D01*
X50800Y504698D02*
Y507238D01*
Y479298D02*
X62943D01*
X64700Y477541D01*
X315468Y417346D02*
Y521462D01*
X218694Y374904D02*
X289814D01*
X215574Y378024D02*
X218694Y374904D01*
X215074Y378024D02*
X215574D01*
X248916Y398360D02*
X271210D01*
X248095Y397539D02*
X248916Y398360D01*
X218024Y409024D02*
X220074Y406974D01*
Y399296D02*
Y406974D01*
Y399296D02*
X221831Y397539D01*
X231095D01*
X170710Y367360D02*
X171960Y368610D01*
X162710Y367360D02*
X163960Y368610D01*
X211074Y382024D02*
Y382524D01*
Y382024D02*
X215074Y378024D01*
X248095Y414539D02*
X270149D01*
X271154Y415544D01*
X248095Y431539D02*
X248095Y431539D01*
X229916Y430360D02*
X231095Y431539D01*
X213710Y430360D02*
X229916D01*
X248210Y431654D02*
Y449360D01*
X248095Y431539D02*
X248210Y431654D01*
X122710Y367360D02*
Y372110D01*
X50800Y432760D02*
Y434760D01*
Y432760D02*
X62362Y421198D01*
Y404935D02*
Y421198D01*
Y404935D02*
X74296Y393000D01*
X50800Y409221D02*
X65500Y394521D01*
Y391500D02*
Y394521D01*
X57090Y395860D02*
X60500Y392450D01*
X50800Y409221D02*
Y409360D01*
X65500Y391500D02*
X74000Y383000D01*
X25400Y407360D02*
X31900Y400860D01*
X41037D01*
X46037Y395860D01*
X25400Y407360D02*
Y409360D01*
X46037Y395860D02*
X57090D01*
X23600Y379000D02*
X35397Y367203D01*
X49000Y379000D02*
Y381000D01*
X16710Y262360D02*
X33960D01*
X35960Y264360D01*
X49210D01*
X93085Y297360D02*
X108710D01*
X48710Y310360D02*
Y319860D01*
X37210Y285360D02*
X39710Y287860D01*
Y305310D01*
X41760Y307360D01*
X43210D01*
X46210Y310360D01*
X48710D01*
X18710Y285360D02*
X37210D01*
X16710Y283360D02*
X18710Y285360D01*
X49460Y264610D02*
X53210Y268360D01*
X49210Y264360D02*
X49460Y264610D01*
Y251360D02*
Y264610D01*
X91710Y176360D02*
X92210D01*
X63710Y215360D02*
X73710D01*
Y196360D02*
Y196860D01*
Y215360D02*
X93210D01*
X47710Y209360D02*
X48210Y209860D01*
X47710Y202860D02*
X67210D01*
X69210Y200860D01*
X48210Y209860D02*
X58210D01*
X63710Y215360D01*
X69210Y200860D02*
X69710D01*
X73710Y196860D01*
X74710Y195360D02*
X92710D01*
X73710Y196360D02*
X74710Y195360D01*
X281244Y258459D02*
Y259400D01*
X298582Y276738D01*
X246710Y282860D02*
X256710Y272860D01*
X229710Y286860D02*
X233710Y282860D01*
X246710D01*
X212710Y305360D02*
X213710Y306360D01*
X192710Y305360D02*
X212710D01*
X214210Y306860D02*
X229710D01*
X213710Y306360D02*
X214210Y306860D01*
X245710Y310860D02*
X256710Y321860D01*
X233710Y310860D02*
X245710D01*
X229710Y306860D02*
X233710Y310860D01*
X203710Y289360D02*
X213710D01*
X198710Y294360D02*
X203710Y289360D01*
X198710Y294360D02*
Y296110D01*
X197460Y297360D02*
X198710Y296110D01*
X192710Y297360D02*
X197460D01*
X216210Y286860D02*
X229710D01*
X213710Y289360D02*
X216210Y286860D01*
X254254Y220336D02*
X254762Y220844D01*
Y235204D01*
X254254Y203336D02*
Y203836D01*
X245730Y212360D02*
X254254Y203836D01*
X238710Y212360D02*
X245730D01*
X219710Y186360D02*
X229210D01*
X249210Y164360D02*
X249710Y163860D01*
X228710Y164360D02*
X249210D01*
X228710D02*
X229210Y164860D01*
Y186360D01*
X250210Y123360D02*
Y142360D01*
X249710Y142860D02*
X250210Y142360D01*
Y123360D02*
X250710Y122860D01*
X377710Y115360D02*
X381710Y119360D01*
Y141160D01*
X496010Y38760D02*
Y126460D01*
X483310Y139160D02*
X496010Y126460D01*
X483310Y139160D02*
Y141160D01*
X521410Y38760D02*
Y126460D01*
X508710Y139160D02*
X521410Y126460D01*
X508710Y139160D02*
Y141160D01*
X546810Y38760D02*
Y126460D01*
X534110Y139160D02*
X546810Y126460D01*
X534110Y139160D02*
Y141160D01*
X572210Y38760D02*
Y126460D01*
X559510Y139160D02*
X572210Y126460D01*
X559510Y139160D02*
Y141160D01*
X597610Y38760D02*
Y126460D01*
X584910Y139160D02*
X597610Y126460D01*
X584910Y139160D02*
Y141160D01*
X652710Y247360D02*
Y320084D01*
X617210Y428360D02*
X620610Y424960D01*
X583946Y375398D02*
X606604D01*
X574548Y458198D02*
X635710Y519360D01*
X579110Y336296D02*
X579610D01*
X575110Y340296D02*
X579110Y336296D01*
X574548Y342053D02*
Y458198D01*
X575110Y340296D02*
Y341491D01*
X574548Y342053D02*
X575110Y341491D01*
X621823Y453929D02*
X660679D01*
X639710Y128916D02*
Y170360D01*
X401578Y358652D02*
X403519D01*
X404093Y359226D01*
X371348Y357886D02*
X400812D01*
X401578Y358652D01*
X660679Y453929D02*
X660710Y453960D01*
X363728Y366522D02*
X400812D01*
X562356Y336042D02*
X562610Y336296D01*
X543560Y336042D02*
X562356D01*
X565844Y302954D02*
Y317568D01*
X566030Y317754D01*
X332238Y231860D02*
X333906Y233528D01*
Y252367D01*
X333582Y252691D02*
X333906Y252367D01*
X332238Y218688D02*
Y231860D01*
X330910Y217360D02*
X332238Y218688D01*
X307548Y264491D02*
X313582Y270525D01*
X327406Y263136D02*
X328582Y264312D01*
X297548Y268633D02*
X303582Y274667D01*
X302548Y266562D02*
X308582Y272596D01*
X298582Y276738D02*
Y510298D01*
X290068Y518812D02*
X298582Y510298D01*
X315906Y265778D02*
X318582Y268454D01*
X320906Y263707D02*
X323582Y266383D01*
X327406Y236220D02*
Y263136D01*
X320906Y234756D02*
Y263707D01*
X297548Y262496D02*
Y268633D01*
X307548Y249636D02*
Y264491D01*
X302548Y256574D02*
Y266562D01*
X315906Y264468D02*
Y265778D01*
X305510Y219360D02*
X320906Y234756D01*
X192710Y353360D02*
X212359D01*
X548530Y317754D02*
X549030D01*
X544530Y313754D02*
X548530Y317754D01*
X544530Y313254D02*
Y313754D01*
X542864Y311588D02*
X544530Y313254D01*
X542864Y307660D02*
Y311588D01*
X542290Y307086D02*
X542864Y307660D01*
X534110Y468560D02*
X584910Y519360D01*
X534110Y217360D02*
Y468560D01*
X508710D02*
X559510Y519360D01*
X508710Y217360D02*
Y468560D01*
X558546Y158242D02*
X581660D01*
X582676Y157226D01*
X610310Y519360D02*
Y521360D01*
X565658Y474708D02*
X610310Y519360D01*
X565658Y351028D02*
Y474708D01*
X635710Y519360D02*
Y521360D01*
X663160Y187360D02*
X670210Y194410D01*
X651854Y187360D02*
X663160D01*
X650710Y188504D02*
X651854Y187360D01*
X670210Y194410D02*
Y220860D01*
X650710Y188504D02*
Y194860D01*
X603772Y264548D02*
Y269298D01*
X600710Y272360D02*
X603772Y269298D01*
X610310Y217360D02*
Y238460D01*
X611210Y239360D01*
X639710Y170360D02*
Y172860D01*
X610310Y202260D02*
X639710Y172860D01*
X610310Y202260D02*
Y217360D01*
X670210Y220860D02*
X674710Y225360D01*
X662710Y202860D02*
Y237360D01*
X658710Y198860D02*
X662710Y202860D01*
X658710Y196360D02*
Y198860D01*
X649210Y196360D02*
X650710Y194860D01*
X649210Y208360D02*
X653210Y212360D01*
X649210Y196360D02*
Y208360D01*
X652710Y247360D02*
X662710Y237360D01*
X671710Y249360D02*
X674710Y246360D01*
X671710Y249360D02*
Y272360D01*
X634410Y428560D02*
X660710D01*
X634210Y428360D02*
X634410Y428560D01*
X634210Y479360D02*
X660710D01*
X292862Y246888D02*
X302548Y256574D01*
X300736Y242824D02*
X307548Y249636D01*
X391668Y500126D02*
X403606Y488188D01*
Y476504D02*
Y488188D01*
X305510Y217360D02*
Y219360D01*
X391668Y500126D02*
Y521462D01*
X280110Y141160D02*
Y143160D01*
X295446Y158496D01*
X304292D01*
X330910Y141160D02*
Y143160D01*
X292862Y181208D02*
X330910Y143160D01*
X292862Y181208D02*
Y246888D01*
X274807Y122936D02*
X340086D01*
X356310Y139160D02*
Y141160D01*
X340086Y122936D02*
X356310Y139160D01*
X273768Y115360D02*
X356710D01*
X584910Y519360D02*
Y521360D01*
X559510Y519360D02*
Y521360D01*
X534110Y519360D02*
Y521360D01*
D14*
X20960Y190860D02*
D03*
Y214860D02*
D03*
X205710Y100360D02*
D03*
D15*
X45460Y170860D02*
D03*
Y234860D02*
D03*
D16*
X47710Y189860D02*
D03*
Y196360D02*
D03*
Y202860D02*
D03*
Y209360D02*
D03*
Y215860D02*
D03*
D17*
X73710Y196360D02*
D03*
Y179360D02*
D03*
X585978Y376292D02*
D03*
Y359292D02*
D03*
X73710Y215360D02*
D03*
Y232360D02*
D03*
X254254Y220336D02*
D03*
Y203336D02*
D03*
X635710Y230860D02*
D03*
Y247860D02*
D03*
X652710Y230860D02*
D03*
Y247860D02*
D03*
X213710Y289360D02*
D03*
Y306360D02*
D03*
X211074Y399524D02*
D03*
Y382524D02*
D03*
X603325Y375161D02*
D03*
Y358161D02*
D03*
X673710Y151360D02*
D03*
Y168360D02*
D03*
X229710Y306860D02*
D03*
Y323860D02*
D03*
Y286860D02*
D03*
Y269860D02*
D03*
X160710Y254360D02*
D03*
Y237360D02*
D03*
X176710Y263360D02*
D03*
Y246360D02*
D03*
X213710Y343360D02*
D03*
Y326360D02*
D03*
D18*
X56500Y332000D02*
D03*
X73500D02*
D03*
X231210Y449360D02*
D03*
X248210D02*
D03*
X70210Y268360D02*
D03*
X53210D02*
D03*
X233210Y123360D02*
D03*
X250210D02*
D03*
X384210Y241360D02*
D03*
X401210D02*
D03*
X594210Y239360D02*
D03*
X611210D02*
D03*
X271154Y415544D02*
D03*
X288154D02*
D03*
X271210Y398360D02*
D03*
X288210D02*
D03*
X634210Y479360D02*
D03*
X617210D02*
D03*
X566030Y317754D02*
D03*
X549030D02*
D03*
X579610Y336296D02*
D03*
X562610D02*
D03*
X109210Y176360D02*
D03*
X92210D02*
D03*
X91710Y270360D02*
D03*
X108710D02*
D03*
X92710Y285360D02*
D03*
X75710D02*
D03*
X248095Y431539D02*
D03*
X231095D02*
D03*
X248095Y414539D02*
D03*
X231095D02*
D03*
X248095Y397539D02*
D03*
X231095D02*
D03*
X37210Y285360D02*
D03*
X54210D02*
D03*
X653210Y212360D02*
D03*
X636210D02*
D03*
X228710Y164360D02*
D03*
X211710D02*
D03*
X215002Y464566D02*
D03*
X198002D02*
D03*
X236210Y226360D02*
D03*
X219210D02*
D03*
X402844Y295148D02*
D03*
X419844D02*
D03*
X366150D02*
D03*
X383150D02*
D03*
X435710Y118360D02*
D03*
X452710D02*
D03*
X398710D02*
D03*
X415710D02*
D03*
X464210Y243360D02*
D03*
X447210D02*
D03*
X24892Y524510D02*
D03*
X41892D02*
D03*
X634210Y428360D02*
D03*
X617210D02*
D03*
X108710Y256360D02*
D03*
X91710D02*
D03*
X25000Y457000D02*
D03*
X42000D02*
D03*
X371500Y65000D02*
D03*
X354500D02*
D03*
X276500Y87000D02*
D03*
X293500D02*
D03*
X406500Y65000D02*
D03*
X389500D02*
D03*
D19*
X367210Y267360D02*
D03*
X416210D02*
D03*
D20*
X256710Y272860D02*
D03*
Y321860D02*
D03*
D21*
X213710Y430360D02*
D03*
Y449360D02*
D03*
X187710Y430360D02*
D03*
Y439860D02*
D03*
Y449360D02*
D03*
X74710Y300860D02*
D03*
Y319860D02*
D03*
X48710Y300860D02*
D03*
Y310360D02*
D03*
Y319860D02*
D03*
D22*
X639710Y170360D02*
D03*
X658710D02*
D03*
X639710Y196360D02*
D03*
X649210D02*
D03*
X658710D02*
D03*
X238710Y212360D02*
D03*
X219710D02*
D03*
X238710Y186360D02*
D03*
X229210D02*
D03*
X219710D02*
D03*
D23*
X157710Y187360D02*
D03*
D24*
X183110Y125360D02*
D03*
X170410D02*
D03*
X157710D02*
D03*
X145010D02*
D03*
X132310D02*
D03*
D25*
X178710Y283360D02*
D03*
X170710D02*
D03*
X162710D02*
D03*
X154710D02*
D03*
X146710D02*
D03*
X138710D02*
D03*
X130710D02*
D03*
X122710D02*
D03*
Y367360D02*
D03*
X130710D02*
D03*
X138710D02*
D03*
X146710D02*
D03*
X154710D02*
D03*
X162710D02*
D03*
X170710D02*
D03*
X178710D02*
D03*
D26*
X108710Y297360D02*
D03*
Y305360D02*
D03*
Y313360D02*
D03*
Y321360D02*
D03*
Y329360D02*
D03*
Y337360D02*
D03*
Y345360D02*
D03*
Y353360D02*
D03*
X192710D02*
D03*
Y345360D02*
D03*
Y337360D02*
D03*
Y329360D02*
D03*
Y321360D02*
D03*
Y313360D02*
D03*
Y305360D02*
D03*
Y297360D02*
D03*
D27*
X16710Y283360D02*
D03*
Y262360D02*
D03*
X674710Y225360D02*
D03*
Y246360D02*
D03*
X249710Y163860D02*
D03*
Y142860D02*
D03*
D28*
X356710Y115360D02*
D03*
X377710D02*
D03*
X113710Y195360D02*
D03*
X92710D02*
D03*
X114210Y215360D02*
D03*
X93210D02*
D03*
X74000Y383000D02*
D03*
X95000D02*
D03*
D29*
X23710Y76360D02*
D03*
Y102360D02*
D03*
D30*
X361710Y94360D02*
D03*
X379710D02*
D03*
X211710Y268360D02*
D03*
X193710D02*
D03*
D31*
X463710Y301360D02*
D03*
Y283360D02*
D03*
D32*
X49460Y251360D02*
D03*
X73960D02*
D03*
X614960Y253360D02*
D03*
X590460D02*
D03*
D33*
X200710Y146360D02*
D03*
Y125860D02*
D03*
X115710Y148360D02*
D03*
Y127860D02*
D03*
X195710Y225860D02*
D03*
Y246360D02*
D03*
D34*
X419960Y99360D02*
D03*
X399460D02*
D03*
X260186Y494284D02*
D03*
X239686D02*
D03*
X443460Y262360D02*
D03*
X463960D02*
D03*
X284750Y66000D02*
D03*
X305250D02*
D03*
D35*
X73710Y31360D02*
D03*
Y75360D02*
D03*
Y103360D02*
D03*
Y147360D02*
D03*
D71*
X229000Y59000D02*
D03*
X273558Y465836D02*
D03*
X660000Y26000D02*
D03*
X669000Y515000D02*
D03*
D72*
X369710Y205960D02*
Y224650D01*
X345694Y248666D02*
Y348742D01*
Y248666D02*
X369710Y224650D01*
X173210Y174360D02*
X200710Y146860D01*
X164210Y187360D02*
X173210Y178360D01*
X200710Y146360D02*
Y146860D01*
X157710Y187360D02*
X164210D01*
X210502Y488124D02*
X223012Y500634D01*
X173210Y174360D02*
Y178360D01*
X192710Y313360D02*
X193460Y314110D01*
X13208Y467833D02*
X16228Y464813D01*
X13208Y467833D02*
Y491998D01*
X74538Y179032D02*
X81783Y186276D01*
X219456Y75184D02*
X226640Y68000D01*
X238324D02*
X266954Y39370D01*
X226640Y68000D02*
X238324D01*
X81783Y186276D02*
X82710D01*
X221996Y14732D02*
Y32166D01*
X260186Y494284D02*
X264668Y498766D01*
X233210Y123360D02*
X235458Y121112D01*
X215374Y468122D02*
X215710Y466360D01*
X264668Y498766D02*
Y521462D01*
X266674Y443517D02*
Y459362D01*
X134987Y271860D02*
X135117D01*
X301360Y94360D02*
X361710D01*
X457910Y141160D02*
Y189960D01*
X137960Y282610D02*
X138710Y283360D01*
X432510Y215360D02*
X457910Y189960D01*
X133488Y270360D02*
X134987Y271860D01*
X294000Y87000D02*
X301360Y94360D01*
X23710Y102360D02*
X72710D01*
X417974Y101346D02*
X444246D01*
X137960Y274703D02*
Y282610D01*
X72710Y102360D02*
X73710Y103360D01*
X463710Y262610D02*
Y283360D01*
X288154Y398416D02*
Y415544D01*
Y398416D02*
X288210Y398360D01*
X463710Y262610D02*
X463960Y262360D01*
X213710Y326360D02*
X216210Y323860D01*
X639710Y196360D02*
Y208860D01*
X195710Y225860D02*
Y226360D01*
X176710Y246360D02*
X180210Y242860D01*
X187053Y234860D02*
X187210D01*
X636210Y212360D02*
X639710Y208860D01*
X180210Y241703D02*
X187053Y234860D01*
X664210Y324860D02*
X671710Y317360D01*
X600710D02*
X603580Y320230D01*
X180210Y241703D02*
Y242860D01*
X74710Y310574D02*
Y318860D01*
X216210Y323860D02*
X229710D01*
X673913Y168563D02*
Y180848D01*
X187210Y234860D02*
X195710Y226360D01*
X284750Y66000D02*
X285250D01*
X379710Y94360D02*
X394460D01*
X313220Y77000D02*
X315214Y78994D01*
X394460Y94360D02*
X399460Y99360D01*
X415710Y103610D02*
Y118360D01*
X271911Y99568D02*
X289306D01*
X293750Y74657D02*
X296093Y77000D01*
X313220D01*
X293750Y74500D02*
Y74657D01*
X293500Y87000D02*
X294000D01*
X285250Y66000D02*
X293750Y74500D01*
X415710Y103610D02*
X417974Y101346D01*
X205710Y151360D02*
Y158860D01*
X70210Y268360D02*
X71210Y269360D01*
X160710Y253860D02*
Y254360D01*
X183610Y125860D02*
X200710D01*
X54210Y285360D02*
Y297860D01*
X200710Y146360D02*
X205710Y151360D01*
X145010Y125360D02*
Y165903D01*
X205710Y158860D02*
X211210Y164360D01*
X183110Y125360D02*
X183610Y125860D01*
X594210Y239360D02*
X595376Y238194D01*
X266500Y76146D02*
X266954Y75692D01*
X169960Y273767D02*
Y282610D01*
X71210Y269360D02*
X90710D01*
X91710Y270360D01*
X237146Y462122D02*
X254105D01*
X579120Y251826D02*
X579661D01*
X56863Y525780D02*
X57404D01*
X581195Y253360D02*
X590460D01*
X24500Y457000D02*
X25000D01*
X157210Y250360D02*
X160710Y253860D01*
X16228Y464813D02*
X16687D01*
X55593Y524510D02*
X56863Y525780D01*
X231147Y468122D02*
X237146Y462122D01*
X16687Y464813D02*
X24500Y457000D01*
X600710Y317360D02*
X623824Y294246D01*
X579661Y251826D02*
X581195Y253360D01*
X41892Y524510D02*
X55593D01*
X215874Y468122D02*
X231147D01*
X623824Y258826D02*
Y294246D01*
X20960Y169860D02*
X22710Y168110D01*
Y136360D02*
Y168110D01*
X231648Y5080D02*
X364998D01*
X381710Y21792D01*
X205710Y100360D02*
X211710Y106360D01*
X184053Y320610D02*
X191960D01*
X178710Y315267D02*
X184053Y320610D01*
X38800Y511669D02*
X41892Y514761D01*
X191960Y320610D02*
X192710Y321360D01*
X286764Y431556D02*
X286887Y431679D01*
X25400Y504190D02*
Y504698D01*
X38800Y472327D02*
Y511669D01*
X178710Y283360D02*
Y315267D01*
X41892Y514761D02*
Y524510D01*
X38800Y472327D02*
X41892Y469235D01*
Y457108D02*
Y469235D01*
X13208Y491998D02*
X25400Y504190D01*
X41892Y457108D02*
X42000Y457000D01*
X211710Y106360D02*
Y164360D01*
X24892Y524510D02*
X25400Y524002D01*
X480508Y247326D02*
Y286561D01*
X286381Y427859D02*
X286764Y428242D01*
Y431556D01*
X25400Y504698D02*
Y524002D01*
X71210Y318860D02*
X72210Y319860D01*
X106393Y286512D02*
X106934D01*
X447802Y302006D02*
X460988D01*
X105241Y285360D02*
X106393Y286512D01*
X443460Y262360D02*
X447294Y266194D01*
X92710Y285360D02*
X105241D01*
X447294Y266194D02*
Y286512D01*
X66802Y311404D02*
X71210Y315812D01*
X220000Y46700D02*
Y55590D01*
X467106Y158750D02*
X471310Y162954D01*
Y224331D02*
X474210Y227230D01*
X462026Y303044D02*
X463710Y301360D01*
X231140Y16215D02*
X234655Y12700D01*
X270114Y23002D02*
X342552D01*
X474210Y241028D02*
X480508Y247326D01*
X266954Y26162D02*
X270114Y23002D01*
X471310Y162954D02*
Y224331D01*
X342552Y23002D02*
X356310Y36760D01*
X474210Y227230D02*
Y241028D01*
X389500Y51797D02*
Y65000D01*
X381710Y44007D02*
X389500Y51797D01*
X305250Y66000D02*
X305510Y65740D01*
X381710Y21792D02*
Y44007D01*
X302481Y12700D02*
X305783Y16002D01*
X58210Y300151D02*
Y301860D01*
X216662Y58928D02*
X220000Y55590D01*
X234655Y12700D02*
X302481D01*
X25400Y434760D02*
Y456600D01*
X231140Y16215D02*
Y35560D01*
X25000Y457000D02*
X25400Y456600D01*
X54210Y297860D02*
X58210Y301860D01*
Y300151D02*
X61710Y296651D01*
X219710Y209860D02*
Y212360D01*
X176710Y263860D02*
X181210Y268360D01*
X229710Y269360D02*
X236210Y262860D01*
X218710Y208860D02*
X219710Y209860D01*
X181210Y268360D02*
X193710D01*
X169960Y282610D02*
X170710Y283360D01*
X194503Y46482D02*
X207680D01*
X211941Y208860D02*
X218710D01*
X229710Y269360D02*
Y269860D01*
X207680Y46482D02*
X221996Y32166D01*
X140028Y82042D02*
X158943D01*
X194503Y46482D01*
X170410Y106460D02*
X177510Y99360D01*
X595376Y230260D02*
Y238194D01*
X170410Y106460D02*
Y125360D01*
X173210Y242360D02*
X176710Y245860D01*
X165210Y242360D02*
X173210D01*
X434806Y217656D02*
Y231456D01*
X446710Y243360D01*
X176710Y245860D02*
Y246360D01*
X160710Y237860D02*
X165210Y242360D01*
X202609Y198203D02*
X238710D01*
X195710Y205102D02*
X202609Y198203D01*
X407110Y38760D02*
X432510D01*
X280162Y53086D02*
X293184D01*
X77210Y235860D02*
Y242360D01*
X73710Y232360D02*
X77210Y235860D01*
X293184Y53086D02*
X305510Y40760D01*
Y38760D02*
Y40760D01*
X204358Y437537D02*
Y443335D01*
X73710Y179860D02*
X74538Y179032D01*
X58210Y301860D02*
Y333867D01*
X66548Y342205D02*
Y343916D01*
X58210Y333867D02*
X66548Y342205D01*
X136210Y174703D02*
X145010Y165903D01*
X136210Y204225D02*
X138572Y206587D01*
Y236108D01*
X152824Y250360D01*
X136210Y174703D02*
Y204225D01*
X273547Y383540D02*
X281381Y391375D01*
X36960Y185203D02*
Y213017D01*
X77210Y242360D02*
X91210Y256360D01*
X56460Y123610D02*
X73710Y106360D01*
X91210Y256360D02*
X91710D01*
X281381Y391375D02*
Y392032D01*
X56460Y123610D02*
Y180517D01*
X281381Y392032D02*
X287710Y398360D01*
X239268Y494702D02*
Y521462D01*
X287710Y398360D02*
X288210D01*
X36960Y185203D02*
X39303Y182860D01*
X239268Y494702D02*
X239686Y494284D01*
X227838Y383540D02*
X273547D01*
X193710Y248360D02*
Y268360D01*
X70210Y235860D02*
X73710Y232360D01*
X157710Y125360D02*
Y187360D01*
X235458Y75692D02*
X235912Y76146D01*
X266500D01*
X73710Y103360D02*
Y106360D01*
X193710Y248360D02*
X195710Y246360D01*
X419844Y295148D02*
X438658D01*
X463960Y262360D02*
X464210Y262110D01*
X419344Y295148D02*
X419844D01*
X464210Y243360D02*
Y262110D01*
X305783Y16002D02*
X306324D01*
X412844Y301648D02*
Y302305D01*
X438658Y295148D02*
X447294Y286512D01*
X383650Y295148D02*
X393150Y304648D01*
X443460Y246860D02*
Y262360D01*
Y246860D02*
X446960Y243360D01*
X383150Y295148D02*
X383650D01*
X186944Y374650D02*
Y378206D01*
X356310Y36760D02*
Y63190D01*
X410501Y304648D02*
X412844Y302305D01*
X186944Y378206D02*
X201262Y392524D01*
X412844Y301648D02*
X419344Y295148D01*
X393150Y304648D02*
X410501D01*
X73710Y31360D02*
Y34360D01*
X176710Y263360D02*
Y263860D01*
X177960Y282610D02*
X178710Y283360D01*
X23710Y43360D02*
X24710Y42360D01*
X20960Y169860D02*
Y190860D01*
X54117Y182860D02*
X56460Y180517D01*
X39303Y182860D02*
X54117D01*
X36960Y213017D02*
X39803Y215860D01*
X65710Y42360D02*
X73710Y34360D01*
X39803Y215860D02*
X47710D01*
X176710Y273453D02*
X177960Y274703D01*
X176710Y263860D02*
Y273453D01*
X177960Y274703D02*
Y282610D01*
X109210Y164110D02*
Y176360D01*
X24710Y42360D02*
X65710D01*
X20960Y190860D02*
Y214860D01*
X432510Y141160D02*
Y143160D01*
X369710Y205960D02*
X432510Y143160D01*
X108710Y256360D02*
Y270360D01*
X57780Y189860D02*
X57912Y189992D01*
X91710Y270360D02*
Y284360D01*
X47710Y189860D02*
X57780D01*
X91710Y284360D02*
X92710Y285360D01*
X221996Y14732D02*
X231648Y5080D01*
X126710Y95360D02*
X140028Y82042D01*
X143960Y272703D02*
X145960Y274703D01*
X198374Y449319D02*
X204358Y443335D01*
X198374Y449319D02*
Y464566D01*
X104290Y410060D02*
X176881D01*
X20960Y169860D02*
X44460D01*
X20960Y235860D02*
X70210D01*
X73710Y232360D02*
X104102D01*
X176881Y410060D02*
X204358Y437537D01*
X145960Y274703D02*
Y282610D01*
X104102Y232360D02*
X143960Y272218D01*
Y272703D01*
X220000Y46700D02*
X231140Y35560D01*
X233210Y123360D02*
Y134041D01*
X230886Y136365D02*
X233210Y134041D01*
X230886Y136365D02*
Y136906D01*
X108710Y270360D02*
X133488D01*
X135117Y271860D02*
X137960Y274703D01*
X77053Y308231D02*
X90295D01*
X94234Y420116D02*
X104290Y410060D01*
X146974Y187360D02*
X148844Y189230D01*
Y205994D01*
X213710Y449360D02*
X231210D01*
X213710Y464360D02*
X215710Y466360D01*
X213710Y449360D02*
Y464360D01*
X70210Y268360D02*
X70460D01*
X74710Y319860D02*
Y330790D01*
X73960Y251360D02*
Y264860D01*
X70460Y268360D02*
X73960Y264860D01*
X73500Y332000D02*
X74710Y330790D01*
X605085Y470916D02*
X608266D01*
X238710Y186360D02*
Y198203D01*
X232210Y222860D02*
X235710Y226360D01*
X232210Y220017D02*
Y222860D01*
X231710Y205203D02*
Y219517D01*
Y205203D02*
X238710Y198203D01*
X231710Y219517D02*
X232210Y220017D01*
X235710Y226360D02*
X236210D01*
X90295Y308231D02*
X90678Y307848D01*
X254105Y462122D02*
X258210Y458017D01*
X162374Y255524D02*
X164210Y257360D01*
X72210Y319860D02*
X74710D01*
X167210Y271017D02*
X169960Y273767D01*
X164210Y263531D02*
X167210Y266530D01*
Y271017D01*
X164210Y257360D02*
Y263531D01*
X446960Y243360D02*
X447210D01*
X446710D02*
X446960D01*
X465710Y301360D02*
X480508Y286561D01*
X432510Y215360D02*
X434806Y217656D01*
X463710Y301360D02*
X465710D01*
X146974Y187360D02*
X157710D01*
X109361Y163959D02*
X116457D01*
X116840Y163576D01*
X603580Y320230D02*
Y358916D01*
X654110Y180848D02*
X673913D01*
X109210Y164110D02*
X109361Y163959D01*
X210502Y480250D02*
Y488124D01*
X204574Y392524D02*
X211074Y399024D01*
X219710Y212360D02*
Y225860D01*
X201262Y392524D02*
X204574D01*
X198374Y468122D02*
X210502Y480250D01*
X219210Y226360D02*
X219710Y225860D01*
X258210Y443495D02*
X270205Y431500D01*
X266674Y443517D02*
X272691Y437500D01*
X266954Y63639D02*
Y75692D01*
X258210Y443495D02*
Y458017D01*
X270205Y431500D02*
X272355D01*
X284154Y419044D02*
Y419701D01*
X266500Y94157D02*
X271911Y99568D01*
X464210Y228907D02*
Y243360D01*
X457910Y217360D02*
Y222607D01*
X74710Y310574D02*
X77053Y308231D01*
X266954Y63639D02*
X275593Y55000D01*
X272691Y437500D02*
X281066D01*
X71210Y315812D02*
Y318860D01*
X457910Y222607D02*
X464210Y228907D01*
X272355Y431500D02*
X284154Y419701D01*
X266500Y76146D02*
Y94157D01*
X109361Y163959D02*
X110710Y162610D01*
X126710Y95360D02*
Y97360D01*
X266954Y26162D02*
Y39370D01*
X198374Y464566D02*
Y468122D01*
X281066Y437500D02*
X286887Y431679D01*
X145960Y282610D02*
X146710Y283360D01*
X20960Y214860D02*
Y235860D01*
X44460Y169860D02*
X45460Y170860D01*
X145010Y117360D02*
Y125360D01*
X305510Y40760D02*
Y65740D01*
X126710Y102607D02*
X132310Y108207D01*
X126710Y99060D02*
X145010Y117360D01*
X132310Y108207D02*
Y125360D01*
X614426Y369105D02*
Y401574D01*
X448710Y105810D02*
Y114860D01*
X452210Y118360D02*
X452710D01*
X444246Y101346D02*
X448710Y105810D01*
Y114860D02*
X452210Y118360D01*
X432510Y121560D02*
X435710Y118360D01*
X406500Y65000D02*
X407110Y64390D01*
X398710Y118360D02*
X399460Y117610D01*
X457910Y123060D02*
Y141160D01*
X399460Y99360D02*
Y117610D01*
X432510Y121560D02*
Y141160D01*
X398710Y129860D02*
X407110Y138260D01*
X354500Y65000D02*
X356310Y63190D01*
X398710Y118360D02*
Y129860D01*
X452710Y118360D02*
X453210D01*
X407110Y38760D02*
Y64390D01*
X453210Y118360D02*
X457910Y123060D01*
X658710Y169360D02*
X659710Y168360D01*
X673710D01*
X658710Y169360D02*
Y170360D01*
X160710Y237360D02*
Y237860D01*
X241737Y253177D02*
X268183D01*
X238867Y335174D02*
X242053Y338360D01*
X268183Y253177D02*
X273710Y258703D01*
X157710Y187360D02*
X160710Y190360D01*
X229710Y324360D02*
X238867Y333517D01*
X229710Y323860D02*
Y324360D01*
X160710Y190360D02*
Y237360D01*
X238867Y333517D02*
Y335174D01*
X236210Y247650D02*
X241737Y253177D01*
X140410Y38760D02*
X146940Y32230D01*
X202840D02*
X205710Y29360D01*
X146940Y32230D02*
X202840D01*
X85367Y120360D02*
X87710Y118017D01*
X587210Y322952D02*
X589610Y325352D01*
X87710Y88703D02*
Y118017D01*
X85367Y86360D02*
X87710Y88703D01*
X588604Y344459D02*
Y358898D01*
X73710Y128360D02*
X81710Y120360D01*
X73710Y75360D02*
Y78360D01*
X588604Y344459D02*
X589610Y343453D01*
X587210Y256610D02*
Y322952D01*
X23710Y43360D02*
Y76360D01*
X81710Y86360D02*
X85367D01*
X587210Y256610D02*
X590460Y253360D01*
X73710Y78360D02*
X81710Y86360D01*
X81710Y120360D02*
X85367D01*
X73710Y128360D02*
Y147360D01*
X589610Y325352D02*
Y343453D01*
X73710Y147360D02*
X114710D01*
X602836Y413164D02*
Y468667D01*
X664210Y324860D02*
Y365860D01*
X602836Y468667D02*
X605085Y470916D01*
X661110Y368960D02*
X664210Y365860D01*
X114710Y147360D02*
X115710Y148360D01*
X610482Y365161D02*
X614426Y369105D01*
X609825Y365161D02*
X610482D01*
X603580Y358916D02*
X609825Y365161D01*
X76200Y434760D02*
Y436760D01*
X42000Y457000D02*
X55960D01*
X76200Y436760D01*
X673710Y151360D02*
Y151860D01*
X639710Y184517D02*
X646710Y177517D01*
Y168203D02*
Y177517D01*
X659553Y155360D02*
X670210D01*
X639710Y184517D02*
Y196360D01*
X646710Y168203D02*
X659553Y155360D01*
X670210D02*
X673710Y151860D01*
X177510Y97360D02*
Y99360D01*
X126710Y99060D02*
Y102607D01*
Y97360D02*
Y99060D01*
X364672Y71329D02*
X371000Y65000D01*
X371500D01*
X635710Y230860D02*
X652710D01*
X590460Y253360D02*
X594210Y249610D01*
X284250Y66000D02*
X284750D01*
X211710Y266360D02*
X219210Y258860D01*
Y226360D02*
Y258860D01*
X211710Y266360D02*
Y268360D01*
X594210Y239360D02*
Y249610D01*
X628963Y230860D02*
X635710D01*
X364672Y71329D02*
Y71985D01*
X357663Y78994D02*
X364672Y71985D01*
X315214Y78994D02*
X357663D01*
X276500Y73750D02*
X284250Y66000D01*
X235458Y75692D02*
Y121112D01*
X198374Y464566D02*
X198502D01*
X460988Y302006D02*
X462026Y303044D01*
X198002Y464566D02*
X198374D01*
X206725Y336531D02*
X207381D01*
X81710Y39360D02*
Y50360D01*
X271367Y338360D02*
X273710Y336017D01*
X201867Y322610D02*
X204210Y324953D01*
X273710Y258703D02*
Y336017D01*
X81710Y50360D02*
X126710Y95360D01*
X73710Y31360D02*
X81710Y39360D01*
X242053Y338360D02*
X271367D01*
X213710Y342860D02*
Y343360D01*
X152824Y250360D02*
X157210D01*
X192710Y321360D02*
X197460D01*
X204210Y334017D02*
X206725Y336531D01*
X198710Y322610D02*
X201867D01*
X236210Y247650D02*
Y262860D01*
X197460Y321360D02*
X198710Y322610D01*
X236210Y226360D02*
Y247650D01*
X204210Y324953D02*
Y334017D01*
X207381Y336531D02*
X213710Y342860D01*
X211074Y399024D02*
X217574Y392524D01*
X218854D02*
X227838Y383540D01*
X217574Y392524D02*
X218854D01*
X407000Y65000D02*
X419960Y77960D01*
X406500Y65000D02*
X407000D01*
X419960Y77960D02*
Y99360D01*
X407110Y138260D02*
Y141160D01*
X278248Y55000D02*
X280162Y53086D01*
X291649Y88851D02*
X293500Y87000D01*
X625144Y234679D02*
X628963Y230860D01*
X624873Y234679D02*
X625144D01*
X371500Y65000D02*
X372000D01*
X381500Y74500D02*
X397157D01*
X399500Y71500D02*
X406000Y65000D01*
X397157Y74500D02*
X399500Y72157D01*
X276500Y73750D02*
Y87000D01*
X289306Y99568D02*
X291649Y97225D01*
X239686Y494284D02*
X240186D01*
X275593Y55000D02*
X278248D01*
X399500Y71500D02*
Y72157D01*
X406000Y65000D02*
X406500D01*
X240186Y494284D02*
X245186Y489284D01*
X291649Y88851D02*
Y97225D01*
X372000Y65000D02*
X381500Y74500D01*
X193460Y314110D02*
X201960D01*
X213710Y325860D01*
X177510Y95360D02*
Y97360D01*
X213710Y325860D02*
Y326360D01*
X608266Y470916D02*
X616710Y479360D01*
X177510Y95360D02*
X197686Y75184D01*
X616710Y479360D02*
X617210D01*
X152110Y97360D02*
X152110D01*
X190542Y58928D02*
X216662D01*
X197686Y75184D02*
X219456D01*
X673710Y168360D02*
X673913Y168563D01*
X152110Y97360D02*
X190542Y58928D01*
X195710Y205102D02*
Y225860D01*
X602836Y413164D02*
X614426Y401574D01*
X670210Y147860D02*
X673710Y151360D01*
X661110Y89560D02*
X670210Y98660D01*
Y147860D01*
X211210Y164360D02*
X211710D01*
X115710Y127860D02*
X131310D01*
X177510Y97360D02*
X183110Y102960D01*
X131310Y127860D02*
X132310Y126860D01*
X284154Y419044D02*
X287654Y415544D01*
X110710Y153360D02*
X115710Y148360D01*
X110710Y153360D02*
Y162610D01*
X287654Y415544D02*
X288154D01*
X132310Y125360D02*
Y126860D01*
X245186Y480849D02*
Y489284D01*
Y480849D02*
X266674Y459362D01*
X183110Y102960D02*
Y125360D01*
D73*
X148710Y422060D02*
D03*
Y447460D02*
D03*
Y472860D02*
D03*
X660710Y479360D02*
D03*
Y453960D02*
D03*
D74*
X148710Y396660D02*
D03*
X660710Y428560D02*
D03*
D75*
X417068Y521462D02*
D03*
X391668D02*
D03*
X366268D02*
D03*
X340868D02*
D03*
X315468D02*
D03*
X290068D02*
D03*
X264668D02*
D03*
X239268D02*
D03*
X213868D02*
D03*
X25400Y504698D02*
D03*
X76200D02*
D03*
X50800D02*
D03*
X76200Y479298D02*
D03*
X50800D02*
D03*
X25400Y434760D02*
D03*
X76200D02*
D03*
X50800D02*
D03*
X76200Y409360D02*
D03*
X50800D02*
D03*
X49000Y355600D02*
D03*
X23600D02*
D03*
Y381000D02*
D03*
X126710Y97360D02*
D03*
X152110D02*
D03*
X457910Y38760D02*
D03*
X432510D02*
D03*
X407110D02*
D03*
X381710D02*
D03*
X356310D02*
D03*
X330910D02*
D03*
X305510D02*
D03*
X496010D02*
D03*
X597610D02*
D03*
X572210D02*
D03*
X546810D02*
D03*
X521410D02*
D03*
X635710Y521360D02*
D03*
X610310D02*
D03*
X584910D02*
D03*
X559510D02*
D03*
X534110D02*
D03*
X508710D02*
D03*
X483310D02*
D03*
X280110Y141160D02*
D03*
X305510D02*
D03*
X330910D02*
D03*
X356310D02*
D03*
X381710D02*
D03*
X407110D02*
D03*
X432510D02*
D03*
X457910D02*
D03*
X483310D02*
D03*
X508710D02*
D03*
X534110D02*
D03*
X559510D02*
D03*
X584910D02*
D03*
X610310D02*
D03*
X280110Y217360D02*
D03*
X305510D02*
D03*
X330910D02*
D03*
X356310D02*
D03*
X381710D02*
D03*
X407110D02*
D03*
X432510D02*
D03*
X457910D02*
D03*
X483310D02*
D03*
X508710D02*
D03*
X534110D02*
D03*
X559510D02*
D03*
X584910D02*
D03*
D76*
X188468Y521462D02*
D03*
X25400Y479298D02*
D03*
Y409360D02*
D03*
X49000Y381000D02*
D03*
X177510Y97360D02*
D03*
X280110Y38760D02*
D03*
X623010D02*
D03*
X457910Y521360D02*
D03*
X610310Y217360D02*
D03*
D77*
X20960Y169860D02*
D03*
Y235860D02*
D03*
D78*
X22710Y136360D02*
D03*
X23710Y43360D02*
D03*
D79*
X250710Y29360D02*
D03*
Y100360D02*
D03*
X205710Y29360D02*
D03*
X600710Y272360D02*
D03*
X671710D02*
D03*
X600710Y317360D02*
D03*
D80*
X671710D02*
D03*
D81*
X153110Y521360D02*
D03*
D82*
X661110Y368960D02*
D03*
Y89560D02*
D03*
X140410Y38760D02*
D03*
D83*
X306324Y16002D02*
D03*
X621505Y63533D02*
D03*
X148844Y205994D02*
D03*
X61710Y296651D02*
D03*
X230886Y136906D02*
D03*
X82710Y186276D02*
D03*
X197358Y440436D02*
D03*
X66548Y343916D02*
D03*
X131572Y211836D02*
D03*
X150198Y269041D02*
D03*
X128524Y203200D02*
D03*
X159004Y268224D02*
D03*
X324502Y403208D02*
D03*
X354496Y373292D02*
D03*
X420092Y465860D02*
D03*
X437666Y452604D02*
D03*
X223012Y500634D02*
D03*
X314428Y413996D02*
D03*
X362815Y365609D02*
D03*
X370943Y357481D02*
D03*
X286381Y427859D02*
D03*
X133525Y349187D02*
D03*
X123571Y351663D02*
D03*
X110490Y366522D02*
D03*
X147320Y379476D02*
D03*
X198374Y378460D02*
D03*
X186944Y374650D02*
D03*
X86106Y317778D02*
D03*
X95898Y321195D02*
D03*
X78147Y343747D02*
D03*
X94234Y420116D02*
D03*
X170434Y427116D02*
D03*
X102108Y402336D02*
D03*
X66802Y311404D02*
D03*
X361710Y94360D02*
D03*
X467106Y158750D02*
D03*
X447294Y286512D02*
D03*
X116840Y163576D02*
D03*
X447802Y302006D02*
D03*
X579120Y251826D02*
D03*
X595376Y230260D02*
D03*
X623824Y258826D02*
D03*
X624873Y234679D02*
D03*
X654110Y180848D02*
D03*
X96012Y344932D02*
D03*
X106934Y286512D02*
D03*
X90678Y307848D02*
D03*
X102108Y468630D02*
D03*
X111506Y471678D02*
D03*
X57404Y525780D02*
D03*
X170434Y442722D02*
D03*
X275590Y444904D02*
D03*
X57912Y189992D02*
D03*
X209804Y207264D02*
D03*
X254762Y235204D02*
D03*
X621823Y453929D02*
D03*
X289814Y374904D02*
D03*
X345694Y348742D02*
D03*
X289814Y357886D02*
D03*
X290068Y366522D02*
D03*
X404093Y359226D02*
D03*
X400812Y366522D02*
D03*
X543560Y336042D02*
D03*
X565844Y302954D02*
D03*
X314048Y261799D02*
D03*
X542290Y307086D02*
D03*
X558546Y158242D02*
D03*
X582676Y157226D02*
D03*
X565658Y351028D02*
D03*
X403606Y476504D02*
D03*
X327406Y236220D02*
D03*
X300736Y242824D02*
D03*
X304292Y158496D02*
D03*
M02*
